SplineFontDB: 3.0
FontName: FontAwesome
FullName: FontAwesome Regular
FamilyName: FontAwesome
Weight: Book
Copyright: SIL Open Font License 1.1
Version: 4.0.2 2013
ItalicAngle: 0
UnderlinePosition: -89
UnderlineWidth: 90
Ascent: 1536
Descent: 256
sfntRevision: 0x00040000
woffMajor: 1
woffMinor: 0
LayerCount: 2
Layer: 0 1 "Arri+AOgA-re"  1
Layer: 1 1 "Avant"  0
XUID: [1021 435 22966 27189]
FSType: 4
OS2Version: 3
OS2_WeightWidthSlopeOnly: 0
OS2_UseTypoMetrics: 1
CreationTime: 1328468400
ModificationTime: 1399389329
PfmFamily: 81
TTFWeight: 400
TTFWidth: 5
LineGap: 0
VLineGap: 0
Panose: 0 0 0 0 0 0 0 0 0 0
OS2TypoAscent: 1536
OS2TypoAOffset: 0
OS2TypoDescent: -256
OS2TypoDOffset: 0
OS2TypoLinegap: 0
OS2WinAscent: 1536
OS2WinAOffset: 0
OS2WinDescent: 291
OS2WinDOffset: 0
HheadAscent: 1536
HheadAOffset: 0
HheadDescent: -291
HheadDOffset: 0
OS2SubXSize: 1164
OS2SubYSize: 1075
OS2SubXOff: 0
OS2SubYOff: 134
OS2SupXSize: 1164
OS2SupYSize: 1075
OS2SupXOff: 0
OS2SupYOff: 627
OS2StrikeYSize: 90
OS2StrikeYPos: 1075
OS2Vendor: 'pyrs'
OS2CodePages: 00000001.00000000
OS2UnicodeRanges: 00000000.00000000.00000000.00000000
DEI: 91125
ShortTable: maxp 16
  1
  0
  406
  537
  20
  0
  0
  2
  0
  1
  1
  0
  64
  0
  0
  0
EndShort
LangName: 1033 "" "" "Regular" "FONTLAB:OTFEXPORT" "" "Version 4.0.2 2013" "" "Please refer to the Copyright section for the font trademark attribution notices." "Fort Awesome" "Dave Gandy" "" "http://fontawesome.io" 
GaspTable: 1 65535 15 1
Encoding: UnicodeBmp
UnicodeInterp: none
NameList: Adobe Glyph List
DisplaySize: -24
AntiAlias: 1
FitToEm: 1
WinInfo: 61472 34 13
BeginChars: 65539 407

StartChar: .notdef
Encoding: 65536 -1 0
Width: 896
Flags: W
LayerCount: 2
Fore
SplineSet
224 112 m 1,0,-1
 672 112 l 1,1,-1
 672 1424 l 1,2,-1
 224 1424 l 1,3,-1
 224 112 l 1,0,-1
112 0 m 1,4,-1
 112 1536 l 1,5,-1
 784 1536 l 1,6,-1
 784 0 l 1,7,-1
 112 0 l 1,4,-1
EndSplineSet
EndChar

StartChar: uniE000
Encoding: 57344 57344 26
Width: 500
GlyphClass: 2
Flags: W
LayerCount: 2
Fore
SplineSet
0 0 m 0,0,-1
EndSplineSet
EndChar

StartChar: glass
Encoding: 61440 61440 27
Width: 1792
GlyphClass: 2
Flags: W
LayerCount: 2
Fore
SplineSet
1699 1350 m 0,0,1
 1699 1315 1699 1315 1656 1272 c 2,2,-1
 1024 640 l 1,3,-1
 1024 -128 l 1,4,-1
 1344 -128 l 2,5,6
 1370 -128 1370 -128 1389 -147 c 128,-1,7
 1408 -166 1408 -166 1408 -192 c 128,-1,8
 1408 -218 1408 -218 1389 -237 c 128,-1,9
 1370 -256 1370 -256 1344 -256 c 2,10,-1
 448 -256 l 2,11,12
 422 -256 422 -256 403 -237 c 128,-1,13
 384 -218 384 -218 384 -192 c 128,-1,14
 384 -166 384 -166 403 -147 c 128,-1,15
 422 -128 422 -128 448 -128 c 2,16,-1
 768 -128 l 1,17,-1
 768 640 l 1,18,-1
 136 1272 l 2,19,20
 93 1315 93 1315 93 1350 c 0,21,22
 93 1373 93 1373 111 1386.5 c 128,-1,23
 129 1400 129 1400 149 1404 c 128,-1,24
 169 1408 169 1408 192 1408 c 2,25,-1
 1600 1408 l 2,26,27
 1623 1408 1623 1408 1643 1404 c 128,-1,28
 1663 1400 1663 1400 1681 1386.5 c 128,-1,29
 1699 1373 1699 1373 1699 1350 c 0,0,1
EndSplineSet
EndChar

StartChar: music
Encoding: 61441 61441 28
Width: 1536
GlyphClass: 2
Flags: W
LayerCount: 2
Fore
SplineSet
1536 1312 m 2,0,-1
 1536 192 l 2,1,2
 1536 142 1536 142 1502 103 c 128,-1,3
 1468 64 1468 64 1416 42.5 c 128,-1,4
 1364 21 1364 21 1312.5 10.5 c 128,-1,5
 1261 0 1261 0 1216 0 c 128,-1,6
 1171 0 1171 0 1119.5 10.5 c 128,-1,7
 1068 21 1068 21 1016 42.5 c 128,-1,8
 964 64 964 64 930 103 c 128,-1,9
 896 142 896 142 896 192 c 128,-1,10
 896 242 896 242 930 281 c 128,-1,11
 964 320 964 320 1016 341.5 c 128,-1,12
 1068 363 1068 363 1119.5 373.5 c 128,-1,13
 1171 384 1171 384 1216 384 c 0,14,15
 1321 384 1321 384 1408 345 c 1,16,-1
 1408 882 l 1,17,-1
 640 645 l 1,18,-1
 640 -64 l 2,19,20
 640 -114 640 -114 606 -153 c 128,-1,21
 572 -192 572 -192 520 -213.5 c 128,-1,22
 468 -235 468 -235 416.5 -245.5 c 128,-1,23
 365 -256 365 -256 320 -256 c 128,-1,24
 275 -256 275 -256 223.5 -245.5 c 128,-1,25
 172 -235 172 -235 120 -213.5 c 128,-1,26
 68 -192 68 -192 34 -153 c 128,-1,27
 0 -114 0 -114 0 -64 c 128,-1,28
 0 -14 0 -14 34 25 c 128,-1,29
 68 64 68 64 120 85.5 c 128,-1,30
 172 107 172 107 223.5 117.5 c 128,-1,31
 275 128 275 128 320 128 c 0,32,33
 425 128 425 128 512 89 c 1,34,-1
 512 1056 l 2,35,36
 512 1087 512 1087 531 1112.5 c 128,-1,37
 550 1138 550 1138 580 1148 c 2,38,-1
 1412 1404 l 2,39,40
 1424 1408 1424 1408 1440 1408 c 0,41,42
 1480 1408 1480 1408 1508 1380 c 128,-1,43
 1536 1352 1536 1352 1536 1312 c 2,0,-1
EndSplineSet
EndChar

StartChar: search
Encoding: 61442 61442 29
Width: 1664
GlyphClass: 2
Flags: W
LayerCount: 2
Fore
SplineSet
1152 704 m 128,-1,1
 1152 889 1152 889 1020.5 1020.5 c 128,-1,2
 889 1152 889 1152 704 1152 c 128,-1,3
 519 1152 519 1152 387.5 1020.5 c 128,-1,4
 256 889 256 889 256 704 c 128,-1,5
 256 519 256 519 387.5 387.5 c 128,-1,6
 519 256 519 256 704 256 c 128,-1,7
 889 256 889 256 1020.5 387.5 c 128,-1,0
 1152 519 1152 519 1152 704 c 128,-1,1
1664 -128 m 0,8,9
 1664 -180 1664 -180 1626 -218 c 128,-1,10
 1588 -256 1588 -256 1536 -256 c 0,11,12
 1482 -256 1482 -256 1446 -218 c 1,13,-1
 1103 124 l 1,14,15
 924 0 924 0 704 0 c 0,16,17
 561 0 561 0 430.5 55.5 c 128,-1,18
 300 111 300 111 205.5 205.5 c 128,-1,19
 111 300 111 300 55.5 430.5 c 128,-1,20
 0 561 0 561 0 704 c 128,-1,21
 0 847 0 847 55.5 977.5 c 128,-1,22
 111 1108 111 1108 205.5 1202.5 c 128,-1,23
 300 1297 300 1297 430.5 1352.5 c 128,-1,24
 561 1408 561 1408 704 1408 c 128,-1,25
 847 1408 847 1408 977.5 1352.5 c 128,-1,26
 1108 1297 1108 1297 1202.5 1202.5 c 128,-1,27
 1297 1108 1297 1108 1352.5 977.5 c 128,-1,28
 1408 847 1408 847 1408 704 c 0,29,30
 1408 484 1408 484 1284 305 c 1,31,-1
 1627 -38 l 2,32,33
 1664 -75 1664 -75 1664 -128 c 0,8,9
EndSplineSet
EndChar

StartChar: envelope
Encoding: 61443 61443 30
Width: 1792
GlyphClass: 2
Flags: W
LayerCount: 2
Fore
SplineSet
1664 32 m 2,0,-1
 1664 800 l 1,1,2
 1632 764 1632 764 1595 734 c 1,3,4
 1327 528 1327 528 1169 396 c 0,5,6
 1118 353 1118 353 1086 329 c 128,-1,7
 1054 305 1054 305 999.5 280.5 c 128,-1,8
 945 256 945 256 897 256 c 2,9,-1
 896 256 l 1,10,-1
 895 256 l 2,11,12
 847 256 847 256 792.5 280.5 c 128,-1,13
 738 305 738 305 706 329 c 128,-1,14
 674 353 674 353 623 396 c 0,15,16
 465 528 465 528 197 734 c 1,17,18
 160 764 160 764 128 800 c 1,19,-1
 128 32 l 2,20,21
 128 19 128 19 137.5 9.5 c 128,-1,22
 147 0 147 0 160 0 c 2,23,-1
 1632 0 l 2,24,25
 1645 0 1645 0 1654.5 9.5 c 128,-1,26
 1664 19 1664 19 1664 32 c 2,0,-1
1664 1083 m 0,27,28
 1664 1085 1664 1085 1664 1094 c 128,-1,29
 1664 1103 1664 1103 1664 1107.5 c 128,-1,30
 1664 1112 1664 1112 1663.5 1120.5 c 128,-1,31
 1663 1129 1663 1129 1660.5 1133 c 128,-1,32
 1658 1137 1658 1137 1655 1142 c 128,-1,33
 1652 1147 1652 1147 1646 1149.5 c 128,-1,34
 1640 1152 1640 1152 1632 1152 c 2,35,-1
 160 1152 l 2,36,37
 147 1152 147 1152 137.5 1142.5 c 128,-1,38
 128 1133 128 1133 128 1120 c 0,39,40
 128 952 128 952 275 836 c 0,41,42
 468 684 468 684 676 519 c 0,43,44
 682 514 682 514 711 489.5 c 128,-1,45
 740 465 740 465 757 452 c 128,-1,46
 774 439 774 439 801.5 420.5 c 128,-1,47
 829 402 829 402 852 393 c 128,-1,48
 875 384 875 384 895 384 c 2,49,-1
 896 384 l 1,50,-1
 897 384 l 2,51,52
 917 384 917 384 940 393 c 128,-1,53
 963 402 963 402 990.5 420.5 c 128,-1,54
 1018 439 1018 439 1035 452 c 128,-1,55
 1052 465 1052 465 1081 489.5 c 128,-1,56
 1110 514 1110 514 1116 519 c 0,57,58
 1324 684 1324 684 1517 836 c 0,59,60
 1571 879 1571 879 1617.5 951.5 c 128,-1,61
 1664 1024 1664 1024 1664 1083 c 0,27,28
1792 1120 m 2,62,-1
 1792 32 l 2,63,64
 1792 -34 1792 -34 1745 -81 c 128,-1,65
 1698 -128 1698 -128 1632 -128 c 2,66,-1
 160 -128 l 2,67,68
 94 -128 94 -128 47 -81 c 128,-1,69
 0 -34 0 -34 0 32 c 2,70,-1
 0 1120 l 2,71,72
 0 1186 0 1186 47 1233 c 128,-1,73
 94 1280 94 1280 160 1280 c 2,74,-1
 1632 1280 l 2,75,76
 1698 1280 1698 1280 1745 1233 c 128,-1,77
 1792 1186 1792 1186 1792 1120 c 2,62,-1
EndSplineSet
EndChar

StartChar: heart
Encoding: 61444 61444 31
Width: 1792
GlyphClass: 2
Flags: W
LayerCount: 2
Fore
SplineSet
896 -128 m 128,-1,1
 870 -128 870 -128 852 -110 c 2,2,-1
 228 492 l 1,3,4
 218 500 218 500 200.5 518 c 128,-1,5
 183 536 183 536 145 583.5 c 128,-1,6
 107 631 107 631 77 681 c 128,-1,7
 47 731 47 731 23.5 802 c 128,-1,8
 0 873 0 873 0 940 c 0,9,10
 0 1160 0 1160 127 1284 c 128,-1,11
 254 1408 254 1408 478 1408 c 0,12,13
 540 1408 540 1408 604.5 1386.5 c 128,-1,14
 669 1365 669 1365 724.5 1328.5 c 128,-1,15
 780 1292 780 1292 820 1260 c 128,-1,16
 860 1228 860 1228 896 1192 c 1,17,18
 932 1228 932 1228 972 1260 c 128,-1,19
 1012 1292 1012 1292 1067.5 1328.5 c 128,-1,20
 1123 1365 1123 1365 1187.5 1386.5 c 128,-1,21
 1252 1408 1252 1408 1314 1408 c 0,22,23
 1538 1408 1538 1408 1665 1284 c 128,-1,24
 1792 1160 1792 1160 1792 940 c 0,25,26
 1792 719 1792 719 1563 490 c 1,27,-1
 940 -110 l 2,28,0
 922 -128 922 -128 896 -128 c 128,-1,1
EndSplineSet
EndChar

StartChar: star
Encoding: 61445 61445 32
Width: 1664
GlyphClass: 2
Flags: W
LayerCount: 2
Fore
SplineSet
1664 889 m 0,0,1
 1664 867 1664 867 1638 841 c 2,2,-1
 1275 487 l 1,3,-1
 1361 -13 l 2,4,5
 1362 -20 1362 -20 1362 -33 c 0,6,7
 1362 -54 1362 -54 1351.5 -68.5 c 128,-1,8
 1341 -83 1341 -83 1321 -83 c 0,9,10
 1302 -83 1302 -83 1281 -71 c 2,11,-1
 832 165 l 1,12,-1
 383 -71 l 2,13,14
 361 -83 361 -83 343 -83 c 0,15,16
 322 -83 322 -83 311.5 -68.5 c 128,-1,17
 301 -54 301 -54 301 -33 c 0,18,19
 301 -27 301 -27 303 -13 c 2,20,-1
 389 487 l 1,21,-1
 25 841 l 1,22,23
 0 868 0 868 0 889 c 0,24,25
 0 926 0 926 56 935 c 2,26,-1
 558 1008 l 1,27,-1
 783 1463 l 1,28,29
 802 1504 802 1504 832 1504 c 128,-1,30
 862 1504 862 1504 881 1463 c 1,31,-1
 1106 1008 l 1,32,-1
 1608 935 l 2,33,34
 1664 926 1664 926 1664 889 c 0,0,1
EndSplineSet
EndChar

StartChar: star_empty
Encoding: 61446 61446 33
Width: 1664
GlyphClass: 2
Flags: W
LayerCount: 2
Fore
SplineSet
1137 532 m 1,0,-1
 1443 829 l 1,1,-1
 1021 891 l 1,2,-1
 832 1273 l 1,3,-1
 643 891 l 1,4,-1
 221 829 l 1,5,-1
 527 532 l 1,6,-1
 454 111 l 1,7,-1
 832 310 l 1,8,-1
 1209 111 l 1,9,-1
 1137 532 l 1,0,-1
1664 889 m 0,10,11
 1664 867 1664 867 1638 841 c 2,12,-1
 1275 487 l 1,13,-1
 1361 -13 l 2,14,15
 1362 -20 1362 -20 1362 -33 c 0,16,17
 1362 -83 1362 -83 1321 -83 c 0,18,19
 1302 -83 1302 -83 1281 -71 c 2,20,-1
 832 165 l 1,21,-1
 383 -71 l 2,22,23
 361 -83 361 -83 343 -83 c 0,24,25
 322 -83 322 -83 311.5 -68.5 c 128,-1,26
 301 -54 301 -54 301 -33 c 0,27,28
 301 -27 301 -27 303 -13 c 2,29,-1
 389 487 l 1,30,-1
 25 841 l 1,31,32
 0 868 0 868 0 889 c 0,33,34
 0 926 0 926 56 935 c 2,35,-1
 558 1008 l 1,36,-1
 783 1463 l 1,37,38
 802 1504 802 1504 832 1504 c 128,-1,39
 862 1504 862 1504 881 1463 c 1,40,-1
 1106 1008 l 1,41,-1
 1608 935 l 2,42,43
 1664 926 1664 926 1664 889 c 0,10,11
EndSplineSet
EndChar

StartChar: user
Encoding: 61447 61447 34
Width: 1408
GlyphClass: 2
Flags: W
LayerCount: 2
Fore
SplineSet
1408 131 m 0,0,1
 1408 11 1408 11 1335 -58.5 c 128,-1,2
 1262 -128 1262 -128 1141 -128 c 2,3,-1
 267 -128 l 2,4,5
 146 -128 146 -128 73 -58.5 c 128,-1,6
 0 11 0 11 0 131 c 0,7,8
 0 184 0 184 3.5 234.5 c 128,-1,9
 7 285 7 285 17.5 343.5 c 128,-1,10
 28 402 28 402 44 452 c 128,-1,11
 60 502 60 502 87 549.5 c 128,-1,12
 114 597 114 597 149 630.5 c 128,-1,13
 184 664 184 664 234.5 684 c 128,-1,14
 285 704 285 704 346 704 c 0,15,16
 355 704 355 704 388 682.5 c 128,-1,17
 421 661 421 661 462.5 634.5 c 128,-1,18
 504 608 504 608 570.5 586.5 c 128,-1,19
 637 565 637 565 704 565 c 128,-1,20
 771 565 771 565 837.5 586.5 c 128,-1,21
 904 608 904 608 945.5 634.5 c 128,-1,22
 987 661 987 661 1020 682.5 c 128,-1,23
 1053 704 1053 704 1062 704 c 0,24,25
 1123 704 1123 704 1173.5 684 c 128,-1,26
 1224 664 1224 664 1259 630.5 c 128,-1,27
 1294 597 1294 597 1321 549.5 c 128,-1,28
 1348 502 1348 502 1364 452 c 128,-1,29
 1380 402 1380 402 1390.5 343.5 c 128,-1,30
 1401 285 1401 285 1404.5 234.5 c 128,-1,31
 1408 184 1408 184 1408 131 c 0,0,1
1088 1024 m 128,-1,33
 1088 865 1088 865 975.5 752.5 c 128,-1,34
 863 640 863 640 704 640 c 128,-1,35
 545 640 545 640 432.5 752.5 c 128,-1,36
 320 865 320 865 320 1024 c 128,-1,37
 320 1183 320 1183 432.5 1295.5 c 128,-1,38
 545 1408 545 1408 704 1408 c 128,-1,39
 863 1408 863 1408 975.5 1295.5 c 128,-1,32
 1088 1183 1088 1183 1088 1024 c 128,-1,33
EndSplineSet
EndChar

StartChar: film
Encoding: 61448 61448 35
Width: 1920
GlyphClass: 2
Flags: W
LayerCount: 2
Fore
SplineSet
384 -64 m 2,0,-1
 384 64 l 2,1,2
 384 90 384 90 365 109 c 128,-1,3
 346 128 346 128 320 128 c 2,4,-1
 192 128 l 2,5,6
 166 128 166 128 147 109 c 128,-1,7
 128 90 128 90 128 64 c 2,8,-1
 128 -64 l 2,9,10
 128 -90 128 -90 147 -109 c 128,-1,11
 166 -128 166 -128 192 -128 c 2,12,-1
 320 -128 l 2,13,14
 346 -128 346 -128 365 -109 c 128,-1,15
 384 -90 384 -90 384 -64 c 2,0,-1
384 320 m 2,16,-1
 384 448 l 2,17,18
 384 474 384 474 365 493 c 128,-1,19
 346 512 346 512 320 512 c 2,20,-1
 192 512 l 2,21,22
 166 512 166 512 147 493 c 128,-1,23
 128 474 128 474 128 448 c 2,24,-1
 128 320 l 2,25,26
 128 294 128 294 147 275 c 128,-1,27
 166 256 166 256 192 256 c 2,28,-1
 320 256 l 2,29,30
 346 256 346 256 365 275 c 128,-1,31
 384 294 384 294 384 320 c 2,16,-1
384 704 m 2,32,-1
 384 832 l 2,33,34
 384 858 384 858 365 877 c 128,-1,35
 346 896 346 896 320 896 c 2,36,-1
 192 896 l 2,37,38
 166 896 166 896 147 877 c 128,-1,39
 128 858 128 858 128 832 c 2,40,-1
 128 704 l 2,41,42
 128 678 128 678 147 659 c 128,-1,43
 166 640 166 640 192 640 c 2,44,-1
 320 640 l 2,45,46
 346 640 346 640 365 659 c 128,-1,47
 384 678 384 678 384 704 c 2,32,-1
1408 -64 m 2,48,-1
 1408 448 l 2,49,50
 1408 474 1408 474 1389 493 c 128,-1,51
 1370 512 1370 512 1344 512 c 2,52,-1
 576 512 l 2,53,54
 550 512 550 512 531 493 c 128,-1,55
 512 474 512 474 512 448 c 2,56,-1
 512 -64 l 2,57,58
 512 -90 512 -90 531 -109 c 128,-1,59
 550 -128 550 -128 576 -128 c 2,60,-1
 1344 -128 l 2,61,62
 1370 -128 1370 -128 1389 -109 c 128,-1,63
 1408 -90 1408 -90 1408 -64 c 2,48,-1
384 1088 m 2,64,-1
 384 1216 l 2,65,66
 384 1242 384 1242 365 1261 c 128,-1,67
 346 1280 346 1280 320 1280 c 2,68,-1
 192 1280 l 2,69,70
 166 1280 166 1280 147 1261 c 128,-1,71
 128 1242 128 1242 128 1216 c 2,72,-1
 128 1088 l 2,73,74
 128 1062 128 1062 147 1043 c 128,-1,75
 166 1024 166 1024 192 1024 c 2,76,-1
 320 1024 l 2,77,78
 346 1024 346 1024 365 1043 c 128,-1,79
 384 1062 384 1062 384 1088 c 2,64,-1
1792 -64 m 2,80,-1
 1792 64 l 2,81,82
 1792 90 1792 90 1773 109 c 128,-1,83
 1754 128 1754 128 1728 128 c 2,84,-1
 1600 128 l 2,85,86
 1574 128 1574 128 1555 109 c 128,-1,87
 1536 90 1536 90 1536 64 c 2,88,-1
 1536 -64 l 2,89,90
 1536 -90 1536 -90 1555 -109 c 128,-1,91
 1574 -128 1574 -128 1600 -128 c 2,92,-1
 1728 -128 l 2,93,94
 1754 -128 1754 -128 1773 -109 c 128,-1,95
 1792 -90 1792 -90 1792 -64 c 2,80,-1
1408 704 m 2,96,-1
 1408 1216 l 2,97,98
 1408 1242 1408 1242 1389 1261 c 128,-1,99
 1370 1280 1370 1280 1344 1280 c 2,100,-1
 576 1280 l 2,101,102
 550 1280 550 1280 531 1261 c 128,-1,103
 512 1242 512 1242 512 1216 c 2,104,-1
 512 704 l 2,105,106
 512 678 512 678 531 659 c 128,-1,107
 550 640 550 640 576 640 c 2,108,-1
 1344 640 l 2,109,110
 1370 640 1370 640 1389 659 c 128,-1,111
 1408 678 1408 678 1408 704 c 2,96,-1
1792 320 m 2,112,-1
 1792 448 l 2,113,114
 1792 474 1792 474 1773 493 c 128,-1,115
 1754 512 1754 512 1728 512 c 2,116,-1
 1600 512 l 2,117,118
 1574 512 1574 512 1555 493 c 128,-1,119
 1536 474 1536 474 1536 448 c 2,120,-1
 1536 320 l 2,121,122
 1536 294 1536 294 1555 275 c 128,-1,123
 1574 256 1574 256 1600 256 c 2,124,-1
 1728 256 l 2,125,126
 1754 256 1754 256 1773 275 c 128,-1,127
 1792 294 1792 294 1792 320 c 2,112,-1
1792 704 m 2,128,-1
 1792 832 l 2,129,130
 1792 858 1792 858 1773 877 c 128,-1,131
 1754 896 1754 896 1728 896 c 2,132,-1
 1600 896 l 2,133,134
 1574 896 1574 896 1555 877 c 128,-1,135
 1536 858 1536 858 1536 832 c 2,136,-1
 1536 704 l 2,137,138
 1536 678 1536 678 1555 659 c 128,-1,139
 1574 640 1574 640 1600 640 c 2,140,-1
 1728 640 l 2,141,142
 1754 640 1754 640 1773 659 c 128,-1,143
 1792 678 1792 678 1792 704 c 2,128,-1
1792 1088 m 2,144,-1
 1792 1216 l 2,145,146
 1792 1242 1792 1242 1773 1261 c 128,-1,147
 1754 1280 1754 1280 1728 1280 c 2,148,-1
 1600 1280 l 2,149,150
 1574 1280 1574 1280 1555 1261 c 128,-1,151
 1536 1242 1536 1242 1536 1216 c 2,152,-1
 1536 1088 l 2,153,154
 1536 1062 1536 1062 1555 1043 c 128,-1,155
 1574 1024 1574 1024 1600 1024 c 2,156,-1
 1728 1024 l 2,157,158
 1754 1024 1754 1024 1773 1043 c 128,-1,159
 1792 1062 1792 1062 1792 1088 c 2,144,-1
1920 1248 m 2,160,-1
 1920 -96 l 2,161,162
 1920 -162 1920 -162 1873 -209 c 128,-1,163
 1826 -256 1826 -256 1760 -256 c 2,164,-1
 160 -256 l 2,165,166
 94 -256 94 -256 47 -209 c 128,-1,167
 0 -162 0 -162 0 -96 c 2,168,-1
 0 1248 l 2,169,170
 0 1314 0 1314 47 1361 c 128,-1,171
 94 1408 94 1408 160 1408 c 2,172,-1
 1760 1408 l 2,173,174
 1826 1408 1826 1408 1873 1361 c 128,-1,175
 1920 1314 1920 1314 1920 1248 c 2,160,-1
EndSplineSet
EndChar

StartChar: th_large
Encoding: 61449 61449 36
Width: 1664
GlyphClass: 2
Flags: W
LayerCount: 2
Fore
SplineSet
768 512 m 2,0,-1
 768 128 l 2,1,2
 768 76 768 76 730 38 c 128,-1,3
 692 0 692 0 640 0 c 2,4,-1
 128 0 l 2,5,6
 76 0 76 0 38 38 c 128,-1,7
 0 76 0 76 0 128 c 2,8,-1
 0 512 l 2,9,10
 0 564 0 564 38 602 c 128,-1,11
 76 640 76 640 128 640 c 2,12,-1
 640 640 l 2,13,14
 692 640 692 640 730 602 c 128,-1,15
 768 564 768 564 768 512 c 2,0,-1
768 1280 m 2,16,-1
 768 896 l 2,17,18
 768 844 768 844 730 806 c 128,-1,19
 692 768 692 768 640 768 c 2,20,-1
 128 768 l 2,21,22
 76 768 76 768 38 806 c 128,-1,23
 0 844 0 844 0 896 c 2,24,-1
 0 1280 l 2,25,26
 0 1332 0 1332 38 1370 c 128,-1,27
 76 1408 76 1408 128 1408 c 2,28,-1
 640 1408 l 2,29,30
 692 1408 692 1408 730 1370 c 128,-1,31
 768 1332 768 1332 768 1280 c 2,16,-1
1664 512 m 2,32,-1
 1664 128 l 2,33,34
 1664 76 1664 76 1626 38 c 128,-1,35
 1588 0 1588 0 1536 0 c 2,36,-1
 1024 0 l 2,37,38
 972 0 972 0 934 38 c 128,-1,39
 896 76 896 76 896 128 c 2,40,-1
 896 512 l 2,41,42
 896 564 896 564 934 602 c 128,-1,43
 972 640 972 640 1024 640 c 2,44,-1
 1536 640 l 2,45,46
 1588 640 1588 640 1626 602 c 128,-1,47
 1664 564 1664 564 1664 512 c 2,32,-1
1664 1280 m 2,48,-1
 1664 896 l 2,49,50
 1664 844 1664 844 1626 806 c 128,-1,51
 1588 768 1588 768 1536 768 c 2,52,-1
 1024 768 l 2,53,54
 972 768 972 768 934 806 c 128,-1,55
 896 844 896 844 896 896 c 2,56,-1
 896 1280 l 2,57,58
 896 1332 896 1332 934 1370 c 128,-1,59
 972 1408 972 1408 1024 1408 c 2,60,-1
 1536 1408 l 2,61,62
 1588 1408 1588 1408 1626 1370 c 128,-1,63
 1664 1332 1664 1332 1664 1280 c 2,48,-1
EndSplineSet
EndChar

StartChar: th
Encoding: 61450 61450 37
Width: 1792
GlyphClass: 2
Flags: W
LayerCount: 2
Fore
SplineSet
512 288 m 2,0,-1
 512 96 l 2,1,2
 512 56 512 56 484 28 c 128,-1,3
 456 0 456 0 416 0 c 2,4,-1
 96 0 l 2,5,6
 56 0 56 0 28 28 c 128,-1,7
 0 56 0 56 0 96 c 2,8,-1
 0 288 l 2,9,10
 0 328 0 328 28 356 c 128,-1,11
 56 384 56 384 96 384 c 2,12,-1
 416 384 l 2,13,14
 456 384 456 384 484 356 c 128,-1,15
 512 328 512 328 512 288 c 2,0,-1
512 800 m 2,16,-1
 512 608 l 2,17,18
 512 568 512 568 484 540 c 128,-1,19
 456 512 456 512 416 512 c 2,20,-1
 96 512 l 2,21,22
 56 512 56 512 28 540 c 128,-1,23
 0 568 0 568 0 608 c 2,24,-1
 0 800 l 2,25,26
 0 840 0 840 28 868 c 128,-1,27
 56 896 56 896 96 896 c 2,28,-1
 416 896 l 2,29,30
 456 896 456 896 484 868 c 128,-1,31
 512 840 512 840 512 800 c 2,16,-1
1152 288 m 2,32,-1
 1152 96 l 2,33,34
 1152 56 1152 56 1124 28 c 128,-1,35
 1096 0 1096 0 1056 0 c 2,36,-1
 736 0 l 2,37,38
 696 0 696 0 668 28 c 128,-1,39
 640 56 640 56 640 96 c 2,40,-1
 640 288 l 2,41,42
 640 328 640 328 668 356 c 128,-1,43
 696 384 696 384 736 384 c 2,44,-1
 1056 384 l 2,45,46
 1096 384 1096 384 1124 356 c 128,-1,47
 1152 328 1152 328 1152 288 c 2,32,-1
512 1312 m 2,48,-1
 512 1120 l 2,49,50
 512 1080 512 1080 484 1052 c 128,-1,51
 456 1024 456 1024 416 1024 c 2,52,-1
 96 1024 l 2,53,54
 56 1024 56 1024 28 1052 c 128,-1,55
 0 1080 0 1080 0 1120 c 2,56,-1
 0 1312 l 2,57,58
 0 1352 0 1352 28 1380 c 128,-1,59
 56 1408 56 1408 96 1408 c 2,60,-1
 416 1408 l 2,61,62
 456 1408 456 1408 484 1380 c 128,-1,63
 512 1352 512 1352 512 1312 c 2,48,-1
1152 800 m 2,64,-1
 1152 608 l 2,65,66
 1152 568 1152 568 1124 540 c 128,-1,67
 1096 512 1096 512 1056 512 c 2,68,-1
 736 512 l 2,69,70
 696 512 696 512 668 540 c 128,-1,71
 640 568 640 568 640 608 c 2,72,-1
 640 800 l 2,73,74
 640 840 640 840 668 868 c 128,-1,75
 696 896 696 896 736 896 c 2,76,-1
 1056 896 l 2,77,78
 1096 896 1096 896 1124 868 c 128,-1,79
 1152 840 1152 840 1152 800 c 2,64,-1
1792 288 m 2,80,-1
 1792 96 l 2,81,82
 1792 56 1792 56 1764 28 c 128,-1,83
 1736 0 1736 0 1696 0 c 2,84,-1
 1376 0 l 2,85,86
 1336 0 1336 0 1308 28 c 128,-1,87
 1280 56 1280 56 1280 96 c 2,88,-1
 1280 288 l 2,89,90
 1280 328 1280 328 1308 356 c 128,-1,91
 1336 384 1336 384 1376 384 c 2,92,-1
 1696 384 l 2,93,94
 1736 384 1736 384 1764 356 c 128,-1,95
 1792 328 1792 328 1792 288 c 2,80,-1
1152 1312 m 2,96,-1
 1152 1120 l 2,97,98
 1152 1080 1152 1080 1124 1052 c 128,-1,99
 1096 1024 1096 1024 1056 1024 c 2,100,-1
 736 1024 l 2,101,102
 696 1024 696 1024 668 1052 c 128,-1,103
 640 1080 640 1080 640 1120 c 2,104,-1
 640 1312 l 2,105,106
 640 1352 640 1352 668 1380 c 128,-1,107
 696 1408 696 1408 736 1408 c 2,108,-1
 1056 1408 l 2,109,110
 1096 1408 1096 1408 1124 1380 c 128,-1,111
 1152 1352 1152 1352 1152 1312 c 2,96,-1
1792 800 m 2,112,-1
 1792 608 l 2,113,114
 1792 568 1792 568 1764 540 c 128,-1,115
 1736 512 1736 512 1696 512 c 2,116,-1
 1376 512 l 2,117,118
 1336 512 1336 512 1308 540 c 128,-1,119
 1280 568 1280 568 1280 608 c 2,120,-1
 1280 800 l 2,121,122
 1280 840 1280 840 1308 868 c 128,-1,123
 1336 896 1336 896 1376 896 c 2,124,-1
 1696 896 l 2,125,126
 1736 896 1736 896 1764 868 c 128,-1,127
 1792 840 1792 840 1792 800 c 2,112,-1
1792 1312 m 2,128,-1
 1792 1120 l 2,129,130
 1792 1080 1792 1080 1764 1052 c 128,-1,131
 1736 1024 1736 1024 1696 1024 c 2,132,-1
 1376 1024 l 2,133,134
 1336 1024 1336 1024 1308 1052 c 128,-1,135
 1280 1080 1280 1080 1280 1120 c 2,136,-1
 1280 1312 l 2,137,138
 1280 1352 1280 1352 1308 1380 c 128,-1,139
 1336 1408 1336 1408 1376 1408 c 2,140,-1
 1696 1408 l 2,141,142
 1736 1408 1736 1408 1764 1380 c 128,-1,143
 1792 1352 1792 1352 1792 1312 c 2,128,-1
EndSplineSet
EndChar

StartChar: th_list
Encoding: 61451 61451 38
Width: 1792
GlyphClass: 2
Flags: W
LayerCount: 2
Fore
SplineSet
512 288 m 2,0,-1
 512 96 l 2,1,2
 512 56 512 56 484 28 c 128,-1,3
 456 0 456 0 416 0 c 2,4,-1
 96 0 l 2,5,6
 56 0 56 0 28 28 c 128,-1,7
 0 56 0 56 0 96 c 2,8,-1
 0 288 l 2,9,10
 0 328 0 328 28 356 c 128,-1,11
 56 384 56 384 96 384 c 2,12,-1
 416 384 l 2,13,14
 456 384 456 384 484 356 c 128,-1,15
 512 328 512 328 512 288 c 2,0,-1
512 800 m 2,16,-1
 512 608 l 2,17,18
 512 568 512 568 484 540 c 128,-1,19
 456 512 456 512 416 512 c 2,20,-1
 96 512 l 2,21,22
 56 512 56 512 28 540 c 128,-1,23
 0 568 0 568 0 608 c 2,24,-1
 0 800 l 2,25,26
 0 840 0 840 28 868 c 128,-1,27
 56 896 56 896 96 896 c 2,28,-1
 416 896 l 2,29,30
 456 896 456 896 484 868 c 128,-1,31
 512 840 512 840 512 800 c 2,16,-1
1792 288 m 2,32,-1
 1792 96 l 2,33,34
 1792 56 1792 56 1764 28 c 128,-1,35
 1736 0 1736 0 1696 0 c 2,36,-1
 736 0 l 2,37,38
 696 0 696 0 668 28 c 128,-1,39
 640 56 640 56 640 96 c 2,40,-1
 640 288 l 2,41,42
 640 328 640 328 668 356 c 128,-1,43
 696 384 696 384 736 384 c 2,44,-1
 1696 384 l 2,45,46
 1736 384 1736 384 1764 356 c 128,-1,47
 1792 328 1792 328 1792 288 c 2,32,-1
512 1312 m 2,48,-1
 512 1120 l 2,49,50
 512 1080 512 1080 484 1052 c 128,-1,51
 456 1024 456 1024 416 1024 c 2,52,-1
 96 1024 l 2,53,54
 56 1024 56 1024 28 1052 c 128,-1,55
 0 1080 0 1080 0 1120 c 2,56,-1
 0 1312 l 2,57,58
 0 1352 0 1352 28 1380 c 128,-1,59
 56 1408 56 1408 96 1408 c 2,60,-1
 416 1408 l 2,61,62
 456 1408 456 1408 484 1380 c 128,-1,63
 512 1352 512 1352 512 1312 c 2,48,-1
1792 800 m 2,64,-1
 1792 608 l 2,65,66
 1792 568 1792 568 1764 540 c 128,-1,67
 1736 512 1736 512 1696 512 c 2,68,-1
 736 512 l 2,69,70
 696 512 696 512 668 540 c 128,-1,71
 640 568 640 568 640 608 c 2,72,-1
 640 800 l 2,73,74
 640 840 640 840 668 868 c 128,-1,75
 696 896 696 896 736 896 c 2,76,-1
 1696 896 l 2,77,78
 1736 896 1736 896 1764 868 c 128,-1,79
 1792 840 1792 840 1792 800 c 2,64,-1
1792 1312 m 2,80,-1
 1792 1120 l 2,81,82
 1792 1080 1792 1080 1764 1052 c 128,-1,83
 1736 1024 1736 1024 1696 1024 c 2,84,-1
 736 1024 l 2,85,86
 696 1024 696 1024 668 1052 c 128,-1,87
 640 1080 640 1080 640 1120 c 2,88,-1
 640 1312 l 2,89,90
 640 1352 640 1352 668 1380 c 128,-1,91
 696 1408 696 1408 736 1408 c 2,92,-1
 1696 1408 l 2,93,94
 1736 1408 1736 1408 1764 1380 c 128,-1,95
 1792 1352 1792 1352 1792 1312 c 2,80,-1
EndSplineSet
EndChar

StartChar: ok
Encoding: 61452 61452 39
Width: 1792
GlyphClass: 2
Flags: W
LayerCount: 2
Fore
SplineSet
1671 970 m 128,-1,1
 1671 930 1671 930 1643 902 c 2,2,-1
 919 178 l 1,3,-1
 783 42 l 2,4,5
 755 14 755 14 715 14 c 128,-1,6
 675 14 675 14 647 42 c 2,7,-1
 511 178 l 1,8,-1
 149 540 l 2,9,10
 121 568 121 568 121 608 c 128,-1,11
 121 648 121 648 149 676 c 2,12,-1
 285 812 l 2,13,14
 313 840 313 840 353 840 c 128,-1,15
 393 840 393 840 421 812 c 2,16,-1
 715 517 l 1,17,-1
 1371 1174 l 2,18,19
 1399 1202 1399 1202 1439 1202 c 128,-1,20
 1479 1202 1479 1202 1507 1174 c 2,21,-1
 1643 1038 l 2,22,0
 1671 1010 1671 1010 1671 970 c 128,-1,1
EndSplineSet
EndChar

StartChar: remove
Encoding: 61453 61453 40
Width: 1408
GlyphClass: 2
Flags: W
LayerCount: 2
Fore
SplineSet
1298 214 m 128,-1,1
 1298 174 1298 174 1270 146 c 2,2,-1
 1134 10 l 2,3,4
 1106 -18 1106 -18 1066 -18 c 128,-1,5
 1026 -18 1026 -18 998 10 c 2,6,-1
 704 304 l 1,7,-1
 410 10 l 2,8,9
 382 -18 382 -18 342 -18 c 128,-1,10
 302 -18 302 -18 274 10 c 2,11,-1
 138 146 l 2,12,13
 110 174 110 174 110 214 c 128,-1,14
 110 254 110 254 138 282 c 2,15,-1
 432 576 l 1,16,-1
 138 870 l 2,17,18
 110 898 110 898 110 938 c 128,-1,19
 110 978 110 978 138 1006 c 2,20,-1
 274 1142 l 2,21,22
 302 1170 302 1170 342 1170 c 128,-1,23
 382 1170 382 1170 410 1142 c 2,24,-1
 704 848 l 1,25,-1
 998 1142 l 2,26,27
 1026 1170 1026 1170 1066 1170 c 128,-1,28
 1106 1170 1106 1170 1134 1142 c 2,29,-1
 1270 1006 l 2,30,31
 1298 978 1298 978 1298 938 c 128,-1,32
 1298 898 1298 898 1270 870 c 2,33,-1
 976 576 l 1,34,-1
 1270 282 l 2,35,0
 1298 254 1298 254 1298 214 c 128,-1,1
EndSplineSet
EndChar

StartChar: zoom_in
Encoding: 61454 61454 41
Width: 1664
GlyphClass: 2
Flags: W
LayerCount: 2
Fore
SplineSet
1024 736 m 2,0,-1
 1024 672 l 2,1,2
 1024 659 1024 659 1014.5 649.5 c 128,-1,3
 1005 640 1005 640 992 640 c 2,4,-1
 768 640 l 1,5,-1
 768 416 l 2,6,7
 768 403 768 403 758.5 393.5 c 128,-1,8
 749 384 749 384 736 384 c 2,9,-1
 672 384 l 2,10,11
 659 384 659 384 649.5 393.5 c 128,-1,12
 640 403 640 403 640 416 c 2,13,-1
 640 640 l 1,14,-1
 416 640 l 2,15,16
 403 640 403 640 393.5 649.5 c 128,-1,17
 384 659 384 659 384 672 c 2,18,-1
 384 736 l 2,19,20
 384 749 384 749 393.5 758.5 c 128,-1,21
 403 768 403 768 416 768 c 2,22,-1
 640 768 l 1,23,-1
 640 992 l 2,24,25
 640 1005 640 1005 649.5 1014.5 c 128,-1,26
 659 1024 659 1024 672 1024 c 2,27,-1
 736 1024 l 2,28,29
 749 1024 749 1024 758.5 1014.5 c 128,-1,30
 768 1005 768 1005 768 992 c 2,31,-1
 768 768 l 1,32,-1
 992 768 l 2,33,34
 1005 768 1005 768 1014.5 758.5 c 128,-1,35
 1024 749 1024 749 1024 736 c 2,0,-1
1152 704 m 128,-1,37
 1152 889 1152 889 1020.5 1020.5 c 128,-1,38
 889 1152 889 1152 704 1152 c 128,-1,39
 519 1152 519 1152 387.5 1020.5 c 128,-1,40
 256 889 256 889 256 704 c 128,-1,41
 256 519 256 519 387.5 387.5 c 128,-1,42
 519 256 519 256 704 256 c 128,-1,43
 889 256 889 256 1020.5 387.5 c 128,-1,36
 1152 519 1152 519 1152 704 c 128,-1,37
1664 -128 m 128,-1,45
 1664 -181 1664 -181 1626.5 -218.5 c 128,-1,46
 1589 -256 1589 -256 1536 -256 c 0,47,48
 1482 -256 1482 -256 1446 -218 c 1,49,-1
 1103 124 l 1,50,51
 924 0 924 0 704 0 c 0,52,53
 561 0 561 0 430.5 55.5 c 128,-1,54
 300 111 300 111 205.5 205.5 c 128,-1,55
 111 300 111 300 55.5 430.5 c 128,-1,56
 0 561 0 561 0 704 c 128,-1,57
 0 847 0 847 55.5 977.5 c 128,-1,58
 111 1108 111 1108 205.5 1202.5 c 128,-1,59
 300 1297 300 1297 430.5 1352.5 c 128,-1,60
 561 1408 561 1408 704 1408 c 128,-1,61
 847 1408 847 1408 977.5 1352.5 c 128,-1,62
 1108 1297 1108 1297 1202.5 1202.5 c 128,-1,63
 1297 1108 1297 1108 1352.5 977.5 c 128,-1,64
 1408 847 1408 847 1408 704 c 0,65,66
 1408 484 1408 484 1284 305 c 1,67,-1
 1627 -38 l 2,68,44
 1664 -75 1664 -75 1664 -128 c 128,-1,45
EndSplineSet
EndChar

StartChar: zoom_out
Encoding: 61456 61456 42
Width: 1664
GlyphClass: 2
Flags: W
LayerCount: 2
Fore
SplineSet
1024 736 m 2,0,-1
 1024 672 l 2,1,2
 1024 659 1024 659 1014.5 649.5 c 128,-1,3
 1005 640 1005 640 992 640 c 2,4,-1
 416 640 l 2,5,6
 403 640 403 640 393.5 649.5 c 128,-1,7
 384 659 384 659 384 672 c 2,8,-1
 384 736 l 2,9,10
 384 749 384 749 393.5 758.5 c 128,-1,11
 403 768 403 768 416 768 c 2,12,-1
 992 768 l 2,13,14
 1005 768 1005 768 1014.5 758.5 c 128,-1,15
 1024 749 1024 749 1024 736 c 2,0,-1
1152 704 m 128,-1,17
 1152 889 1152 889 1020.5 1020.5 c 128,-1,18
 889 1152 889 1152 704 1152 c 128,-1,19
 519 1152 519 1152 387.5 1020.5 c 128,-1,20
 256 889 256 889 256 704 c 128,-1,21
 256 519 256 519 387.5 387.5 c 128,-1,22
 519 256 519 256 704 256 c 128,-1,23
 889 256 889 256 1020.5 387.5 c 128,-1,16
 1152 519 1152 519 1152 704 c 128,-1,17
1664 -128 m 128,-1,25
 1664 -181 1664 -181 1626.5 -218.5 c 128,-1,26
 1589 -256 1589 -256 1536 -256 c 0,27,28
 1482 -256 1482 -256 1446 -218 c 1,29,-1
 1103 124 l 1,30,31
 924 0 924 0 704 0 c 0,32,33
 561 0 561 0 430.5 55.5 c 128,-1,34
 300 111 300 111 205.5 205.5 c 128,-1,35
 111 300 111 300 55.5 430.5 c 128,-1,36
 0 561 0 561 0 704 c 128,-1,37
 0 847 0 847 55.5 977.5 c 128,-1,38
 111 1108 111 1108 205.5 1202.5 c 128,-1,39
 300 1297 300 1297 430.5 1352.5 c 128,-1,40
 561 1408 561 1408 704 1408 c 128,-1,41
 847 1408 847 1408 977.5 1352.5 c 128,-1,42
 1108 1297 1108 1297 1202.5 1202.5 c 128,-1,43
 1297 1108 1297 1108 1352.5 977.5 c 128,-1,44
 1408 847 1408 847 1408 704 c 0,45,46
 1408 484 1408 484 1284 305 c 1,47,-1
 1627 -38 l 2,48,24
 1664 -75 1664 -75 1664 -128 c 128,-1,25
EndSplineSet
EndChar

StartChar: off
Encoding: 61457 61457 43
Width: 1536
GlyphClass: 2
Flags: W
LayerCount: 2
Fore
SplineSet
1536 640 m 0,0,1
 1536 484 1536 484 1475 342 c 128,-1,2
 1414 200 1414 200 1311 97 c 128,-1,3
 1208 -6 1208 -6 1066 -67 c 128,-1,4
 924 -128 924 -128 768 -128 c 128,-1,5
 612 -128 612 -128 470 -67 c 128,-1,6
 328 -6 328 -6 225 97 c 128,-1,7
 122 200 122 200 61 342 c 128,-1,8
 0 484 0 484 0 640 c 0,9,10
 0 822 0 822 80.5 983 c 128,-1,11
 161 1144 161 1144 307 1253 c 0,12,13
 350 1285 350 1285 402.5 1278 c 128,-1,14
 455 1271 455 1271 486 1228 c 1,15,16
 518 1186 518 1186 510.5 1133.5 c 128,-1,17
 503 1081 503 1081 461 1049 c 0,18,19
 363 975 363 975 309.5 868 c 128,-1,20
 256 761 256 761 256 640 c 0,21,22
 256 536 256 536 296.5 441.5 c 128,-1,23
 337 347 337 347 406 278 c 128,-1,24
 475 209 475 209 569.5 168.5 c 128,-1,25
 664 128 664 128 768 128 c 128,-1,26
 872 128 872 128 966.5 168.5 c 128,-1,27
 1061 209 1061 209 1130 278 c 128,-1,28
 1199 347 1199 347 1239.5 441.5 c 128,-1,29
 1280 536 1280 536 1280 640 c 0,30,31
 1280 761 1280 761 1226.5 868 c 128,-1,32
 1173 975 1173 975 1075 1049 c 0,33,34
 1033 1081 1033 1081 1025.5 1133.5 c 128,-1,35
 1018 1186 1018 1186 1050 1228 c 1,36,37
 1081 1271 1081 1271 1134 1278 c 128,-1,38
 1187 1285 1187 1285 1229 1253 c 0,39,40
 1375 1144 1375 1144 1455.5 983 c 128,-1,41
 1536 822 1536 822 1536 640 c 0,0,1
896 1408 m 2,42,-1
 896 768 l 2,43,44
 896 716 896 716 858 678 c 128,-1,45
 820 640 820 640 768 640 c 128,-1,46
 716 640 716 640 678 678 c 128,-1,47
 640 716 640 716 640 768 c 2,48,-1
 640 1408 l 2,49,50
 640 1460 640 1460 678 1498 c 128,-1,51
 716 1536 716 1536 768 1536 c 128,-1,52
 820 1536 820 1536 858 1498 c 128,-1,53
 896 1460 896 1460 896 1408 c 2,42,-1
EndSplineSet
EndChar

StartChar: signal
Encoding: 61458 61458 44
Width: 1792
GlyphClass: 2
Flags: W
LayerCount: 2
Fore
SplineSet
256 96 m 2,0,-1
 256 -96 l 2,1,2
 256 -110 256 -110 247 -119 c 128,-1,3
 238 -128 238 -128 224 -128 c 2,4,-1
 32 -128 l 2,5,6
 18 -128 18 -128 9 -119 c 128,-1,7
 0 -110 0 -110 0 -96 c 2,8,-1
 0 96 l 2,9,10
 0 110 0 110 9 119 c 128,-1,11
 18 128 18 128 32 128 c 2,12,-1
 224 128 l 2,13,14
 238 128 238 128 247 119 c 128,-1,15
 256 110 256 110 256 96 c 2,0,-1
640 224 m 2,16,-1
 640 -96 l 2,17,18
 640 -110 640 -110 631 -119 c 128,-1,19
 622 -128 622 -128 608 -128 c 2,20,-1
 416 -128 l 2,21,22
 402 -128 402 -128 393 -119 c 128,-1,23
 384 -110 384 -110 384 -96 c 2,24,-1
 384 224 l 2,25,26
 384 238 384 238 393 247 c 128,-1,27
 402 256 402 256 416 256 c 2,28,-1
 608 256 l 2,29,30
 622 256 622 256 631 247 c 128,-1,31
 640 238 640 238 640 224 c 2,16,-1
1024 480 m 2,32,-1
 1024 -96 l 2,33,34
 1024 -110 1024 -110 1015 -119 c 128,-1,35
 1006 -128 1006 -128 992 -128 c 2,36,-1
 800 -128 l 2,37,38
 786 -128 786 -128 777 -119 c 128,-1,39
 768 -110 768 -110 768 -96 c 2,40,-1
 768 480 l 2,41,42
 768 494 768 494 777 503 c 128,-1,43
 786 512 786 512 800 512 c 2,44,-1
 992 512 l 2,45,46
 1006 512 1006 512 1015 503 c 128,-1,47
 1024 494 1024 494 1024 480 c 2,32,-1
1408 864 m 2,48,-1
 1408 -96 l 2,49,50
 1408 -110 1408 -110 1399 -119 c 128,-1,51
 1390 -128 1390 -128 1376 -128 c 2,52,-1
 1184 -128 l 2,53,54
 1170 -128 1170 -128 1161 -119 c 128,-1,55
 1152 -110 1152 -110 1152 -96 c 2,56,-1
 1152 864 l 2,57,58
 1152 878 1152 878 1161 887 c 128,-1,59
 1170 896 1170 896 1184 896 c 2,60,-1
 1376 896 l 2,61,62
 1390 896 1390 896 1399 887 c 128,-1,63
 1408 878 1408 878 1408 864 c 2,48,-1
1792 1376 m 2,64,-1
 1792 -96 l 2,65,66
 1792 -110 1792 -110 1783 -119 c 128,-1,67
 1774 -128 1774 -128 1760 -128 c 2,68,-1
 1568 -128 l 2,69,70
 1554 -128 1554 -128 1545 -119 c 128,-1,71
 1536 -110 1536 -110 1536 -96 c 2,72,-1
 1536 1376 l 2,73,74
 1536 1390 1536 1390 1545 1399 c 128,-1,75
 1554 1408 1554 1408 1568 1408 c 2,76,-1
 1760 1408 l 2,77,78
 1774 1408 1774 1408 1783 1399 c 128,-1,79
 1792 1390 1792 1390 1792 1376 c 2,64,-1
EndSplineSet
EndChar

StartChar: cog
Encoding: 61459 61459 45
Width: 1536
GlyphClass: 2
Flags: W
LayerCount: 2
Fore
SplineSet
1024 640 m 128,-1,1
 1024 746 1024 746 949 821 c 128,-1,2
 874 896 874 896 768 896 c 128,-1,3
 662 896 662 896 587 821 c 128,-1,4
 512 746 512 746 512 640 c 128,-1,5
 512 534 512 534 587 459 c 128,-1,6
 662 384 662 384 768 384 c 128,-1,7
 874 384 874 384 949 459 c 128,-1,0
 1024 534 1024 534 1024 640 c 128,-1,1
1536 749 m 2,8,-1
 1536 527 l 2,9,10
 1536 515 1536 515 1528 504 c 128,-1,11
 1520 493 1520 493 1508 491 c 2,12,-1
 1323 463 l 1,13,14
 1304 409 1304 409 1284 372 c 1,15,16
 1319 322 1319 322 1391 234 c 0,17,18
 1401 222 1401 222 1401 209 c 128,-1,19
 1401 196 1401 196 1392 186 c 1,20,21
 1365 149 1365 149 1293 78 c 128,-1,22
 1221 7 1221 7 1199 7 c 0,23,24
 1187 7 1187 7 1173 16 c 1,25,-1
 1035 124 l 1,26,27
 991 101 991 101 944 86 c 1,28,29
 928 -50 928 -50 915 -100 c 0,30,31
 908 -128 908 -128 879 -128 c 2,32,-1
 657 -128 l 2,33,34
 643 -128 643 -128 632.5 -119.5 c 128,-1,35
 622 -111 622 -111 621 -98 c 2,36,-1
 593 86 l 1,37,38
 544 102 544 102 503 123 c 1,39,-1
 362 16 l 1,40,41
 352 7 352 7 337 7 c 0,42,43
 323 7 323 7 312 18 c 0,44,45
 186 132 186 132 147 186 c 0,46,47
 140 196 140 196 140 209 c 0,48,49
 140 221 140 221 148 232 c 0,50,51
 163 253 163 253 199 298.5 c 128,-1,52
 235 344 235 344 253 369 c 1,53,54
 226 419 226 419 212 468 c 1,55,-1
 29 495 l 2,56,57
 16 497 16 497 8 507.5 c 128,-1,58
 0 518 0 518 0 531 c 2,59,-1
 0 753 l 2,60,61
 0 765 0 765 8 776 c 128,-1,62
 16 787 16 787 27 789 c 2,63,-1
 213 817 l 1,64,65
 227 863 227 863 252 909 c 1,66,67
 212 966 212 966 145 1047 c 0,68,69
 135 1059 135 1059 135 1071 c 0,70,71
 135 1081 135 1081 144 1094 c 0,72,73
 170 1130 170 1130 242.5 1201.5 c 128,-1,74
 315 1273 315 1273 337 1273 c 0,75,76
 350 1273 350 1273 363 1263 c 2,77,-1
 501 1156 l 1,78,79
 545 1179 545 1179 592 1194 c 1,80,81
 608 1330 608 1330 621 1380 c 0,82,83
 628 1408 628 1408 657 1408 c 2,84,-1
 879 1408 l 2,85,86
 893 1408 893 1408 903.5 1399.5 c 128,-1,87
 914 1391 914 1391 915 1378 c 2,88,-1
 943 1194 l 1,89,90
 992 1178 992 1178 1033 1157 c 1,91,-1
 1175 1264 l 1,92,93
 1184 1273 1184 1273 1199 1273 c 0,94,95
 1212 1273 1212 1273 1224 1263 c 0,96,97
 1353 1144 1353 1144 1389 1093 c 1,98,99
 1396 1085 1396 1085 1396 1071 c 0,100,101
 1396 1059 1396 1059 1388 1048 c 0,102,103
 1373 1027 1373 1027 1337 981.5 c 128,-1,104
 1301 936 1301 936 1283 911 c 1,105,106
 1309 861 1309 861 1324 813 c 1,107,-1
 1507 785 l 2,108,109
 1520 783 1520 783 1528 772.5 c 128,-1,110
 1536 762 1536 762 1536 749 c 2,8,-1
EndSplineSet
EndChar

StartChar: trash
Encoding: 61460 61460 46
Width: 1408
GlyphClass: 2
Flags: W
LayerCount: 2
Fore
SplineSet
512 800 m 2,0,-1
 512 224 l 2,1,2
 512 210 512 210 503 201 c 128,-1,3
 494 192 494 192 480 192 c 2,4,-1
 416 192 l 2,5,6
 402 192 402 192 393 201 c 128,-1,7
 384 210 384 210 384 224 c 2,8,-1
 384 800 l 2,9,10
 384 814 384 814 393 823 c 128,-1,11
 402 832 402 832 416 832 c 2,12,-1
 480 832 l 2,13,14
 494 832 494 832 503 823 c 128,-1,15
 512 814 512 814 512 800 c 2,0,-1
768 800 m 2,16,-1
 768 224 l 2,17,18
 768 210 768 210 759 201 c 128,-1,19
 750 192 750 192 736 192 c 2,20,-1
 672 192 l 2,21,22
 658 192 658 192 649 201 c 128,-1,23
 640 210 640 210 640 224 c 2,24,-1
 640 800 l 2,25,26
 640 814 640 814 649 823 c 128,-1,27
 658 832 658 832 672 832 c 2,28,-1
 736 832 l 2,29,30
 750 832 750 832 759 823 c 128,-1,31
 768 814 768 814 768 800 c 2,16,-1
1024 800 m 2,32,-1
 1024 224 l 2,33,34
 1024 210 1024 210 1015 201 c 128,-1,35
 1006 192 1006 192 992 192 c 2,36,-1
 928 192 l 2,37,38
 914 192 914 192 905 201 c 128,-1,39
 896 210 896 210 896 224 c 2,40,-1
 896 800 l 2,41,42
 896 814 896 814 905 823 c 128,-1,43
 914 832 914 832 928 832 c 2,44,-1
 992 832 l 2,45,46
 1006 832 1006 832 1015 823 c 128,-1,47
 1024 814 1024 814 1024 800 c 2,32,-1
1152 76 m 2,48,-1
 1152 1024 l 1,49,-1
 256 1024 l 1,50,-1
 256 76 l 2,51,52
 256 54 256 54 263 35.5 c 128,-1,53
 270 17 270 17 277.5 8.5 c 128,-1,54
 285 0 285 0 288 0 c 2,55,-1
 1120 0 l 2,56,57
 1123 0 1123 0 1130.5 8.5 c 128,-1,58
 1138 17 1138 17 1145 35.5 c 128,-1,59
 1152 54 1152 54 1152 76 c 2,48,-1
480 1152 m 1,60,-1
 928 1152 l 1,61,-1
 880 1269 l 1,62,63
 873 1278 873 1278 863 1280 c 1,64,-1
 546 1280 l 1,65,66
 536 1278 536 1278 529 1269 c 1,67,-1
 480 1152 l 1,60,-1
1408 1120 m 2,68,-1
 1408 1056 l 2,69,70
 1408 1042 1408 1042 1399 1033 c 128,-1,71
 1390 1024 1390 1024 1376 1024 c 2,72,-1
 1280 1024 l 1,73,-1
 1280 76 l 2,74,75
 1280 -7 1280 -7 1233 -67.5 c 128,-1,76
 1186 -128 1186 -128 1120 -128 c 2,77,-1
 288 -128 l 2,78,79
 222 -128 222 -128 175 -69.5 c 128,-1,80
 128 -11 128 -11 128 72 c 2,81,-1
 128 1024 l 1,82,-1
 32 1024 l 2,83,84
 18 1024 18 1024 9 1033 c 128,-1,85
 0 1042 0 1042 0 1056 c 2,86,-1
 0 1120 l 2,87,88
 0 1134 0 1134 9 1143 c 128,-1,89
 18 1152 18 1152 32 1152 c 2,90,-1
 341 1152 l 1,91,-1
 411 1319 l 2,92,93
 426 1356 426 1356 465 1382 c 128,-1,94
 504 1408 504 1408 544 1408 c 2,95,-1
 864 1408 l 2,96,97
 904 1408 904 1408 943 1382 c 128,-1,98
 982 1356 982 1356 997 1319 c 2,99,-1
 1067 1152 l 1,100,-1
 1376 1152 l 2,101,102
 1390 1152 1390 1152 1399 1143 c 128,-1,103
 1408 1134 1408 1134 1408 1120 c 2,68,-1
EndSplineSet
EndChar

StartChar: home
Encoding: 61461 61461 47
Width: 1664
GlyphClass: 2
Flags: W
LayerCount: 2
Fore
SplineSet
1408 544 m 2,0,-1
 1408 64 l 2,1,2
 1408 38 1408 38 1389 19 c 128,-1,3
 1370 0 1370 0 1344 0 c 2,4,-1
 960 0 l 1,5,-1
 960 384 l 1,6,-1
 704 384 l 1,7,-1
 704 0 l 1,8,-1
 320 0 l 2,9,10
 294 0 294 0 275 19 c 128,-1,11
 256 38 256 38 256 64 c 2,12,-1
 256 544 l 2,13,14
 256 545 256 545 256.5 547 c 128,-1,15
 257 549 257 549 257 550 c 2,16,-1
 832 1024 l 1,17,-1
 1407 550 l 2,18,19
 1408 548 1408 548 1408 544 c 2,0,-1
1631 613 m 2,20,-1
 1569 539 l 2,21,22
 1561 530 1561 530 1548 528 c 1,23,-1
 1545 528 l 2,24,25
 1532 528 1532 528 1524 535 c 2,26,-1
 832 1112 l 1,27,-1
 140 535 l 1,28,29
 128 527 128 527 116 528 c 0,30,31
 103 530 103 530 95 539 c 2,32,-1
 33 613 l 2,33,34
 25 623 25 623 26 636.5 c 128,-1,35
 27 650 27 650 37 658 c 2,36,-1
 756 1257 l 2,37,38
 788 1283 788 1283 832 1283 c 128,-1,39
 876 1283 876 1283 908 1257 c 2,40,-1
 1152 1053 l 1,41,-1
 1152 1248 l 2,42,43
 1152 1262 1152 1262 1161 1271 c 128,-1,44
 1170 1280 1170 1280 1184 1280 c 2,45,-1
 1376 1280 l 2,46,47
 1390 1280 1390 1280 1399 1271 c 128,-1,48
 1408 1262 1408 1262 1408 1248 c 2,49,-1
 1408 840 l 1,50,-1
 1627 658 l 2,51,52
 1637 650 1637 650 1638 636.5 c 128,-1,53
 1639 623 1639 623 1631 613 c 2,20,-1
EndSplineSet
EndChar

StartChar: file_alt
Encoding: 61462 61462 48
Width: 1280
GlyphClass: 2
Flags: W
LayerCount: 2
Fore
SplineSet
128 0 m 1,0,-1
 1152 0 l 1,1,-1
 1152 768 l 1,2,-1
 736 768 l 2,3,4
 696 768 696 768 668 796 c 128,-1,5
 640 824 640 824 640 864 c 2,6,-1
 640 1280 l 1,7,-1
 128 1280 l 1,8,-1
 128 0 l 1,0,-1
768 896 m 1,9,-1
 1144 896 l 1,10,11
 1134 925 1134 925 1122 937 c 2,12,-1
 809 1250 l 2,13,14
 797 1262 797 1262 768 1272 c 1,15,-1
 768 896 l 1,9,-1
1280 864 m 2,16,-1
 1280 -32 l 2,17,18
 1280 -72 1280 -72 1252 -100 c 128,-1,19
 1224 -128 1224 -128 1184 -128 c 2,20,-1
 96 -128 l 2,21,22
 56 -128 56 -128 28 -100 c 128,-1,23
 0 -72 0 -72 0 -32 c 2,24,-1
 0 1312 l 2,25,26
 0 1352 0 1352 28 1380 c 128,-1,27
 56 1408 56 1408 96 1408 c 2,28,-1
 736 1408 l 2,29,30
 776 1408 776 1408 824 1388 c 128,-1,31
 872 1368 872 1368 900 1340 c 2,32,-1
 1212 1028 l 2,33,34
 1240 1000 1240 1000 1260 952 c 128,-1,35
 1280 904 1280 904 1280 864 c 2,16,-1
EndSplineSet
EndChar

StartChar: time
Encoding: 61463 61463 49
Width: 1536
GlyphClass: 2
Flags: W
LayerCount: 2
Fore
SplineSet
896 992 m 2,0,-1
 896 544 l 2,1,2
 896 530 896 530 887 521 c 128,-1,3
 878 512 878 512 864 512 c 2,4,-1
 544 512 l 2,5,6
 530 512 530 512 521 521 c 128,-1,7
 512 530 512 530 512 544 c 2,8,-1
 512 608 l 2,9,10
 512 622 512 622 521 631 c 128,-1,11
 530 640 530 640 544 640 c 2,12,-1
 768 640 l 1,13,-1
 768 992 l 2,14,15
 768 1006 768 1006 777 1015 c 128,-1,16
 786 1024 786 1024 800 1024 c 2,17,-1
 864 1024 l 2,18,19
 878 1024 878 1024 887 1015 c 128,-1,20
 896 1006 896 1006 896 992 c 2,0,-1
1312 640 m 128,-1,22
 1312 788 1312 788 1239 913 c 128,-1,23
 1166 1038 1166 1038 1041 1111 c 128,-1,24
 916 1184 916 1184 768 1184 c 128,-1,25
 620 1184 620 1184 495 1111 c 128,-1,26
 370 1038 370 1038 297 913 c 128,-1,27
 224 788 224 788 224 640 c 128,-1,28
 224 492 224 492 297 367 c 128,-1,29
 370 242 370 242 495 169 c 128,-1,30
 620 96 620 96 768 96 c 128,-1,31
 916 96 916 96 1041 169 c 128,-1,32
 1166 242 1166 242 1239 367 c 128,-1,21
 1312 492 1312 492 1312 640 c 128,-1,22
1536 640 m 128,-1,34
 1536 431 1536 431 1433 254.5 c 128,-1,35
 1330 78 1330 78 1153.5 -25 c 128,-1,36
 977 -128 977 -128 768 -128 c 128,-1,37
 559 -128 559 -128 382.5 -25 c 128,-1,38
 206 78 206 78 103 254.5 c 128,-1,39
 0 431 0 431 0 640 c 128,-1,40
 0 849 0 849 103 1025.5 c 128,-1,41
 206 1202 206 1202 382.5 1305 c 128,-1,42
 559 1408 559 1408 768 1408 c 128,-1,43
 977 1408 977 1408 1153.5 1305 c 128,-1,44
 1330 1202 1330 1202 1433 1025.5 c 128,-1,33
 1536 849 1536 849 1536 640 c 128,-1,34
EndSplineSet
EndChar

StartChar: road
Encoding: 61464 61464 50
Width: 1920
GlyphClass: 2
Flags: W
LayerCount: 2
Fore
SplineSet
1111 540 m 1,0,-1
 1111 544 l 1,1,-1
 1087 864 l 2,2,3
 1086 877 1086 877 1076 886.5 c 128,-1,4
 1066 896 1066 896 1053 896 c 2,5,-1
 867 896 l 2,6,7
 854 896 854 896 844 886.5 c 128,-1,8
 834 877 834 877 833 864 c 2,9,-1
 809 544 l 1,10,-1
 809 540 l 1,11,12
 808 528 808 528 817 520 c 128,-1,13
 826 512 826 512 838 512 c 2,14,-1
 1082 512 l 2,15,16
 1094 512 1094 512 1103 520 c 128,-1,17
 1112 528 1112 528 1111 540 c 1,0,-1
1870 73 m 0,18,19
 1870 0 1870 0 1824 0 c 2,20,-1
 1120 0 l 2,21,22
 1133 0 1133 0 1142 9.5 c 128,-1,23
 1151 19 1151 19 1150 32 c 2,24,-1
 1130 288 l 2,25,26
 1129 301 1129 301 1119 310.5 c 128,-1,27
 1109 320 1109 320 1096 320 c 2,28,-1
 824 320 l 2,29,30
 811 320 811 320 801 310.5 c 128,-1,31
 791 301 791 301 790 288 c 2,32,-1
 770 32 l 2,33,34
 769 19 769 19 778 9.5 c 128,-1,35
 787 0 787 0 800 0 c 2,36,-1
 96 0 l 2,37,38
 50 0 50 0 50 73 c 0,39,40
 50 127 50 127 76 189 c 1,41,-1
 493 1233 l 2,42,43
 501 1252 501 1252 519 1266 c 128,-1,44
 537 1280 537 1280 557 1280 c 2,45,-1
 896 1280 l 2,46,47
 883 1280 883 1280 873 1270.5 c 128,-1,48
 863 1261 863 1261 862 1248 c 2,49,-1
 847 1056 l 2,50,51
 846 1042 846 1042 855 1033 c 128,-1,52
 864 1024 864 1024 877 1024 c 2,53,-1
 1043 1024 l 2,54,55
 1056 1024 1056 1024 1065 1033 c 128,-1,56
 1074 1042 1074 1042 1073 1056 c 2,57,-1
 1058 1248 l 2,58,59
 1057 1261 1057 1261 1047 1270.5 c 128,-1,60
 1037 1280 1037 1280 1024 1280 c 2,61,-1
 1363 1280 l 2,62,63
 1383 1280 1383 1280 1401 1266 c 128,-1,64
 1419 1252 1419 1252 1427 1233 c 2,65,-1
 1844 189 l 1,66,67
 1870 127 1870 127 1870 73 c 0,18,19
EndSplineSet
EndChar

StartChar: download_alt
Encoding: 61465 61465 51
Width: 1664
GlyphClass: 2
Flags: W
LayerCount: 2
Fore
SplineSet
1280 192 m 128,-1,1
 1280 218 1280 218 1261 237 c 128,-1,2
 1242 256 1242 256 1216 256 c 128,-1,3
 1190 256 1190 256 1171 237 c 128,-1,4
 1152 218 1152 218 1152 192 c 128,-1,5
 1152 166 1152 166 1171 147 c 128,-1,6
 1190 128 1190 128 1216 128 c 128,-1,7
 1242 128 1242 128 1261 147 c 128,-1,0
 1280 166 1280 166 1280 192 c 128,-1,1
1536 192 m 128,-1,9
 1536 218 1536 218 1517 237 c 128,-1,10
 1498 256 1498 256 1472 256 c 128,-1,11
 1446 256 1446 256 1427 237 c 128,-1,12
 1408 218 1408 218 1408 192 c 128,-1,13
 1408 166 1408 166 1427 147 c 128,-1,14
 1446 128 1446 128 1472 128 c 128,-1,15
 1498 128 1498 128 1517 147 c 128,-1,8
 1536 166 1536 166 1536 192 c 128,-1,9
1664 416 m 2,16,-1
 1664 96 l 2,17,18
 1664 56 1664 56 1636 28 c 128,-1,19
 1608 0 1608 0 1568 0 c 2,20,-1
 96 0 l 2,21,22
 56 0 56 0 28 28 c 128,-1,23
 0 56 0 56 0 96 c 2,24,-1
 0 416 l 2,25,26
 0 456 0 456 28 484 c 128,-1,27
 56 512 56 512 96 512 c 2,28,-1
 561 512 l 1,29,-1
 696 376 l 1,30,31
 754 320 754 320 832 320 c 128,-1,32
 910 320 910 320 968 376 c 1,33,-1
 1104 512 l 1,34,-1
 1568 512 l 2,35,36
 1608 512 1608 512 1636 484 c 128,-1,37
 1664 456 1664 456 1664 416 c 2,16,-1
1339 985 m 0,38,39
 1356 944 1356 944 1325 915 c 1,40,-1
 877 467 l 2,41,42
 859 448 859 448 832 448 c 128,-1,43
 805 448 805 448 787 467 c 2,44,-1
 339 915 l 1,45,46
 308 944 308 944 325 985 c 0,47,48
 342 1024 342 1024 384 1024 c 2,49,-1
 640 1024 l 1,50,-1
 640 1472 l 2,51,52
 640 1498 640 1498 659 1517 c 128,-1,53
 678 1536 678 1536 704 1536 c 2,54,-1
 960 1536 l 2,55,56
 986 1536 986 1536 1005 1517 c 128,-1,57
 1024 1498 1024 1498 1024 1472 c 2,58,-1
 1024 1024 l 1,59,-1
 1280 1024 l 2,60,61
 1322 1024 1322 1024 1339 985 c 0,38,39
EndSplineSet
EndChar

StartChar: download
Encoding: 61466 61466 52
Width: 1536
GlyphClass: 2
Flags: W
LayerCount: 2
Fore
SplineSet
1120 608 m 0,0,1
 1120 596 1120 596 1110 584 c 1,2,-1
 791 265 l 1,3,4
 780 256 780 256 768 256 c 128,-1,5
 756 256 756 256 745 265 c 1,6,-1
 425 585 l 2,7,8
 410 601 410 601 418 620 c 0,9,10
 426 640 426 640 448 640 c 2,11,-1
 640 640 l 1,12,-1
 640 992 l 2,13,14
 640 1006 640 1006 649 1015 c 128,-1,15
 658 1024 658 1024 672 1024 c 2,16,-1
 864 1024 l 2,17,18
 878 1024 878 1024 887 1015 c 128,-1,19
 896 1006 896 1006 896 992 c 2,20,-1
 896 640 l 1,21,-1
 1088 640 l 2,22,23
 1102 640 1102 640 1111 631 c 128,-1,24
 1120 622 1120 622 1120 608 c 0,0,1
768 1184 m 128,-1,26
 620 1184 620 1184 495 1111 c 128,-1,27
 370 1038 370 1038 297 913 c 128,-1,28
 224 788 224 788 224 640 c 128,-1,29
 224 492 224 492 297 367 c 128,-1,30
 370 242 370 242 495 169 c 128,-1,31
 620 96 620 96 768 96 c 128,-1,32
 916 96 916 96 1041 169 c 128,-1,33
 1166 242 1166 242 1239 367 c 128,-1,34
 1312 492 1312 492 1312 640 c 128,-1,35
 1312 788 1312 788 1239 913 c 128,-1,36
 1166 1038 1166 1038 1041 1111 c 128,-1,25
 916 1184 916 1184 768 1184 c 128,-1,26
1536 640 m 128,-1,38
 1536 431 1536 431 1433 254.5 c 128,-1,39
 1330 78 1330 78 1153.5 -25 c 128,-1,40
 977 -128 977 -128 768 -128 c 128,-1,41
 559 -128 559 -128 382.5 -25 c 128,-1,42
 206 78 206 78 103 254.5 c 128,-1,43
 0 431 0 431 0 640 c 128,-1,44
 0 849 0 849 103 1025.5 c 128,-1,45
 206 1202 206 1202 382.5 1305 c 128,-1,46
 559 1408 559 1408 768 1408 c 128,-1,47
 977 1408 977 1408 1153.5 1305 c 128,-1,48
 1330 1202 1330 1202 1433 1025.5 c 128,-1,37
 1536 849 1536 849 1536 640 c 128,-1,38
EndSplineSet
EndChar

StartChar: upload
Encoding: 61467 61467 53
Width: 1536
GlyphClass: 2
Flags: W
LayerCount: 2
Fore
SplineSet
1118 660 m 0,0,1
 1110 640 1110 640 1088 640 c 2,2,-1
 896 640 l 1,3,-1
 896 288 l 2,4,5
 896 274 896 274 887 265 c 128,-1,6
 878 256 878 256 864 256 c 2,7,-1
 672 256 l 2,8,9
 658 256 658 256 649 265 c 128,-1,10
 640 274 640 274 640 288 c 2,11,-1
 640 640 l 1,12,-1
 448 640 l 2,13,14
 434 640 434 640 425 649 c 128,-1,15
 416 658 416 658 416 672 c 0,16,17
 416 684 416 684 426 696 c 1,18,-1
 745 1015 l 1,19,20
 756 1024 756 1024 768 1024 c 128,-1,21
 780 1024 780 1024 791 1015 c 1,22,-1
 1111 695 l 2,23,24
 1126 679 1126 679 1118 660 c 0,0,1
768 1184 m 128,-1,26
 620 1184 620 1184 495 1111 c 128,-1,27
 370 1038 370 1038 297 913 c 128,-1,28
 224 788 224 788 224 640 c 128,-1,29
 224 492 224 492 297 367 c 128,-1,30
 370 242 370 242 495 169 c 128,-1,31
 620 96 620 96 768 96 c 128,-1,32
 916 96 916 96 1041 169 c 128,-1,33
 1166 242 1166 242 1239 367 c 128,-1,34
 1312 492 1312 492 1312 640 c 128,-1,35
 1312 788 1312 788 1239 913 c 128,-1,36
 1166 1038 1166 1038 1041 1111 c 128,-1,25
 916 1184 916 1184 768 1184 c 128,-1,26
1536 640 m 128,-1,38
 1536 431 1536 431 1433 254.5 c 128,-1,39
 1330 78 1330 78 1153.5 -25 c 128,-1,40
 977 -128 977 -128 768 -128 c 128,-1,41
 559 -128 559 -128 382.5 -25 c 128,-1,42
 206 78 206 78 103 254.5 c 128,-1,43
 0 431 0 431 0 640 c 128,-1,44
 0 849 0 849 103 1025.5 c 128,-1,45
 206 1202 206 1202 382.5 1305 c 128,-1,46
 559 1408 559 1408 768 1408 c 128,-1,47
 977 1408 977 1408 1153.5 1305 c 128,-1,48
 1330 1202 1330 1202 1433 1025.5 c 128,-1,37
 1536 849 1536 849 1536 640 c 128,-1,38
EndSplineSet
EndChar

StartChar: inbox
Encoding: 61468 61468 54
Width: 1536
GlyphClass: 2
Flags: W
LayerCount: 2
Fore
SplineSet
1023 576 m 1,0,-1
 1339 576 l 1,1,2
 1338 579 1338 579 1336.5 584 c 128,-1,3
 1335 589 1335 589 1334 592 c 2,4,-1
 1122 1088 l 1,5,-1
 414 1088 l 1,6,-1
 202 592 l 2,7,8
 201 590 201 590 199.5 584 c 128,-1,9
 198 578 198 578 197 576 c 1,10,-1
 513 576 l 1,11,-1
 608 384 l 1,12,-1
 928 384 l 1,13,-1
 1023 576 l 1,0,-1
1536 546 m 2,14,-1
 1536 64 l 2,15,16
 1536 38 1536 38 1517 19 c 128,-1,17
 1498 0 1498 0 1472 0 c 2,18,-1
 64 0 l 2,19,20
 38 0 38 0 19 19 c 128,-1,21
 0 38 0 38 0 64 c 2,22,-1
 0 546 l 2,23,24
 0 608 0 608 25 669 c 1,25,-1
 263 1221 l 2,26,27
 273 1246 273 1246 299.5 1263 c 128,-1,28
 326 1280 326 1280 352 1280 c 2,29,-1
 1184 1280 l 2,30,31
 1210 1280 1210 1280 1236.5 1263 c 128,-1,32
 1263 1246 1263 1246 1273 1221 c 2,33,-1
 1511 669 l 1,34,35
 1536 608 1536 608 1536 546 c 2,14,-1
EndSplineSet
EndChar

StartChar: play_circle
Encoding: 61469 61469 55
Width: 1536
GlyphClass: 2
Flags: W
LayerCount: 2
Fore
SplineSet
1184 640 m 128,-1,1
 1184 603 1184 603 1152 585 c 2,2,-1
 608 265 l 2,3,4
 593 256 593 256 576 256 c 0,5,6
 560 256 560 256 544 264 c 1,7,8
 512 283 512 283 512 320 c 2,9,-1
 512 960 l 2,10,11
 512 997 512 997 544 1016 c 1,12,13
 577 1034 577 1034 608 1015 c 2,14,-1
 1152 695 l 2,15,0
 1184 677 1184 677 1184 640 c 128,-1,1
1312 640 m 128,-1,17
 1312 788 1312 788 1239 913 c 128,-1,18
 1166 1038 1166 1038 1041 1111 c 128,-1,19
 916 1184 916 1184 768 1184 c 128,-1,20
 620 1184 620 1184 495 1111 c 128,-1,21
 370 1038 370 1038 297 913 c 128,-1,22
 224 788 224 788 224 640 c 128,-1,23
 224 492 224 492 297 367 c 128,-1,24
 370 242 370 242 495 169 c 128,-1,25
 620 96 620 96 768 96 c 128,-1,26
 916 96 916 96 1041 169 c 128,-1,27
 1166 242 1166 242 1239 367 c 128,-1,16
 1312 492 1312 492 1312 640 c 128,-1,17
1536 640 m 128,-1,29
 1536 431 1536 431 1433 254.5 c 128,-1,30
 1330 78 1330 78 1153.5 -25 c 128,-1,31
 977 -128 977 -128 768 -128 c 128,-1,32
 559 -128 559 -128 382.5 -25 c 128,-1,33
 206 78 206 78 103 254.5 c 128,-1,34
 0 431 0 431 0 640 c 128,-1,35
 0 849 0 849 103 1025.5 c 128,-1,36
 206 1202 206 1202 382.5 1305 c 128,-1,37
 559 1408 559 1408 768 1408 c 128,-1,38
 977 1408 977 1408 1153.5 1305 c 128,-1,39
 1330 1202 1330 1202 1433 1025.5 c 128,-1,28
 1536 849 1536 849 1536 640 c 128,-1,29
EndSplineSet
EndChar

StartChar: repeat
Encoding: 61470 61470 56
Width: 1536
GlyphClass: 2
Flags: W
LayerCount: 2
Fore
SplineSet
1536 1280 m 2,0,-1
 1536 832 l 2,1,2
 1536 806 1536 806 1517 787 c 128,-1,3
 1498 768 1498 768 1472 768 c 2,4,-1
 1024 768 l 2,5,6
 982 768 982 768 965 808 c 0,7,8
 948 847 948 847 979 877 c 2,9,-1
 1117 1015 l 1,10,11
 969 1152 969 1152 768 1152 c 0,12,13
 664 1152 664 1152 569.5 1111.5 c 128,-1,14
 475 1071 475 1071 406 1002 c 128,-1,15
 337 933 337 933 296.5 838.5 c 128,-1,16
 256 744 256 744 256 640 c 128,-1,17
 256 536 256 536 296.5 441.5 c 128,-1,18
 337 347 337 347 406 278 c 128,-1,19
 475 209 475 209 569.5 168.5 c 128,-1,20
 664 128 664 128 768 128 c 0,21,22
 887 128 887 128 993 180 c 128,-1,23
 1099 232 1099 232 1172 327 c 0,24,25
 1179 337 1179 337 1195 339 c 1,26,27
 1209 339 1209 339 1220 330 c 1,28,-1
 1357 192 l 2,29,30
 1366 184 1366 184 1366.5 171.5 c 128,-1,31
 1367 159 1367 159 1359 149 c 0,32,33
 1250 17 1250 17 1095 -55.5 c 128,-1,34
 940 -128 940 -128 768 -128 c 0,35,36
 612 -128 612 -128 470 -67 c 128,-1,37
 328 -6 328 -6 225 97 c 128,-1,38
 122 200 122 200 61 342 c 128,-1,39
 0 484 0 484 0 640 c 128,-1,40
 0 796 0 796 61 938 c 128,-1,41
 122 1080 122 1080 225 1183 c 128,-1,42
 328 1286 328 1286 470 1347 c 128,-1,43
 612 1408 612 1408 768 1408 c 0,44,45
 915 1408 915 1408 1052.5 1352.5 c 128,-1,46
 1190 1297 1190 1297 1297 1196 c 1,47,-1
 1427 1325 l 1,48,49
 1456 1356 1456 1356 1497 1339 c 0,50,51
 1536 1322 1536 1322 1536 1280 c 2,0,-1
EndSplineSet
EndChar

StartChar: refresh
Encoding: 61473 61473 57
Width: 1536
GlyphClass: 2
Flags: W
LayerCount: 2
Fore
SplineSet
1511 480 m 0,0,1
 1511 475 1511 475 1510 473 c 0,2,3
 1446 205 1446 205 1242 38.5 c 128,-1,4
 1038 -128 1038 -128 764 -128 c 0,5,6
 618 -128 618 -128 481.5 -73 c 128,-1,7
 345 -18 345 -18 238 84 c 1,8,-1
 109 -45 l 2,9,10
 90 -64 90 -64 64 -64 c 128,-1,11
 38 -64 38 -64 19 -45 c 128,-1,12
 0 -26 0 -26 0 0 c 2,13,-1
 0 448 l 2,14,15
 0 474 0 474 19 493 c 128,-1,16
 38 512 38 512 64 512 c 2,17,-1
 512 512 l 2,18,19
 538 512 538 512 557 493 c 128,-1,20
 576 474 576 474 576 448 c 128,-1,21
 576 422 576 422 557 403 c 2,22,-1
 420 266 l 1,23,24
 491 200 491 200 581 164 c 128,-1,25
 671 128 671 128 768 128 c 0,26,27
 902 128 902 128 1018 193 c 128,-1,28
 1134 258 1134 258 1204 372 c 0,29,30
 1215 389 1215 389 1257 489 c 1,31,32
 1265 512 1265 512 1287 512 c 2,33,-1
 1479 512 l 2,34,35
 1492 512 1492 512 1501.5 502.5 c 128,-1,36
 1511 493 1511 493 1511 480 c 0,0,1
1536 1280 m 2,37,-1
 1536 832 l 2,38,39
 1536 806 1536 806 1517 787 c 128,-1,40
 1498 768 1498 768 1472 768 c 2,41,-1
 1024 768 l 2,42,43
 998 768 998 768 979 787 c 128,-1,44
 960 806 960 806 960 832 c 128,-1,45
 960 858 960 858 979 877 c 2,46,-1
 1117 1015 l 1,47,48
 969 1152 969 1152 768 1152 c 0,49,50
 634 1152 634 1152 518 1087 c 128,-1,51
 402 1022 402 1022 332 908 c 0,52,53
 321 891 321 891 279 791 c 1,54,55
 271 768 271 768 249 768 c 2,56,-1
 50 768 l 2,57,58
 37 768 37 768 27.5 777.5 c 128,-1,59
 18 787 18 787 18 800 c 2,60,-1
 18 807 l 1,61,62
 83 1075 83 1075 288 1241.5 c 128,-1,63
 493 1408 493 1408 768 1408 c 0,64,65
 914 1408 914 1408 1052 1352.5 c 128,-1,66
 1190 1297 1190 1297 1297 1196 c 1,67,-1
 1427 1325 l 2,68,69
 1446 1344 1446 1344 1472 1344 c 128,-1,70
 1498 1344 1498 1344 1517 1325 c 128,-1,71
 1536 1306 1536 1306 1536 1280 c 2,37,-1
EndSplineSet
EndChar

StartChar: list_alt
Encoding: 61474 61474 58
Width: 1792
GlyphClass: 2
Flags: W
LayerCount: 2
Fore
SplineSet
384 352 m 2,0,-1
 384 288 l 2,1,2
 384 275 384 275 374.5 265.5 c 128,-1,3
 365 256 365 256 352 256 c 2,4,-1
 288 256 l 2,5,6
 275 256 275 256 265.5 265.5 c 128,-1,7
 256 275 256 275 256 288 c 2,8,-1
 256 352 l 2,9,10
 256 365 256 365 265.5 374.5 c 128,-1,11
 275 384 275 384 288 384 c 2,12,-1
 352 384 l 2,13,14
 365 384 365 384 374.5 374.5 c 128,-1,15
 384 365 384 365 384 352 c 2,0,-1
384 608 m 2,16,-1
 384 544 l 2,17,18
 384 531 384 531 374.5 521.5 c 128,-1,19
 365 512 365 512 352 512 c 2,20,-1
 288 512 l 2,21,22
 275 512 275 512 265.5 521.5 c 128,-1,23
 256 531 256 531 256 544 c 2,24,-1
 256 608 l 2,25,26
 256 621 256 621 265.5 630.5 c 128,-1,27
 275 640 275 640 288 640 c 2,28,-1
 352 640 l 2,29,30
 365 640 365 640 374.5 630.5 c 128,-1,31
 384 621 384 621 384 608 c 2,16,-1
384 864 m 2,32,-1
 384 800 l 2,33,34
 384 787 384 787 374.5 777.5 c 128,-1,35
 365 768 365 768 352 768 c 2,36,-1
 288 768 l 2,37,38
 275 768 275 768 265.5 777.5 c 128,-1,39
 256 787 256 787 256 800 c 2,40,-1
 256 864 l 2,41,42
 256 877 256 877 265.5 886.5 c 128,-1,43
 275 896 275 896 288 896 c 2,44,-1
 352 896 l 2,45,46
 365 896 365 896 374.5 886.5 c 128,-1,47
 384 877 384 877 384 864 c 2,32,-1
1536 352 m 2,48,-1
 1536 288 l 2,49,50
 1536 275 1536 275 1526.5 265.5 c 128,-1,51
 1517 256 1517 256 1504 256 c 2,52,-1
 544 256 l 2,53,54
 531 256 531 256 521.5 265.5 c 128,-1,55
 512 275 512 275 512 288 c 2,56,-1
 512 352 l 2,57,58
 512 365 512 365 521.5 374.5 c 128,-1,59
 531 384 531 384 544 384 c 2,60,-1
 1504 384 l 2,61,62
 1517 384 1517 384 1526.5 374.5 c 128,-1,63
 1536 365 1536 365 1536 352 c 2,48,-1
1536 608 m 2,64,-1
 1536 544 l 2,65,66
 1536 531 1536 531 1526.5 521.5 c 128,-1,67
 1517 512 1517 512 1504 512 c 2,68,-1
 544 512 l 2,69,70
 531 512 531 512 521.5 521.5 c 128,-1,71
 512 531 512 531 512 544 c 2,72,-1
 512 608 l 2,73,74
 512 621 512 621 521.5 630.5 c 128,-1,75
 531 640 531 640 544 640 c 2,76,-1
 1504 640 l 2,77,78
 1517 640 1517 640 1526.5 630.5 c 128,-1,79
 1536 621 1536 621 1536 608 c 2,64,-1
1536 864 m 2,80,-1
 1536 800 l 2,81,82
 1536 787 1536 787 1526.5 777.5 c 128,-1,83
 1517 768 1517 768 1504 768 c 2,84,-1
 544 768 l 2,85,86
 531 768 531 768 521.5 777.5 c 128,-1,87
 512 787 512 787 512 800 c 2,88,-1
 512 864 l 2,89,90
 512 877 512 877 521.5 886.5 c 128,-1,91
 531 896 531 896 544 896 c 2,92,-1
 1504 896 l 2,93,94
 1517 896 1517 896 1526.5 886.5 c 128,-1,95
 1536 877 1536 877 1536 864 c 2,80,-1
1664 160 m 2,96,-1
 1664 992 l 2,97,98
 1664 1005 1664 1005 1654.5 1014.5 c 128,-1,99
 1645 1024 1645 1024 1632 1024 c 2,100,-1
 160 1024 l 2,101,102
 147 1024 147 1024 137.5 1014.5 c 128,-1,103
 128 1005 128 1005 128 992 c 2,104,-1
 128 160 l 2,105,106
 128 147 128 147 137.5 137.5 c 128,-1,107
 147 128 147 128 160 128 c 2,108,-1
 1632 128 l 2,109,110
 1645 128 1645 128 1654.5 137.5 c 128,-1,111
 1664 147 1664 147 1664 160 c 2,96,-1
1792 1248 m 2,112,-1
 1792 160 l 2,113,114
 1792 94 1792 94 1745 47 c 128,-1,115
 1698 0 1698 0 1632 0 c 2,116,-1
 160 0 l 2,117,118
 94 0 94 0 47 47 c 128,-1,119
 0 94 0 94 0 160 c 2,120,-1
 0 1248 l 2,121,122
 0 1314 0 1314 47 1361 c 128,-1,123
 94 1408 94 1408 160 1408 c 2,124,-1
 1632 1408 l 2,125,126
 1698 1408 1698 1408 1745 1361 c 128,-1,127
 1792 1314 1792 1314 1792 1248 c 2,112,-1
EndSplineSet
EndChar

StartChar: lock
Encoding: 61475 61475 59
Width: 1152
GlyphClass: 2
Flags: W
LayerCount: 2
Fore
SplineSet
320 768 m 1,0,-1
 832 768 l 1,1,-1
 832 960 l 2,2,3
 832 1066 832 1066 757 1141 c 128,-1,4
 682 1216 682 1216 576 1216 c 128,-1,5
 470 1216 470 1216 395 1141 c 128,-1,6
 320 1066 320 1066 320 960 c 2,7,-1
 320 768 l 1,0,-1
1152 672 m 2,8,-1
 1152 96 l 2,9,10
 1152 56 1152 56 1124 28 c 128,-1,11
 1096 0 1096 0 1056 0 c 2,12,-1
 96 0 l 2,13,14
 56 0 56 0 28 28 c 128,-1,15
 0 56 0 56 0 96 c 2,16,-1
 0 672 l 2,17,18
 0 712 0 712 28 740 c 128,-1,19
 56 768 56 768 96 768 c 2,20,-1
 128 768 l 1,21,-1
 128 960 l 2,22,23
 128 1144 128 1144 260 1276 c 128,-1,24
 392 1408 392 1408 576 1408 c 128,-1,25
 760 1408 760 1408 892 1276 c 128,-1,26
 1024 1144 1024 1144 1024 960 c 2,27,-1
 1024 768 l 1,28,-1
 1056 768 l 2,29,30
 1096 768 1096 768 1124 740 c 128,-1,31
 1152 712 1152 712 1152 672 c 2,8,-1
EndSplineSet
EndChar

StartChar: flag
Encoding: 61476 61476 60
Width: 1792
GlyphClass: 2
Flags: W
LayerCount: 2
Fore
SplineSet
320 1280 m 0,0,1
 320 1208 320 1208 256 1170 c 1,2,-1
 256 -96 l 2,3,4
 256 -109 256 -109 246.5 -118.5 c 128,-1,5
 237 -128 237 -128 224 -128 c 2,6,-1
 160 -128 l 2,7,8
 147 -128 147 -128 137.5 -118.5 c 128,-1,9
 128 -109 128 -109 128 -96 c 2,10,-1
 128 1170 l 1,11,12
 64 1208 64 1208 64 1280 c 0,13,14
 64 1333 64 1333 101.5 1370.5 c 128,-1,15
 139 1408 139 1408 192 1408 c 128,-1,16
 245 1408 245 1408 282.5 1370.5 c 128,-1,17
 320 1333 320 1333 320 1280 c 0,0,1
1792 1216 m 2,18,-1
 1792 453 l 2,19,20
 1792 428 1792 428 1779.5 414.5 c 128,-1,21
 1767 401 1767 401 1740 387 c 0,22,23
 1525 271 1525 271 1371 271 c 0,24,25
 1310 271 1310 271 1247.5 293 c 128,-1,26
 1185 315 1185 315 1139 341 c 128,-1,27
 1093 367 1093 367 1023.5 389 c 128,-1,28
 954 411 954 411 881 411 c 0,29,30
 689 411 689 411 417 265 c 0,31,32
 400 256 400 256 384 256 c 0,33,34
 358 256 358 256 339 275 c 128,-1,35
 320 294 320 294 320 320 c 2,36,-1
 320 1062 l 2,37,38
 320 1094 320 1094 351 1117 c 1,39,40
 372 1131 372 1131 430 1160 c 0,41,42
 666 1280 666 1280 851 1280 c 0,43,44
 958 1280 958 1280 1051 1251 c 128,-1,45
 1144 1222 1144 1222 1270 1163 c 1,46,47
 1308 1144 1308 1144 1358 1144 c 0,48,49
 1412 1144 1412 1144 1475.5 1165 c 128,-1,50
 1539 1186 1539 1186 1585.5 1212 c 128,-1,51
 1632 1238 1632 1238 1673.5 1259 c 128,-1,52
 1715 1280 1715 1280 1728 1280 c 0,53,54
 1754 1280 1754 1280 1773 1261 c 128,-1,55
 1792 1242 1792 1242 1792 1216 c 2,18,-1
EndSplineSet
EndChar

StartChar: headphones
Encoding: 61477 61477 61
Width: 1664
GlyphClass: 2
Flags: W
LayerCount: 2
Fore
SplineSet
1664 650 m 0,0,1
 1664 484 1664 484 1604 336 c 2,2,-1
 1584 287 l 1,3,-1
 1399 254 l 1,4,5
 1377 171 1377 171 1308.5 117.5 c 128,-1,6
 1240 64 1240 64 1152 64 c 1,7,-1
 1152 32 l 2,8,9
 1152 18 1152 18 1143 9 c 128,-1,10
 1134 0 1134 0 1120 0 c 2,11,-1
 1056 0 l 2,12,13
 1042 0 1042 0 1033 9 c 128,-1,14
 1024 18 1024 18 1024 32 c 2,15,-1
 1024 608 l 2,16,17
 1024 622 1024 622 1033 631 c 128,-1,18
 1042 640 1042 640 1056 640 c 2,19,-1
 1120 640 l 2,20,21
 1134 640 1134 640 1143 631 c 128,-1,22
 1152 622 1152 622 1152 608 c 2,23,-1
 1152 576 l 1,24,25
 1223 576 1223 576 1282 540.5 c 128,-1,26
 1341 505 1341 505 1375 445 c 1,27,-1
 1443 457 l 1,28,29
 1472 552 1472 552 1472 650 c 0,30,31
 1472 798 1472 798 1384 929 c 128,-1,32
 1296 1060 1296 1060 1147.5 1138 c 128,-1,33
 999 1216 999 1216 832 1216 c 128,-1,34
 665 1216 665 1216 516.5 1138 c 128,-1,35
 368 1060 368 1060 280 929 c 128,-1,36
 192 798 192 798 192 650 c 0,37,38
 192 552 192 552 221 457 c 1,39,-1
 289 445 l 1,40,41
 323 505 323 505 382 540.5 c 128,-1,42
 441 576 441 576 512 576 c 1,43,-1
 512 608 l 2,44,45
 512 622 512 622 521 631 c 128,-1,46
 530 640 530 640 544 640 c 2,47,-1
 608 640 l 2,48,49
 622 640 622 640 631 631 c 128,-1,50
 640 622 640 622 640 608 c 2,51,-1
 640 32 l 2,52,53
 640 18 640 18 631 9 c 128,-1,54
 622 0 622 0 608 0 c 2,55,-1
 544 0 l 2,56,57
 530 0 530 0 521 9 c 128,-1,58
 512 18 512 18 512 32 c 2,59,-1
 512 64 l 1,60,61
 424 64 424 64 355.5 117.5 c 128,-1,62
 287 171 287 171 265 254 c 1,63,-1
 80 287 l 1,64,-1
 60 336 l 2,65,66
 0 484 0 484 0 650 c 0,67,68
 0 801 0 801 67 941 c 128,-1,69
 134 1081 134 1081 246 1183.5 c 128,-1,70
 358 1286 358 1286 512 1347 c 128,-1,71
 666 1408 666 1408 832 1408 c 128,-1,72
 998 1408 998 1408 1152 1347 c 128,-1,73
 1306 1286 1306 1286 1418 1183.5 c 128,-1,74
 1530 1081 1530 1081 1597 941 c 128,-1,75
 1664 801 1664 801 1664 650 c 0,0,1
EndSplineSet
EndChar

StartChar: volume_off
Encoding: 61478 61478 62
Width: 768
GlyphClass: 2
Flags: W
LayerCount: 2
Fore
SplineSet
768 1184 m 2,0,-1
 768 96 l 2,1,2
 768 70 768 70 749 51 c 128,-1,3
 730 32 730 32 704 32 c 128,-1,4
 678 32 678 32 659 51 c 2,5,-1
 326 384 l 1,6,-1
 64 384 l 2,7,8
 38 384 38 384 19 403 c 128,-1,9
 0 422 0 422 0 448 c 2,10,-1
 0 832 l 2,11,12
 0 858 0 858 19 877 c 128,-1,13
 38 896 38 896 64 896 c 2,14,-1
 326 896 l 1,15,-1
 659 1229 l 2,16,17
 678 1248 678 1248 704 1248 c 128,-1,18
 730 1248 730 1248 749 1229 c 128,-1,19
 768 1210 768 1210 768 1184 c 2,0,-1
EndSplineSet
EndChar

StartChar: volume_down
Encoding: 61479 61479 63
Width: 1152
GlyphClass: 2
Flags: W
LayerCount: 2
Fore
SplineSet
768 1184 m 2,0,-1
 768 96 l 2,1,2
 768 70 768 70 749 51 c 128,-1,3
 730 32 730 32 704 32 c 128,-1,4
 678 32 678 32 659 51 c 2,5,-1
 326 384 l 1,6,-1
 64 384 l 2,7,8
 38 384 38 384 19 403 c 128,-1,9
 0 422 0 422 0 448 c 2,10,-1
 0 832 l 2,11,12
 0 858 0 858 19 877 c 128,-1,13
 38 896 38 896 64 896 c 2,14,-1
 326 896 l 1,15,-1
 659 1229 l 2,16,17
 678 1248 678 1248 704 1248 c 128,-1,18
 730 1248 730 1248 749 1229 c 128,-1,19
 768 1210 768 1210 768 1184 c 2,0,-1
1152 640 m 128,-1,21
 1152 564 1152 564 1109.5 498.5 c 128,-1,22
 1067 433 1067 433 997 405 c 0,23,24
 987 400 987 400 972 400 c 0,25,26
 946 400 946 400 927 418.5 c 128,-1,27
 908 437 908 437 908 464 c 0,28,29
 908 485 908 485 920 499.5 c 128,-1,30
 932 514 932 514 949 524.5 c 128,-1,31
 966 535 966 535 983 547.5 c 128,-1,32
 1000 560 1000 560 1012 583 c 128,-1,33
 1024 606 1024 606 1024 640 c 128,-1,34
 1024 674 1024 674 1012 697 c 128,-1,35
 1000 720 1000 720 983 732.5 c 128,-1,36
 966 745 966 745 949 755.5 c 128,-1,37
 932 766 932 766 920 780.5 c 128,-1,38
 908 795 908 795 908 816 c 0,39,40
 908 843 908 843 927 861.5 c 128,-1,41
 946 880 946 880 972 880 c 0,42,43
 987 880 987 880 997 875 c 1,44,45
 1067 848 1067 848 1109.5 782 c 128,-1,20
 1152 716 1152 716 1152 640 c 128,-1,21
EndSplineSet
EndChar

StartChar: volume_up
Encoding: 61480 61480 64
Width: 1664
GlyphClass: 2
Flags: W
LayerCount: 2
Fore
SplineSet
768 1184 m 2,0,-1
 768 96 l 2,1,2
 768 70 768 70 749 51 c 128,-1,3
 730 32 730 32 704 32 c 128,-1,4
 678 32 678 32 659 51 c 2,5,-1
 326 384 l 1,6,-1
 64 384 l 2,7,8
 38 384 38 384 19 403 c 128,-1,9
 0 422 0 422 0 448 c 2,10,-1
 0 832 l 2,11,12
 0 858 0 858 19 877 c 128,-1,13
 38 896 38 896 64 896 c 2,14,-1
 326 896 l 1,15,-1
 659 1229 l 2,16,17
 678 1248 678 1248 704 1248 c 128,-1,18
 730 1248 730 1248 749 1229 c 128,-1,19
 768 1210 768 1210 768 1184 c 2,0,-1
1152 640 m 128,-1,21
 1152 564 1152 564 1109.5 498.5 c 128,-1,22
 1067 433 1067 433 997 405 c 0,23,24
 987 400 987 400 972 400 c 0,25,26
 946 400 946 400 927 418.5 c 128,-1,27
 908 437 908 437 908 464 c 0,28,29
 908 485 908 485 920 499.5 c 128,-1,30
 932 514 932 514 949 524.5 c 128,-1,31
 966 535 966 535 983 547.5 c 128,-1,32
 1000 560 1000 560 1012 583 c 128,-1,33
 1024 606 1024 606 1024 640 c 128,-1,34
 1024 674 1024 674 1012 697 c 128,-1,35
 1000 720 1000 720 983 732.5 c 128,-1,36
 966 745 966 745 949 755.5 c 128,-1,37
 932 766 932 766 920 780.5 c 128,-1,38
 908 795 908 795 908 816 c 0,39,40
 908 843 908 843 927 861.5 c 128,-1,41
 946 880 946 880 972 880 c 0,42,43
 987 880 987 880 997 875 c 1,44,45
 1067 848 1067 848 1109.5 782 c 128,-1,20
 1152 716 1152 716 1152 640 c 128,-1,21
1408 640 m 128,-1,47
 1408 487 1408 487 1323 357.5 c 128,-1,48
 1238 228 1238 228 1098 169 c 0,49,50
 1085 164 1085 164 1073 164 c 0,51,52
 1046 164 1046 164 1027 183 c 128,-1,53
 1008 202 1008 202 1008 228 c 0,54,55
 1008 267 1008 267 1047 287 c 0,56,57
 1103 316 1103 316 1123 331 c 0,58,59
 1197 385 1197 385 1238.5 466.5 c 128,-1,60
 1280 548 1280 548 1280 640 c 128,-1,61
 1280 732 1280 732 1238.5 813.5 c 128,-1,62
 1197 895 1197 895 1123 949 c 0,63,64
 1103 964 1103 964 1047 993 c 0,65,66
 1008 1013 1008 1013 1008 1052 c 0,67,68
 1008 1078 1008 1078 1027 1097 c 128,-1,69
 1046 1116 1046 1116 1072 1116 c 0,70,71
 1085 1116 1085 1116 1098 1111 c 0,72,73
 1238 1052 1238 1052 1323 922.5 c 128,-1,46
 1408 793 1408 793 1408 640 c 128,-1,47
1664 640 m 128,-1,75
 1664 410 1664 410 1537 217.5 c 128,-1,76
 1410 25 1410 25 1199 -66 c 0,77,78
 1186 -71 1186 -71 1173 -71 c 0,79,80
 1147 -71 1147 -71 1128 -52 c 128,-1,81
 1109 -33 1109 -33 1109 -7 c 0,82,83
 1109 29 1109 29 1148 52 c 0,84,85
 1155 56 1155 56 1170.5 62.5 c 128,-1,86
 1186 69 1186 69 1193 73 c 0,87,88
 1239 98 1239 98 1275 124 c 0,89,90
 1398 215 1398 215 1467 351 c 128,-1,91
 1536 487 1536 487 1536 640 c 128,-1,92
 1536 793 1536 793 1467 929 c 128,-1,93
 1398 1065 1398 1065 1275 1156 c 0,94,95
 1239 1182 1239 1182 1193 1207 c 0,96,97
 1186 1211 1186 1211 1170.5 1217.5 c 128,-1,98
 1155 1224 1155 1224 1148 1228 c 0,99,100
 1109 1251 1109 1251 1109 1287 c 0,101,102
 1109 1313 1109 1313 1128 1332 c 128,-1,103
 1147 1351 1147 1351 1173 1351 c 0,104,105
 1186 1351 1186 1351 1199 1346 c 0,106,107
 1410 1255 1410 1255 1537 1062.5 c 128,-1,74
 1664 870 1664 870 1664 640 c 128,-1,75
EndSplineSet
EndChar

StartChar: qrcode
Encoding: 61481 61481 65
Width: 1408
GlyphClass: 2
Flags: W
LayerCount: 2
Fore
SplineSet
384 384 m 1,0,-1
 384 256 l 1,1,-1
 256 256 l 1,2,-1
 256 384 l 1,3,-1
 384 384 l 1,0,-1
384 1152 m 1,4,-1
 384 1024 l 1,5,-1
 256 1024 l 1,6,-1
 256 1152 l 1,7,-1
 384 1152 l 1,4,-1
1152 1152 m 1,8,-1
 1152 1024 l 1,9,-1
 1024 1024 l 1,10,-1
 1024 1152 l 1,11,-1
 1152 1152 l 1,8,-1
128 129 m 1,12,-1
 512 129 l 1,13,-1
 512 512 l 1,14,-1
 128 512 l 1,15,-1
 128 129 l 1,12,-1
128 896 m 1,16,-1
 512 896 l 1,17,-1
 512 1280 l 1,18,-1
 128 1280 l 1,19,-1
 128 896 l 1,16,-1
896 896 m 1,20,-1
 1280 896 l 1,21,-1
 1280 1280 l 1,22,-1
 896 1280 l 1,23,-1
 896 896 l 1,20,-1
640 640 m 1,24,-1
 640 0 l 1,25,-1
 0 0 l 1,26,-1
 0 640 l 1,27,-1
 640 640 l 1,24,-1
1152 128 m 1,28,-1
 1152 0 l 1,29,-1
 1024 0 l 1,30,-1
 1024 128 l 1,31,-1
 1152 128 l 1,28,-1
1408 128 m 1,32,-1
 1408 0 l 1,33,-1
 1280 0 l 1,34,-1
 1280 128 l 1,35,-1
 1408 128 l 1,32,-1
1408 640 m 1,36,-1
 1408 256 l 1,37,-1
 1024 256 l 1,38,-1
 1024 384 l 1,39,-1
 896 384 l 1,40,-1
 896 0 l 1,41,-1
 768 0 l 1,42,-1
 768 640 l 1,43,-1
 1152 640 l 1,44,-1
 1152 512 l 1,45,-1
 1280 512 l 1,46,-1
 1280 640 l 1,47,-1
 1408 640 l 1,36,-1
640 1408 m 1,48,-1
 640 768 l 1,49,-1
 0 768 l 1,50,-1
 0 1408 l 1,51,-1
 640 1408 l 1,48,-1
1408 1408 m 1,52,-1
 1408 768 l 1,53,-1
 768 768 l 1,54,-1
 768 1408 l 1,55,-1
 1408 1408 l 1,52,-1
EndSplineSet
EndChar

StartChar: barcode
Encoding: 61482 61482 66
Width: 1792
GlyphClass: 2
Flags: W
LayerCount: 2
Fore
SplineSet
63 0 m 1,0,-1
 0 0 l 1,1,-1
 0 1408 l 1,2,-1
 63 1408 l 1,3,-1
 63 0 l 1,0,-1
126 1 m 1,4,-1
 94 1 l 1,5,-1
 94 1408 l 1,6,-1
 126 1408 l 1,7,-1
 126 1 l 1,4,-1
220 1 m 1,8,-1
 189 1 l 1,9,-1
 189 1408 l 1,10,-1
 220 1408 l 1,11,-1
 220 1 l 1,8,-1
377 1 m 1,12,-1
 346 1 l 1,13,-1
 346 1408 l 1,14,-1
 377 1408 l 1,15,-1
 377 1 l 1,12,-1
534 1 m 1,16,-1
 472 1 l 1,17,-1
 472 1408 l 1,18,-1
 534 1408 l 1,19,-1
 534 1 l 1,16,-1
660 1 m 1,20,-1
 629 1 l 1,21,-1
 629 1408 l 1,22,-1
 660 1408 l 1,23,-1
 660 1 l 1,20,-1
723 1 m 1,24,-1
 692 1 l 1,25,-1
 692 1408 l 1,26,-1
 723 1408 l 1,27,-1
 723 1 l 1,24,-1
786 1 m 1,28,-1
 755 1 l 1,29,-1
 755 1408 l 1,30,-1
 786 1408 l 1,31,-1
 786 1 l 1,28,-1
943 1 m 1,32,-1
 880 1 l 1,33,-1
 880 1408 l 1,34,-1
 943 1408 l 1,35,-1
 943 1 l 1,32,-1
1100 1 m 1,36,-1
 1037 1 l 1,37,-1
 1037 1408 l 1,38,-1
 1100 1408 l 1,39,-1
 1100 1 l 1,36,-1
1226 1 m 1,40,-1
 1163 1 l 1,41,-1
 1163 1408 l 1,42,-1
 1226 1408 l 1,43,-1
 1226 1 l 1,40,-1
1352 1 m 1,44,-1
 1289 1 l 1,45,-1
 1289 1408 l 1,46,-1
 1352 1408 l 1,47,-1
 1352 1 l 1,44,-1
1446 1 m 1,48,-1
 1383 1 l 1,49,-1
 1383 1408 l 1,50,-1
 1446 1408 l 1,51,-1
 1446 1 l 1,48,-1
1635 1 m 1,52,-1
 1541 1 l 1,53,-1
 1541 1408 l 1,54,-1
 1635 1408 l 1,55,-1
 1635 1 l 1,52,-1
1698 1 m 1,56,-1
 1666 1 l 1,57,-1
 1666 1408 l 1,58,-1
 1698 1408 l 1,59,-1
 1698 1 l 1,56,-1
1792 0 m 1,60,-1
 1729 0 l 1,61,-1
 1729 1408 l 1,62,-1
 1792 1408 l 1,63,-1
 1792 0 l 1,60,-1
EndSplineSet
EndChar

StartChar: tag
Encoding: 61483 61483 67
Width: 1536
GlyphClass: 2
Flags: W
LayerCount: 2
Fore
SplineSet
448 1088 m 128,-1,1
 448 1141 448 1141 410.5 1178.5 c 128,-1,2
 373 1216 373 1216 320 1216 c 128,-1,3
 267 1216 267 1216 229.5 1178.5 c 128,-1,4
 192 1141 192 1141 192 1088 c 128,-1,5
 192 1035 192 1035 229.5 997.5 c 128,-1,6
 267 960 267 960 320 960 c 128,-1,7
 373 960 373 960 410.5 997.5 c 128,-1,0
 448 1035 448 1035 448 1088 c 128,-1,1
1515 512 m 0,8,9
 1515 459 1515 459 1478 422 c 2,10,-1
 987 -70 l 1,11,12
 948 -107 948 -107 896 -107 c 0,13,14
 843 -107 843 -107 806 -70 c 2,15,-1
 91 646 l 2,16,17
 53 683 53 683 26.5 747 c 128,-1,18
 0 811 0 811 0 864 c 2,19,-1
 0 1280 l 2,20,21
 0 1332 0 1332 38 1370 c 128,-1,22
 76 1408 76 1408 128 1408 c 2,23,-1
 544 1408 l 2,24,25
 597 1408 597 1408 661 1381.5 c 128,-1,26
 725 1355 725 1355 763 1317 c 2,27,-1
 1478 603 l 1,28,29
 1515 564 1515 564 1515 512 c 0,8,9
EndSplineSet
EndChar

StartChar: tags
Encoding: 61484 61484 68
Width: 1920
GlyphClass: 2
Flags: W
LayerCount: 2
Fore
SplineSet
448 1088 m 128,-1,1
 448 1141 448 1141 410.5 1178.5 c 128,-1,2
 373 1216 373 1216 320 1216 c 128,-1,3
 267 1216 267 1216 229.5 1178.5 c 128,-1,4
 192 1141 192 1141 192 1088 c 128,-1,5
 192 1035 192 1035 229.5 997.5 c 128,-1,6
 267 960 267 960 320 960 c 128,-1,7
 373 960 373 960 410.5 997.5 c 128,-1,0
 448 1035 448 1035 448 1088 c 128,-1,1
1515 512 m 0,8,9
 1515 459 1515 459 1478 422 c 2,10,-1
 987 -70 l 1,11,12
 948 -107 948 -107 896 -107 c 0,13,14
 843 -107 843 -107 806 -70 c 2,15,-1
 91 646 l 2,16,17
 53 683 53 683 26.5 747 c 128,-1,18
 0 811 0 811 0 864 c 2,19,-1
 0 1280 l 2,20,21
 0 1332 0 1332 38 1370 c 128,-1,22
 76 1408 76 1408 128 1408 c 2,23,-1
 544 1408 l 2,24,25
 597 1408 597 1408 661 1381.5 c 128,-1,26
 725 1355 725 1355 763 1317 c 2,27,-1
 1478 603 l 1,28,29
 1515 564 1515 564 1515 512 c 0,8,9
1899 512 m 0,30,31
 1899 459 1899 459 1862 422 c 2,32,-1
 1371 -70 l 1,33,34
 1332 -107 1332 -107 1280 -107 c 0,35,36
 1244 -107 1244 -107 1221 -93 c 128,-1,37
 1198 -79 1198 -79 1168 -48 c 1,38,-1
 1638 422 l 2,39,40
 1675 459 1675 459 1675 512 c 0,41,42
 1675 564 1675 564 1638 603 c 1,43,-1
 923 1317 l 2,44,45
 885 1355 885 1355 821 1381.5 c 128,-1,46
 757 1408 757 1408 704 1408 c 2,47,-1
 928 1408 l 2,48,49
 981 1408 981 1408 1045 1381.5 c 128,-1,50
 1109 1355 1109 1355 1147 1317 c 2,51,-1
 1862 603 l 1,52,53
 1899 564 1899 564 1899 512 c 0,30,31
EndSplineSet
EndChar

StartChar: book
Encoding: 61485 61485 69
Width: 1664
GlyphClass: 2
Flags: W
LayerCount: 2
Fore
SplineSet
1639 1058 m 1,0,1
 1679 1001 1679 1001 1657 929 c 2,2,-1
 1382 23 l 2,3,4
 1363 -41 1363 -41 1305.5 -84.5 c 128,-1,5
 1248 -128 1248 -128 1183 -128 c 2,6,-1
 260 -128 l 2,7,8
 183 -128 183 -128 111.5 -74.5 c 128,-1,9
 40 -21 40 -21 12 57 c 0,10,11
 -12 124 -12 124 10 184 c 1,12,13
 10 188 10 188 13 211 c 128,-1,14
 16 234 16 234 17 248 c 0,15,16
 18 256 18 256 14 269.5 c 128,-1,17
 10 283 10 283 11 289 c 0,18,19
 13 300 13 300 19 310 c 128,-1,20
 25 320 25 320 35.5 333.5 c 128,-1,21
 46 347 46 347 52 357 c 0,22,23
 75 395 75 395 97 448.5 c 128,-1,24
 119 502 119 502 127 540 c 0,25,26
 130 550 130 550 127.5 570 c 128,-1,27
 125 590 125 590 127 598 c 0,28,29
 130 609 130 609 144 626 c 128,-1,30
 158 643 158 643 161 649 c 0,31,32
 182 685 182 685 203 741 c 128,-1,33
 224 797 224 797 228 831 c 0,34,35
 229 840 229 840 225.5 863 c 128,-1,36
 222 886 222 886 226 891 c 1,37,38
 230 904 230 904 248 921.5 c 128,-1,39
 266 939 266 939 270 944 c 0,40,41
 289 970 289 970 312.5 1028.5 c 128,-1,42
 336 1087 336 1087 340 1125 c 0,43,44
 341 1133 341 1133 337 1150.5 c 128,-1,45
 333 1168 333 1168 335 1177 c 0,46,47
 337 1185 337 1185 344 1195 c 128,-1,48
 351 1205 351 1205 362 1218 c 128,-1,49
 373 1231 373 1231 379 1239 c 0,50,51
 387 1251 387 1251 395.5 1269.5 c 128,-1,52
 404 1288 404 1288 410.5 1304.5 c 128,-1,53
 417 1321 417 1321 426.5 1340.5 c 128,-1,54
 436 1360 436 1360 446 1372.5 c 128,-1,55
 456 1385 456 1385 472.5 1396 c 128,-1,56
 489 1407 489 1407 508.5 1407.5 c 128,-1,57
 528 1408 528 1408 556 1402 c 1,58,-1
 555 1399 l 1,59,60
 593 1408 593 1408 606 1408 c 2,61,-1
 1367 1408 l 2,62,63
 1441 1408 1441 1408 1481 1352 c 128,-1,64
 1521 1296 1521 1296 1499 1222 c 2,65,-1
 1225 316 l 2,66,67
 1189 197 1189 197 1153.5 162.5 c 128,-1,68
 1118 128 1118 128 1025 128 c 2,69,-1
 156 128 l 2,70,71
 129 128 129 128 118 113 c 0,72,73
 107 97 107 97 117 70 c 0,74,75
 141 0 141 0 261 0 c 2,76,-1
 1184 0 l 2,77,78
 1213 0 1213 0 1240 15.5 c 128,-1,79
 1267 31 1267 31 1275 57 c 2,80,-1
 1575 1044 l 2,81,82
 1582 1066 1582 1066 1580 1101 c 1,83,84
 1618 1086 1618 1086 1639 1058 c 1,0,1
575 1056 m 2,85,86
 571 1043 571 1043 577 1033.5 c 128,-1,87
 583 1024 583 1024 597 1024 c 2,88,-1
 1205 1024 l 2,89,90
 1218 1024 1218 1024 1230.5 1033.5 c 128,-1,91
 1243 1043 1243 1043 1247 1056 c 2,92,-1
 1268 1120 l 2,93,94
 1272 1133 1272 1133 1266 1142.5 c 128,-1,95
 1260 1152 1260 1152 1246 1152 c 2,96,-1
 638 1152 l 2,97,98
 625 1152 625 1152 612.5 1142.5 c 128,-1,99
 600 1133 600 1133 596 1120 c 2,100,-1
 575 1056 l 2,85,86
492 800 m 2,101,102
 488 787 488 787 494 777.5 c 128,-1,103
 500 768 500 768 514 768 c 2,104,-1
 1122 768 l 2,105,106
 1135 768 1135 768 1147.5 777.5 c 128,-1,107
 1160 787 1160 787 1164 800 c 2,108,-1
 1185 864 l 2,109,110
 1189 877 1189 877 1183 886.5 c 128,-1,111
 1177 896 1177 896 1163 896 c 2,112,-1
 555 896 l 2,113,114
 542 896 542 896 529.5 886.5 c 128,-1,115
 517 877 517 877 513 864 c 2,116,-1
 492 800 l 2,101,102
EndSplineSet
EndChar

StartChar: bookmark
Encoding: 61486 61486 70
Width: 1280
GlyphClass: 2
Flags: W
LayerCount: 2
Fore
SplineSet
1164 1408 m 2,0,1
 1187 1408 1187 1408 1208 1399 c 0,2,3
 1241 1386 1241 1386 1260.5 1358 c 128,-1,4
 1280 1330 1280 1330 1280 1296 c 2,5,-1
 1280 7 l 2,6,7
 1280 -27 1280 -27 1260.5 -55 c 128,-1,8
 1241 -83 1241 -83 1208 -96 c 0,9,10
 1189 -104 1189 -104 1164 -104 c 0,11,12
 1116 -104 1116 -104 1081 -72 c 1,13,-1
 640 352 l 1,14,-1
 199 -72 l 1,15,16
 163 -105 163 -105 116 -105 c 0,17,18
 93 -105 93 -105 72 -96 c 0,19,20
 39 -83 39 -83 19.5 -55 c 128,-1,21
 0 -27 0 -27 0 7 c 2,22,-1
 0 1296 l 2,23,24
 0 1330 0 1330 19.5 1358 c 128,-1,25
 39 1386 39 1386 72 1399 c 0,26,27
 93 1408 93 1408 116 1408 c 2,28,-1
 1164 1408 l 2,0,1
EndSplineSet
EndChar

StartChar: print
Encoding: 61487 61487 71
Width: 1664
GlyphClass: 2
Flags: W
LayerCount: 2
Fore
SplineSet
384 0 m 1,0,-1
 1280 0 l 1,1,-1
 1280 256 l 1,2,-1
 384 256 l 1,3,-1
 384 0 l 1,0,-1
384 640 m 1,4,-1
 1280 640 l 1,5,-1
 1280 1024 l 1,6,-1
 1120 1024 l 2,7,8
 1080 1024 1080 1024 1052 1052 c 128,-1,9
 1024 1080 1024 1080 1024 1120 c 2,10,-1
 1024 1280 l 1,11,-1
 384 1280 l 1,12,-1
 384 640 l 1,4,-1
1536 576 m 128,-1,14
 1536 602 1536 602 1517 621 c 128,-1,15
 1498 640 1498 640 1472 640 c 128,-1,16
 1446 640 1446 640 1427 621 c 128,-1,17
 1408 602 1408 602 1408 576 c 128,-1,18
 1408 550 1408 550 1427 531 c 128,-1,19
 1446 512 1446 512 1472 512 c 128,-1,20
 1498 512 1498 512 1517 531 c 128,-1,13
 1536 550 1536 550 1536 576 c 128,-1,14
1664 576 m 2,21,-1
 1664 160 l 2,22,23
 1664 147 1664 147 1654.5 137.5 c 128,-1,24
 1645 128 1645 128 1632 128 c 2,25,-1
 1408 128 l 1,26,-1
 1408 -32 l 2,27,28
 1408 -72 1408 -72 1380 -100 c 128,-1,29
 1352 -128 1352 -128 1312 -128 c 2,30,-1
 352 -128 l 2,31,32
 312 -128 312 -128 284 -100 c 128,-1,33
 256 -72 256 -72 256 -32 c 2,34,-1
 256 128 l 1,35,-1
 32 128 l 2,36,37
 19 128 19 128 9.5 137.5 c 128,-1,38
 0 147 0 147 0 160 c 2,39,-1
 0 576 l 2,40,41
 0 655 0 655 56.5 711.5 c 128,-1,42
 113 768 113 768 192 768 c 2,43,-1
 256 768 l 1,44,-1
 256 1312 l 2,45,46
 256 1352 256 1352 284 1380 c 128,-1,47
 312 1408 312 1408 352 1408 c 2,48,-1
 1024 1408 l 2,49,50
 1064 1408 1064 1408 1112 1388 c 128,-1,51
 1160 1368 1160 1368 1188 1340 c 2,52,-1
 1340 1188 l 2,53,54
 1368 1160 1368 1160 1388 1112 c 128,-1,55
 1408 1064 1408 1064 1408 1024 c 2,56,-1
 1408 768 l 1,57,-1
 1472 768 l 2,58,59
 1551 768 1551 768 1607.5 711.5 c 128,-1,60
 1664 655 1664 655 1664 576 c 2,21,-1
EndSplineSet
EndChar

StartChar: camera
Encoding: 61488 61488 72
Width: 1920
GlyphClass: 2
Flags: W
LayerCount: 2
Fore
SplineSet
960 864 m 128,-1,1
 1079 864 1079 864 1163.5 779.5 c 128,-1,2
 1248 695 1248 695 1248 576 c 128,-1,3
 1248 457 1248 457 1163.5 372.5 c 128,-1,4
 1079 288 1079 288 960 288 c 128,-1,5
 841 288 841 288 756.5 372.5 c 128,-1,6
 672 457 672 457 672 576 c 128,-1,7
 672 695 672 695 756.5 779.5 c 128,-1,0
 841 864 841 864 960 864 c 128,-1,1
1664 1280 m 2,8,9
 1770 1280 1770 1280 1845 1205 c 128,-1,10
 1920 1130 1920 1130 1920 1024 c 2,11,-1
 1920 128 l 2,12,13
 1920 22 1920 22 1845 -53 c 128,-1,14
 1770 -128 1770 -128 1664 -128 c 2,15,-1
 256 -128 l 2,16,17
 150 -128 150 -128 75 -53 c 128,-1,18
 0 22 0 22 0 128 c 2,19,-1
 0 1024 l 2,20,21
 0 1130 0 1130 75 1205 c 128,-1,22
 150 1280 150 1280 256 1280 c 2,23,-1
 480 1280 l 1,24,-1
 531 1416 l 2,25,26
 550 1465 550 1465 600.5 1500.5 c 128,-1,27
 651 1536 651 1536 704 1536 c 2,28,-1
 1216 1536 l 2,29,30
 1269 1536 1269 1536 1319.5 1500.5 c 128,-1,31
 1370 1465 1370 1465 1389 1416 c 2,32,-1
 1440 1280 l 1,33,-1
 1664 1280 l 2,8,9
960 128 m 128,-1,35
 1145 128 1145 128 1276.5 259.5 c 128,-1,36
 1408 391 1408 391 1408 576 c 128,-1,37
 1408 761 1408 761 1276.5 892.5 c 128,-1,38
 1145 1024 1145 1024 960 1024 c 128,-1,39
 775 1024 775 1024 643.5 892.5 c 128,-1,40
 512 761 512 761 512 576 c 128,-1,41
 512 391 512 391 643.5 259.5 c 128,-1,34
 775 128 775 128 960 128 c 128,-1,35
EndSplineSet
EndChar

StartChar: font
Encoding: 61489 61489 73
Width: 1664
GlyphClass: 2
Flags: W
LayerCount: 2
Fore
SplineSet
725 977 m 1,0,-1
 555 527 l 1,1,2
 628 526 628 526 708.5 525 c 128,-1,3
 789 524 789 524 827.5 523.5 c 128,-1,4
 866 523 866 523 880 523 c 2,5,-1
 909 525 l 1,6,7
 877 620 877 620 817 766 c 1,8,9
 764 898 764 898 725 977 c 1,0,-1
21 -128 m 2,10,-1
 0 -128 l 1,11,-1
 2 -49 l 1,12,13
 24 -42 24 -42 82 -31 c 0,14,15
 171 -15 171 -15 192 0 c 1,16,17
 212 16 212 16 240 68 c 1,18,-1
 477 684 l 1,19,-1
 757 1408 l 1,20,-1
 832 1408 l 1,21,-1
 885 1408 l 1,22,-1
 896 1387 l 1,23,-1
 1101 907 l 2,24,25
 1204 665 1204 665 1225 610 c 0,26,27
 1264 508 1264 508 1321 375 c 1,28,29
 1347 317 1347 317 1386 211 c 0,30,31
 1410 144 1410 144 1451 62 c 1,32,33
 1473 13 1473 13 1486 5 c 1,34,35
 1508 -14 1508 -14 1555 -18 c 1,36,37
 1602 -24 1602 -24 1658 -45 c 1,38,39
 1664 -84 1664 -84 1664 -102 c 0,40,41
 1664 -116 1664 -116 1663 -128 c 1,42,43
 1583 -128 1583 -128 1471 -120 c 1,44,45
 1378 -112 1378 -112 1282 -112 c 0,46,47
 1203 -112 1203 -112 1147 -114 c 1,48,-1
 947 -125 l 1,49,-1
 889 -127 l 1,50,51
 889 -82 889 -82 893 -49 c 1,52,-1
 1024 -21 l 1,53,54
 1080 -8 1080 -8 1092 2 c 1,55,56
 1104 14 1104 14 1104 29 c 128,-1,57
 1104 44 1104 44 1098 61 c 2,58,-1
 1051 175 l 1,59,-1
 959 403 l 1,60,-1
 509 405 l 1,61,62
 480 340 480 340 405 131 c 0,63,64
 382 67 382 67 382 47 c 0,65,66
 382 16 382 16 399 4 c 1,67,68
 425 -17 425 -17 502 -28 c 0,69,70
 505 -28 505 -28 515.5 -30 c 128,-1,71
 526 -32 526 -32 545.5 -35 c 128,-1,72
 565 -38 565 -38 586 -41 c 1,73,74
 587 -69 587 -69 587 -99 c 0,75,76
 587 -116 587 -116 585 -126 c 1,77,78
 519 -126 519 -126 236 -106 c 1,79,-1
 188 -114 l 2,80,81
 107 -128 107 -128 21 -128 c 2,10,-1
EndSplineSet
EndChar

StartChar: bold
Encoding: 61490 61490 74
Width: 1408
GlyphClass: 2
Flags: W
LayerCount: 2
Fore
SplineSet
555 15 m 1,0,1
 631 -17 631 -17 695 -17 c 0,2,3
 826 -17 826 -17 911 24 c 128,-1,4
 996 65 996 65 1033 137 c 1,5,6
 1071 207 1071 207 1071 318 c 0,7,8
 1071 432 1071 432 1030 498 c 0,9,10
 972 592 972 592 889 624 c 1,11,12
 809 656 809 656 642 656 c 0,13,14
 568 656 568 656 541 646 c 1,15,-1
 541 502 l 1,16,-1
 540 329 l 1,17,-1
 543 59 l 2,18,19
 543 44 543 44 555 15 c 1,0,1
541 761 m 1,20,21
 584 754 584 754 650 754 c 0,22,23
 825 754 825 754 914 819 c 128,-1,24
 1003 884 1003 884 1003 1043 c 0,25,26
 1003 1155 1003 1155 918 1230 c 0,27,28
 834 1305 834 1305 663 1305 c 0,29,30
 611 1305 611 1305 533 1292 c 1,31,32
 533 1248 533 1248 535 1215 c 0,33,34
 542 1093 542 1093 541 936 c 2,35,-1
 540 838 l 2,36,37
 540 795 540 795 541 761 c 1,20,21
0 -128 m 1,38,-1
 2 -34 l 1,39,40
 47 -25 47 -25 70 -22 c 0,41,42
 147 -10 147 -10 193 9 c 1,43,44
 210 36 210 36 214 60 c 0,45,46
 223 126 223 126 223 254 c 2,47,-1
 221 751 l 1,48,49
 216 1007 216 1007 212 1155 c 1,50,51
 211 1242 211 1242 201 1264 c 0,52,53
 200 1268 200 1268 189 1276 c 0,54,55
 171 1288 171 1288 120 1291 c 0,56,57
 90 1293 90 1293 6 1304 c 1,58,-1
 2 1387 l 1,59,-1
 262 1393 l 1,60,-1
 642 1406 l 1,61,-1
 687 1407 l 2,62,63
 692 1407 692 1407 701 1407.5 c 128,-1,64
 710 1408 710 1408 715 1408 c 0,65,66
 716 1408 716 1408 736.5 1407.5 c 128,-1,67
 757 1407 757 1407 777 1407 c 2,68,-1
 851 1407 l 2,69,70
 939 1407 939 1407 1042 1380 c 1,71,72
 1085 1367 1085 1367 1138 1341 c 0,73,74
 1195 1312 1195 1312 1240 1265 c 0,75,76
 1284 1218 1284 1218 1305 1161 c 128,-1,77
 1326 1104 1326 1104 1326 1039 c 0,78,79
 1326 969 1326 969 1294 911 c 128,-1,80
 1262 853 1262 853 1199 806 c 0,81,82
 1173 786 1173 786 1049 729 c 1,83,84
 1226 688 1226 688 1316 583 c 0,85,86
 1408 477 1408 477 1408 347 c 0,87,88
 1408 271 1408 271 1379 186 c 0,89,90
 1358 124 1358 124 1308 69 c 0,91,92
 1242 -3 1242 -3 1168 -39 c 0,93,94
 1095 -75 1095 -75 965 -99 c 0,95,96
 883 -114 883 -114 767 -110 c 1,97,-1
 570 -106 l 2,98,99
 486 -104 486 -104 272 -117 c 0,100,101
 239 -120 239 -120 0 -128 c 1,38,-1
EndSplineSet
EndChar

StartChar: italic
Encoding: 61491 61491 75
Width: 1024
GlyphClass: 2
Flags: W
LayerCount: 2
Fore
SplineSet
0 -126 m 1,0,-1
 17 -41 l 1,1,2
 21 -40 21 -40 94 -21 c 0,3,4
 170 -2 170 -2 210 18 c 1,5,6
 239 55 239 55 251 119 c 2,7,-1
 278 258 l 1,8,-1
 334 526 l 1,9,-1
 346 590 l 2,10,11
 354 634 354 634 363 674.5 c 128,-1,12
 372 715 372 715 379 741.5 c 128,-1,13
 386 768 386 768 391.5 788 c 128,-1,14
 397 808 397 808 400.5 818.5 c 128,-1,15
 404 829 404 829 404 830 c 2,16,-1
 433 987 l 1,17,-1
 449 1050 l 1,18,-1
 471 1185 l 1,19,-1
 479 1235 l 1,20,-1
 479 1273 l 1,21,22
 438 1295 438 1295 335 1301 c 0,23,24
 307 1303 307 1303 297 1305 c 1,25,-1
 316 1408 l 1,26,-1
 633 1394 l 2,27,28
 672 1392 672 1392 706 1392 c 0,29,30
 772 1392 772 1392 920 1401 c 0,31,32
 953 1403 953 1403 988 1405.5 c 128,-1,33
 1023 1408 1023 1408 1024 1408 c 1,34,35
 1022 1389 1022 1389 1018 1370 c 0,36,37
 1011 1341 1011 1341 1005 1319 c 1,38,39
 950 1300 950 1300 896 1288 c 1,40,41
 832 1272 832 1272 795 1257 c 1,42,43
 783 1226 783 1226 771 1169 c 0,44,45
 762 1125 762 1125 758 1087 c 1,46,47
 714 888 714 888 692 781 c 2,48,-1
 631 470 l 1,49,-1
 593 312 l 1,50,-1
 550 77 l 1,51,-1
 538 32 l 2,52,53
 536 25 536 25 539 5 c 1,54,55
 603 -10 603 -10 658 -16 c 1,56,57
 694 -21 694 -21 724 -26 c 1,58,59
 723 -55 723 -55 717 -84 c 0,60,61
 710 -115 710 -115 708 -125 c 1,62,63
 690 -125 690 -125 685 -126 c 0,64,65
 661 -128 661 -128 643 -128 c 0,66,67
 634 -128 634 -128 615 -125 c 0,68,69
 596 -121 596 -121 470 -108 c 1,70,-1
 272 -106 l 2,71,72
 231 -105 231 -105 98 -117 c 0,73,74
 24 -124 24 -124 0 -126 c 1,0,-1
EndSplineSet
EndChar

StartChar: text_height
Encoding: 61492 61492 76
Width: 1792
GlyphClass: 2
Flags: W
LayerCount: 2
Fore
SplineSet
81 1407 m 1,0,-1
 135 1380 l 1,1,2
 155 1375 155 1375 346 1375 c 2,3,-1
 476 1375 l 1,4,-1
 495 1378 l 1,5,-1
 610 1379 l 1,6,-1
 825 1378 l 1,7,-1
 1118 1378 l 1,8,-1
 1152 1376 l 2,9,10
 1166 1375 1166 1375 1180 1383 c 128,-1,11
 1194 1391 1194 1391 1201 1399 c 2,12,-1
 1208 1407 l 1,13,-1
 1250 1408 l 2,14,15
 1265 1408 1265 1408 1278 1407 c 1,16,17
 1278 1381 1278 1381 1278 1302.5 c 128,-1,18
 1278 1224 1278 1224 1279 1171 c 2,19,-1
 1280 1071 l 1,20,-1
 1279 1013 l 2,21,22
 1279 981 1279 981 1275 962 c 1,23,24
 1236 947 1236 947 1207 944 c 1,25,26
 1182 987 1182 987 1153 1072 c 0,27,28
 1145 1096 1145 1096 1137.5 1134.5 c 128,-1,29
 1130 1173 1130 1173 1126 1200 c 128,-1,30
 1122 1227 1122 1227 1120 1229 c 0,31,32
 1107 1244 1107 1244 1093 1248 c 0,33,34
 1086 1250 1086 1250 1050.5 1250 c 128,-1,35
 1015 1250 1015 1250 947 1249 c 128,-1,36
 879 1248 879 1248 836 1248 c 0,37,38
 802 1248 802 1248 769 1243 c 1,39,40
 759 1146 759 1146 761 1107 c 1,41,-1
 762 955 l 1,42,-1
 762 623 l 1,43,-1
 765 264 l 1,44,-1
 764 117 l 2,45,46
 763 71 763 71 775 32 c 1,47,48
 824 7 824 7 864 0 c 0,49,50
 866 0 866 0 882 -5 c 128,-1,51
 898 -10 898 -10 926 -18 c 128,-1,52
 954 -26 954 -26 969 -30 c 0,53,54
 999 -38 999 -38 1019 -48 c 1,55,56
 1024 -93 1024 -93 1024 -98 c 0,57,58
 1024 -108 1024 -108 1021 -127 c 1,59,60
 1007 -128 1007 -128 987 -128 c 0,61,62
 877 -128 877 -128 800 -118 c 1,63,64
 728 -110 728 -110 562 -110 c 0,65,66
 474 -110 474 -110 329 -124 c 0,67,68
 281 -128 281 -128 259 -128 c 1,69,70
 257 -106 257 -106 257 -102 c 2,71,-1
 256 -76 l 1,72,-1
 256 -67 l 1,73,74
 277 -34 277 -34 335 -18 c 0,75,76
 474 20 474 20 494 32 c 1,77,78
 503 53 503 53 506 88 c 1,79,80
 514 280 514 280 512 521 c 2,81,-1
 507 949 l 2,82,83
 506 1011 506 1011 506.5 1067.5 c 128,-1,84
 507 1124 507 1124 507 1170 c 128,-1,85
 507 1216 507 1216 505 1227 c 128,-1,86
 503 1238 503 1238 499 1242 c 0,87,88
 493 1247 493 1247 485 1248 c 0,89,90
 447 1254 447 1254 337 1254 c 0,91,92
 294 1254 294 1254 237 1240.5 c 128,-1,93
 180 1227 180 1227 164 1216 c 0,94,95
 151 1207 151 1207 142 1183 c 128,-1,96
 133 1159 133 1159 120 1108 c 128,-1,97
 107 1057 107 1057 96 1024 c 0,98,99
 90 1005 90 1005 76.5 992 c 128,-1,100
 63 979 63 979 56 979 c 1,101,102
 12 1006 12 1006 0 1023 c 1,103,-1
 0 1320 l 1,104,-1
 0 1406 l 1,105,-1
 81 1407 l 1,0,-1
1744 128 m 2,106,107
 1777 128 1777 128 1786 109.5 c 128,-1,108
 1795 91 1795 91 1775 65 c 2,109,-1
 1649 -97 l 2,110,111
 1629 -123 1629 -123 1600 -123 c 128,-1,112
 1571 -123 1571 -123 1551 -97 c 2,113,-1
 1425 65 l 2,114,115
 1405 91 1405 91 1414 109.5 c 128,-1,116
 1423 128 1423 128 1456 128 c 2,117,-1
 1536 128 l 1,118,-1
 1536 1152 l 1,119,-1
 1456 1152 l 2,120,121
 1423 1152 1423 1152 1414 1170.5 c 128,-1,122
 1405 1189 1405 1189 1425 1215 c 2,123,-1
 1551 1377 l 2,124,125
 1571 1403 1571 1403 1600 1403 c 128,-1,126
 1629 1403 1629 1403 1649 1377 c 2,127,-1
 1775 1215 l 2,128,129
 1795 1189 1795 1189 1786 1170.5 c 128,-1,130
 1777 1152 1777 1152 1744 1152 c 2,131,-1
 1664 1152 l 1,132,-1
 1664 128 l 1,133,-1
 1744 128 l 2,106,107
EndSplineSet
EndChar

StartChar: text_width
Encoding: 61493 61493 77
Width: 1536
GlyphClass: 2
Flags: W
LayerCount: 2
Fore
SplineSet
81 1407 m 1,0,-1
 135 1380 l 1,1,2
 155 1375 155 1375 346 1375 c 2,3,-1
 476 1375 l 1,4,-1
 495 1378 l 1,5,-1
 610 1379 l 1,6,-1
 1056 1378 l 1,7,-1
 1374 1378 l 1,8,-1
 1408 1376 l 2,9,10
 1422 1375 1422 1375 1436 1383 c 128,-1,11
 1450 1391 1450 1391 1457 1399 c 2,12,-1
 1464 1407 l 1,13,-1
 1506 1408 l 2,14,15
 1521 1408 1521 1408 1534 1407 c 1,16,17
 1534 1381 1534 1381 1534 1302.5 c 128,-1,18
 1534 1224 1534 1224 1535 1171 c 2,19,-1
 1536 1071 l 1,20,-1
 1535 1013 l 2,21,22
 1535 981 1535 981 1531 962 c 1,23,24
 1492 947 1492 947 1463 944 c 1,25,26
 1438 987 1438 987 1409 1072 c 0,27,28
 1401 1096 1401 1096 1393.5 1134.5 c 128,-1,29
 1386 1173 1386 1173 1382 1200 c 128,-1,30
 1378 1227 1378 1227 1376 1229 c 0,31,32
 1363 1244 1363 1244 1349 1248 c 0,33,34
 1342 1250 1342 1250 1290.5 1250 c 128,-1,35
 1239 1250 1239 1250 1152 1249 c 128,-1,36
 1065 1248 1065 1248 1024 1248 c 0,37,38
 930 1248 930 1248 897 1243 c 1,39,40
 887 1146 887 1146 889 1107 c 1,41,-1
 890 955 l 1,42,-1
 890 1007 l 1,43,-1
 893 648 l 1,44,-1
 892 501 l 2,45,46
 891 455 891 455 903 416 c 1,47,48
 952 391 952 391 992 384 c 0,49,50
 994 384 994 384 1010 379 c 128,-1,51
 1026 374 1026 374 1054 366 c 128,-1,52
 1082 358 1082 358 1097 354 c 0,53,54
 1127 346 1127 346 1147 336 c 1,55,56
 1152 291 1152 291 1152 286 c 0,57,58
 1152 276 1152 276 1149 257 c 1,59,60
 1135 256 1135 256 1115 256 c 0,61,62
 1005 256 1005 256 928 266 c 1,63,64
 856 274 856 274 690 274 c 0,65,66
 608 274 608 274 457 261 c 1,67,68
 412 256 412 256 387 256 c 1,69,70
 385 278 385 278 385 282 c 2,71,-1
 384 308 l 1,72,-1
 384 317 l 1,73,74
 405 350 405 350 463 366 c 0,75,76
 602 404 602 404 622 416 c 1,77,78
 631 437 631 437 634 472 c 1,79,80
 640 609 640 609 640 905 c 1,81,-1
 635 949 l 1,82,83
 635 1214 635 1214 633 1227 c 0,84,85
 631 1238 631 1238 627 1242 c 0,86,87
 621 1247 621 1247 613 1248 c 0,88,89
 575 1254 575 1254 465 1254 c 0,90,91
 415 1254 415 1254 296.5 1240 c 128,-1,92
 178 1226 178 1226 164 1216 c 0,93,94
 151 1207 151 1207 142 1183 c 128,-1,95
 133 1159 133 1159 120 1108 c 128,-1,96
 107 1057 107 1057 96 1024 c 0,97,98
 90 1005 90 1005 76.5 992 c 128,-1,99
 63 979 63 979 56 979 c 1,100,101
 12 1006 12 1006 0 1023 c 1,102,-1
 0 1320 l 1,103,-1
 0 1406 l 1,104,-1
 81 1407 l 1,0,-1
1505 113 m 2,105,106
 1531 93 1531 93 1531 64 c 128,-1,107
 1531 35 1531 35 1505 15 c 2,108,-1
 1343 -111 l 2,109,110
 1317 -131 1317 -131 1298.5 -122 c 128,-1,111
 1280 -113 1280 -113 1280 -80 c 2,112,-1
 1280 0 l 1,113,-1
 256 0 l 1,114,-1
 256 -80 l 2,115,116
 256 -113 256 -113 237.5 -122 c 128,-1,117
 219 -131 219 -131 193 -111 c 2,118,-1
 31 15 l 2,119,120
 5 35 5 35 5 64 c 128,-1,121
 5 93 5 93 31 113 c 2,122,-1
 193 239 l 2,123,124
 219 259 219 259 237.5 250 c 128,-1,125
 256 241 256 241 256 208 c 2,126,-1
 256 128 l 1,127,-1
 1280 128 l 1,128,-1
 1280 208 l 2,129,130
 1280 241 1280 241 1298.5 250 c 128,-1,131
 1317 259 1317 259 1343 239 c 2,132,-1
 1505 113 l 2,105,106
EndSplineSet
EndChar

StartChar: align_left
Encoding: 61494 61494 78
Width: 1792
GlyphClass: 2
Flags: W
LayerCount: 2
Fore
SplineSet
1792 192 m 2,0,-1
 1792 64 l 2,1,2
 1792 38 1792 38 1773 19 c 128,-1,3
 1754 0 1754 0 1728 0 c 2,4,-1
 64 0 l 2,5,6
 38 0 38 0 19 19 c 128,-1,7
 0 38 0 38 0 64 c 2,8,-1
 0 192 l 2,9,10
 0 218 0 218 19 237 c 128,-1,11
 38 256 38 256 64 256 c 2,12,-1
 1728 256 l 2,13,14
 1754 256 1754 256 1773 237 c 128,-1,15
 1792 218 1792 218 1792 192 c 2,0,-1
1408 576 m 2,16,-1
 1408 448 l 2,17,18
 1408 422 1408 422 1389 403 c 128,-1,19
 1370 384 1370 384 1344 384 c 2,20,-1
 64 384 l 2,21,22
 38 384 38 384 19 403 c 128,-1,23
 0 422 0 422 0 448 c 2,24,-1
 0 576 l 2,25,26
 0 602 0 602 19 621 c 128,-1,27
 38 640 38 640 64 640 c 2,28,-1
 1344 640 l 2,29,30
 1370 640 1370 640 1389 621 c 128,-1,31
 1408 602 1408 602 1408 576 c 2,16,-1
1664 960 m 2,32,-1
 1664 832 l 2,33,34
 1664 806 1664 806 1645 787 c 128,-1,35
 1626 768 1626 768 1600 768 c 2,36,-1
 64 768 l 2,37,38
 38 768 38 768 19 787 c 128,-1,39
 0 806 0 806 0 832 c 2,40,-1
 0 960 l 2,41,42
 0 986 0 986 19 1005 c 128,-1,43
 38 1024 38 1024 64 1024 c 2,44,-1
 1600 1024 l 2,45,46
 1626 1024 1626 1024 1645 1005 c 128,-1,47
 1664 986 1664 986 1664 960 c 2,32,-1
1280 1344 m 2,48,-1
 1280 1216 l 2,49,50
 1280 1190 1280 1190 1261 1171 c 128,-1,51
 1242 1152 1242 1152 1216 1152 c 2,52,-1
 64 1152 l 2,53,54
 38 1152 38 1152 19 1171 c 128,-1,55
 0 1190 0 1190 0 1216 c 2,56,-1
 0 1344 l 2,57,58
 0 1370 0 1370 19 1389 c 128,-1,59
 38 1408 38 1408 64 1408 c 2,60,-1
 1216 1408 l 2,61,62
 1242 1408 1242 1408 1261 1389 c 128,-1,63
 1280 1370 1280 1370 1280 1344 c 2,48,-1
EndSplineSet
EndChar

StartChar: align_center
Encoding: 61495 61495 79
Width: 1792
GlyphClass: 2
Flags: W
LayerCount: 2
Fore
SplineSet
1792 192 m 2,0,-1
 1792 64 l 2,1,2
 1792 38 1792 38 1773 19 c 128,-1,3
 1754 0 1754 0 1728 0 c 2,4,-1
 64 0 l 2,5,6
 38 0 38 0 19 19 c 128,-1,7
 0 38 0 38 0 64 c 2,8,-1
 0 192 l 2,9,10
 0 218 0 218 19 237 c 128,-1,11
 38 256 38 256 64 256 c 2,12,-1
 1728 256 l 2,13,14
 1754 256 1754 256 1773 237 c 128,-1,15
 1792 218 1792 218 1792 192 c 2,0,-1
1408 576 m 2,16,-1
 1408 448 l 2,17,18
 1408 422 1408 422 1389 403 c 128,-1,19
 1370 384 1370 384 1344 384 c 2,20,-1
 448 384 l 2,21,22
 422 384 422 384 403 403 c 128,-1,23
 384 422 384 422 384 448 c 2,24,-1
 384 576 l 2,25,26
 384 602 384 602 403 621 c 128,-1,27
 422 640 422 640 448 640 c 2,28,-1
 1344 640 l 2,29,30
 1370 640 1370 640 1389 621 c 128,-1,31
 1408 602 1408 602 1408 576 c 2,16,-1
1664 960 m 2,32,-1
 1664 832 l 2,33,34
 1664 806 1664 806 1645 787 c 128,-1,35
 1626 768 1626 768 1600 768 c 2,36,-1
 192 768 l 2,37,38
 166 768 166 768 147 787 c 128,-1,39
 128 806 128 806 128 832 c 2,40,-1
 128 960 l 2,41,42
 128 986 128 986 147 1005 c 128,-1,43
 166 1024 166 1024 192 1024 c 2,44,-1
 1600 1024 l 2,45,46
 1626 1024 1626 1024 1645 1005 c 128,-1,47
 1664 986 1664 986 1664 960 c 2,32,-1
1280 1344 m 2,48,-1
 1280 1216 l 2,49,50
 1280 1190 1280 1190 1261 1171 c 128,-1,51
 1242 1152 1242 1152 1216 1152 c 2,52,-1
 576 1152 l 2,53,54
 550 1152 550 1152 531 1171 c 128,-1,55
 512 1190 512 1190 512 1216 c 2,56,-1
 512 1344 l 2,57,58
 512 1370 512 1370 531 1389 c 128,-1,59
 550 1408 550 1408 576 1408 c 2,60,-1
 1216 1408 l 2,61,62
 1242 1408 1242 1408 1261 1389 c 128,-1,63
 1280 1370 1280 1370 1280 1344 c 2,48,-1
EndSplineSet
EndChar

StartChar: align_right
Encoding: 61496 61496 80
Width: 1792
GlyphClass: 2
Flags: W
LayerCount: 2
Fore
SplineSet
1792 192 m 2,0,-1
 1792 64 l 2,1,2
 1792 38 1792 38 1773 19 c 128,-1,3
 1754 0 1754 0 1728 0 c 2,4,-1
 64 0 l 2,5,6
 38 0 38 0 19 19 c 128,-1,7
 0 38 0 38 0 64 c 2,8,-1
 0 192 l 2,9,10
 0 218 0 218 19 237 c 128,-1,11
 38 256 38 256 64 256 c 2,12,-1
 1728 256 l 2,13,14
 1754 256 1754 256 1773 237 c 128,-1,15
 1792 218 1792 218 1792 192 c 2,0,-1
1792 576 m 2,16,-1
 1792 448 l 2,17,18
 1792 422 1792 422 1773 403 c 128,-1,19
 1754 384 1754 384 1728 384 c 2,20,-1
 448 384 l 2,21,22
 422 384 422 384 403 403 c 128,-1,23
 384 422 384 422 384 448 c 2,24,-1
 384 576 l 2,25,26
 384 602 384 602 403 621 c 128,-1,27
 422 640 422 640 448 640 c 2,28,-1
 1728 640 l 2,29,30
 1754 640 1754 640 1773 621 c 128,-1,31
 1792 602 1792 602 1792 576 c 2,16,-1
1792 960 m 2,32,-1
 1792 832 l 2,33,34
 1792 806 1792 806 1773 787 c 128,-1,35
 1754 768 1754 768 1728 768 c 2,36,-1
 192 768 l 2,37,38
 166 768 166 768 147 787 c 128,-1,39
 128 806 128 806 128 832 c 2,40,-1
 128 960 l 2,41,42
 128 986 128 986 147 1005 c 128,-1,43
 166 1024 166 1024 192 1024 c 2,44,-1
 1728 1024 l 2,45,46
 1754 1024 1754 1024 1773 1005 c 128,-1,47
 1792 986 1792 986 1792 960 c 2,32,-1
1792 1344 m 2,48,-1
 1792 1216 l 2,49,50
 1792 1190 1792 1190 1773 1171 c 128,-1,51
 1754 1152 1754 1152 1728 1152 c 2,52,-1
 576 1152 l 2,53,54
 550 1152 550 1152 531 1171 c 128,-1,55
 512 1190 512 1190 512 1216 c 2,56,-1
 512 1344 l 2,57,58
 512 1370 512 1370 531 1389 c 128,-1,59
 550 1408 550 1408 576 1408 c 2,60,-1
 1728 1408 l 2,61,62
 1754 1408 1754 1408 1773 1389 c 128,-1,63
 1792 1370 1792 1370 1792 1344 c 2,48,-1
EndSplineSet
EndChar

StartChar: align_justify
Encoding: 61497 61497 81
Width: 1792
GlyphClass: 2
Flags: W
LayerCount: 2
Fore
SplineSet
1792 192 m 2,0,-1
 1792 64 l 2,1,2
 1792 38 1792 38 1773 19 c 128,-1,3
 1754 0 1754 0 1728 0 c 2,4,-1
 64 0 l 2,5,6
 38 0 38 0 19 19 c 128,-1,7
 0 38 0 38 0 64 c 2,8,-1
 0 192 l 2,9,10
 0 218 0 218 19 237 c 128,-1,11
 38 256 38 256 64 256 c 2,12,-1
 1728 256 l 2,13,14
 1754 256 1754 256 1773 237 c 128,-1,15
 1792 218 1792 218 1792 192 c 2,0,-1
1792 576 m 2,16,-1
 1792 448 l 2,17,18
 1792 422 1792 422 1773 403 c 128,-1,19
 1754 384 1754 384 1728 384 c 2,20,-1
 64 384 l 2,21,22
 38 384 38 384 19 403 c 128,-1,23
 0 422 0 422 0 448 c 2,24,-1
 0 576 l 2,25,26
 0 602 0 602 19 621 c 128,-1,27
 38 640 38 640 64 640 c 2,28,-1
 1728 640 l 2,29,30
 1754 640 1754 640 1773 621 c 128,-1,31
 1792 602 1792 602 1792 576 c 2,16,-1
1792 960 m 2,32,-1
 1792 832 l 2,33,34
 1792 806 1792 806 1773 787 c 128,-1,35
 1754 768 1754 768 1728 768 c 2,36,-1
 64 768 l 2,37,38
 38 768 38 768 19 787 c 128,-1,39
 0 806 0 806 0 832 c 2,40,-1
 0 960 l 2,41,42
 0 986 0 986 19 1005 c 128,-1,43
 38 1024 38 1024 64 1024 c 2,44,-1
 1728 1024 l 2,45,46
 1754 1024 1754 1024 1773 1005 c 128,-1,47
 1792 986 1792 986 1792 960 c 2,32,-1
1792 1344 m 2,48,-1
 1792 1216 l 2,49,50
 1792 1190 1792 1190 1773 1171 c 128,-1,51
 1754 1152 1754 1152 1728 1152 c 2,52,-1
 64 1152 l 2,53,54
 38 1152 38 1152 19 1171 c 128,-1,55
 0 1190 0 1190 0 1216 c 2,56,-1
 0 1344 l 2,57,58
 0 1370 0 1370 19 1389 c 128,-1,59
 38 1408 38 1408 64 1408 c 2,60,-1
 1728 1408 l 2,61,62
 1754 1408 1754 1408 1773 1389 c 128,-1,63
 1792 1370 1792 1370 1792 1344 c 2,48,-1
EndSplineSet
EndChar

StartChar: list
Encoding: 61498 61498 82
Width: 1792
GlyphClass: 2
Flags: W
LayerCount: 2
Fore
SplineSet
256 224 m 2,0,-1
 256 32 l 2,1,2
 256 19 256 19 246.5 9.5 c 128,-1,3
 237 0 237 0 224 0 c 2,4,-1
 32 0 l 2,5,6
 19 0 19 0 9.5 9.5 c 128,-1,7
 0 19 0 19 0 32 c 2,8,-1
 0 224 l 2,9,10
 0 237 0 237 9.5 246.5 c 128,-1,11
 19 256 19 256 32 256 c 2,12,-1
 224 256 l 2,13,14
 237 256 237 256 246.5 246.5 c 128,-1,15
 256 237 256 237 256 224 c 2,0,-1
256 608 m 2,16,-1
 256 416 l 2,17,18
 256 403 256 403 246.5 393.5 c 128,-1,19
 237 384 237 384 224 384 c 2,20,-1
 32 384 l 2,21,22
 19 384 19 384 9.5 393.5 c 128,-1,23
 0 403 0 403 0 416 c 2,24,-1
 0 608 l 2,25,26
 0 621 0 621 9.5 630.5 c 128,-1,27
 19 640 19 640 32 640 c 2,28,-1
 224 640 l 2,29,30
 237 640 237 640 246.5 630.5 c 128,-1,31
 256 621 256 621 256 608 c 2,16,-1
256 992 m 2,32,-1
 256 800 l 2,33,34
 256 787 256 787 246.5 777.5 c 128,-1,35
 237 768 237 768 224 768 c 2,36,-1
 32 768 l 2,37,38
 19 768 19 768 9.5 777.5 c 128,-1,39
 0 787 0 787 0 800 c 2,40,-1
 0 992 l 2,41,42
 0 1005 0 1005 9.5 1014.5 c 128,-1,43
 19 1024 19 1024 32 1024 c 2,44,-1
 224 1024 l 2,45,46
 237 1024 237 1024 246.5 1014.5 c 128,-1,47
 256 1005 256 1005 256 992 c 2,32,-1
1792 224 m 2,48,-1
 1792 32 l 2,49,50
 1792 19 1792 19 1782.5 9.5 c 128,-1,51
 1773 0 1773 0 1760 0 c 2,52,-1
 416 0 l 2,53,54
 403 0 403 0 393.5 9.5 c 128,-1,55
 384 19 384 19 384 32 c 2,56,-1
 384 224 l 2,57,58
 384 237 384 237 393.5 246.5 c 128,-1,59
 403 256 403 256 416 256 c 2,60,-1
 1760 256 l 2,61,62
 1773 256 1773 256 1782.5 246.5 c 128,-1,63
 1792 237 1792 237 1792 224 c 2,48,-1
256 1376 m 2,64,-1
 256 1184 l 2,65,66
 256 1171 256 1171 246.5 1161.5 c 128,-1,67
 237 1152 237 1152 224 1152 c 2,68,-1
 32 1152 l 2,69,70
 19 1152 19 1152 9.5 1161.5 c 128,-1,71
 0 1171 0 1171 0 1184 c 2,72,-1
 0 1376 l 2,73,74
 0 1389 0 1389 9.5 1398.5 c 128,-1,75
 19 1408 19 1408 32 1408 c 2,76,-1
 224 1408 l 2,77,78
 237 1408 237 1408 246.5 1398.5 c 128,-1,79
 256 1389 256 1389 256 1376 c 2,64,-1
1792 608 m 2,80,-1
 1792 416 l 2,81,82
 1792 403 1792 403 1782.5 393.5 c 128,-1,83
 1773 384 1773 384 1760 384 c 2,84,-1
 416 384 l 2,85,86
 403 384 403 384 393.5 393.5 c 128,-1,87
 384 403 384 403 384 416 c 2,88,-1
 384 608 l 2,89,90
 384 621 384 621 393.5 630.5 c 128,-1,91
 403 640 403 640 416 640 c 2,92,-1
 1760 640 l 2,93,94
 1773 640 1773 640 1782.5 630.5 c 128,-1,95
 1792 621 1792 621 1792 608 c 2,80,-1
1792 992 m 2,96,-1
 1792 800 l 2,97,98
 1792 787 1792 787 1782.5 777.5 c 128,-1,99
 1773 768 1773 768 1760 768 c 2,100,-1
 416 768 l 2,101,102
 403 768 403 768 393.5 777.5 c 128,-1,103
 384 787 384 787 384 800 c 2,104,-1
 384 992 l 2,105,106
 384 1005 384 1005 393.5 1014.5 c 128,-1,107
 403 1024 403 1024 416 1024 c 2,108,-1
 1760 1024 l 2,109,110
 1773 1024 1773 1024 1782.5 1014.5 c 128,-1,111
 1792 1005 1792 1005 1792 992 c 2,96,-1
1792 1376 m 2,112,-1
 1792 1184 l 2,113,114
 1792 1171 1792 1171 1782.5 1161.5 c 128,-1,115
 1773 1152 1773 1152 1760 1152 c 2,116,-1
 416 1152 l 2,117,118
 403 1152 403 1152 393.5 1161.5 c 128,-1,119
 384 1171 384 1171 384 1184 c 2,120,-1
 384 1376 l 2,121,122
 384 1389 384 1389 393.5 1398.5 c 128,-1,123
 403 1408 403 1408 416 1408 c 2,124,-1
 1760 1408 l 2,125,126
 1773 1408 1773 1408 1782.5 1398.5 c 128,-1,127
 1792 1389 1792 1389 1792 1376 c 2,112,-1
EndSplineSet
EndChar

StartChar: indent_left
Encoding: 61499 61499 83
Width: 1792
GlyphClass: 2
Flags: W
LayerCount: 2
Fore
SplineSet
384 992 m 2,0,-1
 384 416 l 2,1,2
 384 403 384 403 374.5 393.5 c 128,-1,3
 365 384 365 384 352 384 c 0,4,5
 338 384 338 384 329 393 c 2,6,-1
 41 681 l 2,7,8
 32 690 32 690 32 704 c 128,-1,9
 32 718 32 718 41 727 c 2,10,-1
 329 1015 l 2,11,12
 338 1024 338 1024 352 1024 c 0,13,14
 365 1024 365 1024 374.5 1014.5 c 128,-1,15
 384 1005 384 1005 384 992 c 2,0,-1
1792 224 m 2,16,-1
 1792 32 l 2,17,18
 1792 19 1792 19 1782.5 9.5 c 128,-1,19
 1773 0 1773 0 1760 0 c 2,20,-1
 32 0 l 2,21,22
 19 0 19 0 9.5 9.5 c 128,-1,23
 0 19 0 19 0 32 c 2,24,-1
 0 224 l 2,25,26
 0 237 0 237 9.5 246.5 c 128,-1,27
 19 256 19 256 32 256 c 2,28,-1
 1760 256 l 2,29,30
 1773 256 1773 256 1782.5 246.5 c 128,-1,31
 1792 237 1792 237 1792 224 c 2,16,-1
1792 608 m 2,32,-1
 1792 416 l 2,33,34
 1792 403 1792 403 1782.5 393.5 c 128,-1,35
 1773 384 1773 384 1760 384 c 2,36,-1
 672 384 l 2,37,38
 659 384 659 384 649.5 393.5 c 128,-1,39
 640 403 640 403 640 416 c 2,40,-1
 640 608 l 2,41,42
 640 621 640 621 649.5 630.5 c 128,-1,43
 659 640 659 640 672 640 c 2,44,-1
 1760 640 l 2,45,46
 1773 640 1773 640 1782.5 630.5 c 128,-1,47
 1792 621 1792 621 1792 608 c 2,32,-1
1792 992 m 2,48,-1
 1792 800 l 2,49,50
 1792 787 1792 787 1782.5 777.5 c 128,-1,51
 1773 768 1773 768 1760 768 c 2,52,-1
 672 768 l 2,53,54
 659 768 659 768 649.5 777.5 c 128,-1,55
 640 787 640 787 640 800 c 2,56,-1
 640 992 l 2,57,58
 640 1005 640 1005 649.5 1014.5 c 128,-1,59
 659 1024 659 1024 672 1024 c 2,60,-1
 1760 1024 l 2,61,62
 1773 1024 1773 1024 1782.5 1014.5 c 128,-1,63
 1792 1005 1792 1005 1792 992 c 2,48,-1
1792 1376 m 2,64,-1
 1792 1184 l 2,65,66
 1792 1171 1792 1171 1782.5 1161.5 c 128,-1,67
 1773 1152 1773 1152 1760 1152 c 2,68,-1
 32 1152 l 2,69,70
 19 1152 19 1152 9.5 1161.5 c 128,-1,71
 0 1171 0 1171 0 1184 c 2,72,-1
 0 1376 l 2,73,74
 0 1389 0 1389 9.5 1398.5 c 128,-1,75
 19 1408 19 1408 32 1408 c 2,76,-1
 1760 1408 l 2,77,78
 1773 1408 1773 1408 1782.5 1398.5 c 128,-1,79
 1792 1389 1792 1389 1792 1376 c 2,64,-1
EndSplineSet
EndChar

StartChar: indent_right
Encoding: 61500 61500 84
Width: 1792
GlyphClass: 2
Flags: W
LayerCount: 2
Fore
SplineSet
352 704 m 128,-1,1
 352 690 352 690 343 681 c 2,2,-1
 55 393 l 2,3,4
 46 384 46 384 32 384 c 0,5,6
 19 384 19 384 9.5 393.5 c 128,-1,7
 0 403 0 403 0 416 c 2,8,-1
 0 992 l 2,9,10
 0 1005 0 1005 9.5 1014.5 c 128,-1,11
 19 1024 19 1024 32 1024 c 0,12,13
 46 1024 46 1024 55 1015 c 2,14,-1
 343 727 l 2,15,0
 352 718 352 718 352 704 c 128,-1,1
1792 224 m 2,16,-1
 1792 32 l 2,17,18
 1792 19 1792 19 1782.5 9.5 c 128,-1,19
 1773 0 1773 0 1760 0 c 2,20,-1
 32 0 l 2,21,22
 19 0 19 0 9.5 9.5 c 128,-1,23
 0 19 0 19 0 32 c 2,24,-1
 0 224 l 2,25,26
 0 237 0 237 9.5 246.5 c 128,-1,27
 19 256 19 256 32 256 c 2,28,-1
 1760 256 l 2,29,30
 1773 256 1773 256 1782.5 246.5 c 128,-1,31
 1792 237 1792 237 1792 224 c 2,16,-1
1792 608 m 2,32,-1
 1792 416 l 2,33,34
 1792 403 1792 403 1782.5 393.5 c 128,-1,35
 1773 384 1773 384 1760 384 c 2,36,-1
 672 384 l 2,37,38
 659 384 659 384 649.5 393.5 c 128,-1,39
 640 403 640 403 640 416 c 2,40,-1
 640 608 l 2,41,42
 640 621 640 621 649.5 630.5 c 128,-1,43
 659 640 659 640 672 640 c 2,44,-1
 1760 640 l 2,45,46
 1773 640 1773 640 1782.5 630.5 c 128,-1,47
 1792 621 1792 621 1792 608 c 2,32,-1
1792 992 m 2,48,-1
 1792 800 l 2,49,50
 1792 787 1792 787 1782.5 777.5 c 128,-1,51
 1773 768 1773 768 1760 768 c 2,52,-1
 672 768 l 2,53,54
 659 768 659 768 649.5 777.5 c 128,-1,55
 640 787 640 787 640 800 c 2,56,-1
 640 992 l 2,57,58
 640 1005 640 1005 649.5 1014.5 c 128,-1,59
 659 1024 659 1024 672 1024 c 2,60,-1
 1760 1024 l 2,61,62
 1773 1024 1773 1024 1782.5 1014.5 c 128,-1,63
 1792 1005 1792 1005 1792 992 c 2,48,-1
1792 1376 m 2,64,-1
 1792 1184 l 2,65,66
 1792 1171 1792 1171 1782.5 1161.5 c 128,-1,67
 1773 1152 1773 1152 1760 1152 c 2,68,-1
 32 1152 l 2,69,70
 19 1152 19 1152 9.5 1161.5 c 128,-1,71
 0 1171 0 1171 0 1184 c 2,72,-1
 0 1376 l 2,73,74
 0 1389 0 1389 9.5 1398.5 c 128,-1,75
 19 1408 19 1408 32 1408 c 2,76,-1
 1760 1408 l 2,77,78
 1773 1408 1773 1408 1782.5 1398.5 c 128,-1,79
 1792 1389 1792 1389 1792 1376 c 2,64,-1
EndSplineSet
EndChar

StartChar: facetime_video
Encoding: 61501 61501 85
Width: 1792
GlyphClass: 2
Flags: W
LayerCount: 2
Fore
SplineSet
1792 1184 m 2,0,-1
 1792 96 l 2,1,2
 1792 54 1792 54 1753 37 c 0,3,4
 1740 32 1740 32 1728 32 c 0,5,6
 1701 32 1701 32 1683 51 c 2,7,-1
 1280 454 l 1,8,-1
 1280 288 l 2,9,10
 1280 169 1280 169 1195.5 84.5 c 128,-1,11
 1111 0 1111 0 992 0 c 2,12,-1
 288 0 l 2,13,14
 169 0 169 0 84.5 84.5 c 128,-1,15
 0 169 0 169 0 288 c 2,16,-1
 0 992 l 2,17,18
 0 1111 0 1111 84.5 1195.5 c 128,-1,19
 169 1280 169 1280 288 1280 c 2,20,-1
 992 1280 l 2,21,22
 1111 1280 1111 1280 1195.5 1195.5 c 128,-1,23
 1280 1111 1280 1111 1280 992 c 2,24,-1
 1280 827 l 1,25,-1
 1683 1229 l 2,26,27
 1701 1248 1701 1248 1728 1248 c 0,28,29
 1740 1248 1740 1248 1753 1243 c 0,30,31
 1792 1226 1792 1226 1792 1184 c 2,0,-1
EndSplineSet
EndChar

StartChar: picture
Encoding: 61502 61502 86
Width: 1920
GlyphClass: 2
Flags: W
LayerCount: 2
Fore
SplineSet
640 960 m 128,-1,1
 640 880 640 880 584 824 c 128,-1,2
 528 768 528 768 448 768 c 128,-1,3
 368 768 368 768 312 824 c 128,-1,4
 256 880 256 880 256 960 c 128,-1,5
 256 1040 256 1040 312 1096 c 128,-1,6
 368 1152 368 1152 448 1152 c 128,-1,7
 528 1152 528 1152 584 1096 c 128,-1,0
 640 1040 640 1040 640 960 c 128,-1,1
1664 576 m 1,8,-1
 1664 128 l 1,9,-1
 256 128 l 1,10,-1
 256 320 l 1,11,-1
 576 640 l 1,12,-1
 736 480 l 1,13,-1
 1248 992 l 1,14,-1
 1664 576 l 1,8,-1
1760 1280 m 2,15,-1
 160 1280 l 2,16,17
 147 1280 147 1280 137.5 1270.5 c 128,-1,18
 128 1261 128 1261 128 1248 c 2,19,-1
 128 32 l 2,20,21
 128 19 128 19 137.5 9.5 c 128,-1,22
 147 0 147 0 160 0 c 2,23,-1
 1760 0 l 2,24,25
 1773 0 1773 0 1782.5 9.5 c 128,-1,26
 1792 19 1792 19 1792 32 c 2,27,-1
 1792 1248 l 2,28,29
 1792 1261 1792 1261 1782.5 1270.5 c 128,-1,30
 1773 1280 1773 1280 1760 1280 c 2,15,-1
1920 1248 m 2,31,-1
 1920 32 l 2,32,33
 1920 -34 1920 -34 1873 -81 c 128,-1,34
 1826 -128 1826 -128 1760 -128 c 2,35,-1
 160 -128 l 2,36,37
 94 -128 94 -128 47 -81 c 128,-1,38
 0 -34 0 -34 0 32 c 2,39,-1
 0 1248 l 2,40,41
 0 1314 0 1314 47 1361 c 128,-1,42
 94 1408 94 1408 160 1408 c 2,43,-1
 1760 1408 l 2,44,45
 1826 1408 1826 1408 1873 1361 c 128,-1,46
 1920 1314 1920 1314 1920 1248 c 2,31,-1
EndSplineSet
EndChar

StartChar: pencil
Encoding: 61504 61504 87
Width: 1536
GlyphClass: 2
Flags: W
LayerCount: 2
Fore
SplineSet
363 0 m 1,0,-1
 454 91 l 1,1,-1
 219 326 l 1,2,-1
 128 235 l 1,3,-1
 128 128 l 1,4,-1
 256 128 l 1,5,-1
 256 0 l 1,6,-1
 363 0 l 1,0,-1
886 928 m 0,7,8
 886 950 886 950 864 950 c 0,9,10
 854 950 854 950 847 943 c 2,11,-1
 305 401 l 2,12,13
 298 394 298 394 298 384 c 0,14,15
 298 362 298 362 320 362 c 0,16,17
 330 362 330 362 337 369 c 2,18,-1
 879 911 l 2,19,20
 886 918 886 918 886 928 c 0,7,8
832 1120 m 1,21,-1
 1248 704 l 1,22,-1
 416 -128 l 1,23,-1
 0 -128 l 1,24,-1
 0 288 l 1,25,-1
 832 1120 l 1,21,-1
1515 1024 m 0,26,27
 1515 971 1515 971 1478 934 c 2,28,-1
 1312 768 l 1,29,-1
 896 1184 l 1,30,-1
 1062 1349 l 1,31,32
 1098 1387 1098 1387 1152 1387 c 0,33,34
 1205 1387 1205 1387 1243 1349 c 2,35,-1
 1478 1115 l 1,36,37
 1515 1076 1515 1076 1515 1024 c 0,26,27
EndSplineSet
EndChar

StartChar: map_marker
Encoding: 61505 61505 88
Width: 1024
GlyphClass: 2
Flags: W
LayerCount: 2
Fore
SplineSet
768 896 m 128,-1,1
 768 1002 768 1002 693 1077 c 128,-1,2
 618 1152 618 1152 512 1152 c 128,-1,3
 406 1152 406 1152 331 1077 c 128,-1,4
 256 1002 256 1002 256 896 c 128,-1,5
 256 790 256 790 331 715 c 128,-1,6
 406 640 406 640 512 640 c 128,-1,7
 618 640 618 640 693 715 c 128,-1,0
 768 790 768 790 768 896 c 128,-1,1
1024 896 m 0,8,9
 1024 787 1024 787 991 717 c 2,10,-1
 627 -57 l 2,11,12
 611 -90 611 -90 579.5 -109 c 128,-1,13
 548 -128 548 -128 512 -128 c 128,-1,14
 476 -128 476 -128 444.5 -109 c 128,-1,15
 413 -90 413 -90 398 -57 c 2,16,-1
 33 717 l 2,17,18
 0 787 0 787 0 896 c 0,19,20
 0 1108 0 1108 150 1258 c 128,-1,21
 300 1408 300 1408 512 1408 c 128,-1,22
 724 1408 724 1408 874 1258 c 128,-1,23
 1024 1108 1024 1108 1024 896 c 0,8,9
EndSplineSet
EndChar

StartChar: adjust
Encoding: 61506 61506 89
Width: 1536
GlyphClass: 2
Flags: W
LayerCount: 2
Fore
SplineSet
768 96 m 1,0,-1
 768 1184 l 1,1,2
 620 1184 620 1184 495 1111 c 128,-1,3
 370 1038 370 1038 297 913 c 128,-1,4
 224 788 224 788 224 640 c 128,-1,5
 224 492 224 492 297 367 c 128,-1,6
 370 242 370 242 495 169 c 128,-1,7
 620 96 620 96 768 96 c 1,0,-1
1536 640 m 128,-1,9
 1536 431 1536 431 1433 254.5 c 128,-1,10
 1330 78 1330 78 1153.5 -25 c 128,-1,11
 977 -128 977 -128 768 -128 c 128,-1,12
 559 -128 559 -128 382.5 -25 c 128,-1,13
 206 78 206 78 103 254.5 c 128,-1,14
 0 431 0 431 0 640 c 128,-1,15
 0 849 0 849 103 1025.5 c 128,-1,16
 206 1202 206 1202 382.5 1305 c 128,-1,17
 559 1408 559 1408 768 1408 c 128,-1,18
 977 1408 977 1408 1153.5 1305 c 128,-1,19
 1330 1202 1330 1202 1433 1025.5 c 128,-1,8
 1536 849 1536 849 1536 640 c 128,-1,9
EndSplineSet
EndChar

StartChar: tint
Encoding: 61507 61507 90
Width: 1024
GlyphClass: 2
Flags: W
LayerCount: 2
Fore
SplineSet
512 384 m 0,0,1
 512 420 512 420 492 453 c 0,2,3
 491 454 491 454 476.5 475.5 c 128,-1,4
 462 497 462 497 451 513.5 c 128,-1,5
 440 530 440 530 426 557.5 c 128,-1,6
 412 585 412 585 405 608 c 0,7,8
 401 624 401 624 384 624 c 128,-1,9
 367 624 367 624 363 608 c 0,10,11
 356 585 356 585 342 557.5 c 128,-1,12
 328 530 328 530 317 513.5 c 128,-1,13
 306 497 306 497 291.5 475.5 c 128,-1,14
 277 454 277 454 276 453 c 0,15,16
 256 420 256 420 256 384 c 0,17,18
 256 331 256 331 293.5 293.5 c 128,-1,19
 331 256 331 256 384 256 c 128,-1,20
 437 256 437 256 474.5 293.5 c 128,-1,21
 512 331 512 331 512 384 c 0,0,1
1024 512 m 0,22,23
 1024 300 1024 300 874 150 c 128,-1,24
 724 0 724 0 512 0 c 128,-1,25
 300 0 300 0 150 150 c 128,-1,26
 0 300 0 300 0 512 c 0,27,28
 0 657 0 657 81 787 c 0,29,30
 87 796 87 796 143.5 877.5 c 128,-1,31
 200 959 200 959 244.5 1028.5 c 128,-1,32
 289 1098 289 1098 344 1206.5 c 128,-1,33
 399 1315 399 1315 427 1408 c 0,34,35
 436 1438 436 1438 461 1455 c 128,-1,36
 486 1472 486 1472 512 1472 c 128,-1,37
 538 1472 538 1472 563.5 1455 c 128,-1,38
 589 1438 589 1438 597 1408 c 0,39,40
 625 1315 625 1315 680 1206.5 c 128,-1,41
 735 1098 735 1098 779.5 1028.5 c 128,-1,42
 824 959 824 959 880.5 877.5 c 128,-1,43
 937 796 937 796 943 787 c 0,44,45
 1024 660 1024 660 1024 512 c 0,22,23
EndSplineSet
EndChar

StartChar: edit
Encoding: 61508 61508 91
Width: 1792
GlyphClass: 2
Flags: W
LayerCount: 2
Fore
SplineSet
888 352 m 1,0,-1
 1004 468 l 1,1,-1
 852 620 l 1,2,-1
 736 504 l 1,3,-1
 736 448 l 1,4,-1
 832 448 l 1,5,-1
 832 352 l 1,6,-1
 888 352 l 1,0,-1
1328 1072 m 128,-1,8
 1312 1088 1312 1088 1295 1071 c 2,9,-1
 945 721 l 2,10,11
 928 704 928 704 944 688 c 128,-1,12
 960 672 960 672 977 689 c 2,13,-1
 1327 1039 l 2,14,7
 1344 1056 1344 1056 1328 1072 c 128,-1,8
1408 478 m 2,15,-1
 1408 288 l 2,16,17
 1408 169 1408 169 1323.5 84.5 c 128,-1,18
 1239 0 1239 0 1120 0 c 2,19,-1
 288 0 l 2,20,21
 169 0 169 0 84.5 84.5 c 128,-1,22
 0 169 0 169 0 288 c 2,23,-1
 0 1120 l 2,24,25
 0 1239 0 1239 84.5 1323.5 c 128,-1,26
 169 1408 169 1408 288 1408 c 2,27,-1
 1120 1408 l 2,28,29
 1183 1408 1183 1408 1237 1383 c 0,30,31
 1252 1376 1252 1376 1255 1360 c 0,32,33
 1258 1343 1258 1343 1246 1331 c 2,34,-1
 1197 1282 l 2,35,36
 1183 1268 1183 1268 1165 1274 c 1,37,38
 1142 1280 1142 1280 1120 1280 c 2,39,-1
 288 1280 l 2,40,41
 222 1280 222 1280 175 1233 c 128,-1,42
 128 1186 128 1186 128 1120 c 2,43,-1
 128 288 l 2,44,45
 128 222 128 222 175 175 c 128,-1,46
 222 128 222 128 288 128 c 2,47,-1
 1120 128 l 2,48,49
 1186 128 1186 128 1233 175 c 128,-1,50
 1280 222 1280 222 1280 288 c 2,51,-1
 1280 414 l 2,52,53
 1280 427 1280 427 1289 436 c 2,54,-1
 1353 500 l 2,55,56
 1368 515 1368 515 1388 507 c 128,-1,57
 1408 499 1408 499 1408 478 c 2,15,-1
1312 1216 m 1,58,-1
 1600 928 l 1,59,-1
 928 256 l 1,60,-1
 640 256 l 1,61,-1
 640 544 l 1,62,-1
 1312 1216 l 1,58,-1
1756 1084 m 2,63,-1
 1664 992 l 1,64,-1
 1376 1280 l 1,65,-1
 1468 1372 l 2,66,67
 1496 1400 1496 1400 1536 1400 c 128,-1,68
 1576 1400 1576 1400 1604 1372 c 2,69,-1
 1756 1220 l 2,70,71
 1784 1192 1784 1192 1784 1152 c 128,-1,72
 1784 1112 1784 1112 1756 1084 c 2,63,-1
EndSplineSet
EndChar

StartChar: share
Encoding: 61509 61509 92
Width: 1664
GlyphClass: 2
Flags: W
LayerCount: 2
Fore
SplineSet
1408 547 m 2,0,-1
 1408 288 l 2,1,2
 1408 169 1408 169 1323.5 84.5 c 128,-1,3
 1239 0 1239 0 1120 0 c 2,4,-1
 288 0 l 2,5,6
 169 0 169 0 84.5 84.5 c 128,-1,7
 0 169 0 169 0 288 c 2,8,-1
 0 1120 l 2,9,10
 0 1239 0 1239 84.5 1323.5 c 128,-1,11
 169 1408 169 1408 288 1408 c 2,12,-1
 543 1408 l 1,13,-1
 543 1408 l 1,14,15
 556 1408 556 1408 565.5 1398.5 c 128,-1,16
 575 1389 575 1389 575 1376 c 0,17,18
 575 1349 575 1349 549 1344 c 1,19,20
 472 1318 472 1318 416 1284 c 1,21,22
 406 1280 406 1280 400 1280 c 2,23,-1
 288 1280 l 2,24,25
 222 1280 222 1280 175 1233 c 128,-1,26
 128 1186 128 1186 128 1120 c 2,27,-1
 128 288 l 2,28,29
 128 222 128 222 175 175 c 128,-1,30
 222 128 222 128 288 128 c 2,31,-1
 1120 128 l 2,32,33
 1186 128 1186 128 1233 175 c 128,-1,34
 1280 222 1280 222 1280 288 c 2,35,-1
 1280 502 l 2,36,37
 1280 521 1280 521 1298 531 c 1,38,39
 1326 544 1326 544 1352 568 c 0,40,41
 1368 584 1368 584 1387 576 c 0,42,43
 1408 567 1408 567 1408 547 c 2,0,-1
1645 1043 m 2,44,-1
 1261 659 l 2,45,46
 1243 640 1243 640 1216 640 c 0,47,48
 1204 640 1204 640 1191 645 c 0,49,50
 1152 662 1152 662 1152 704 c 2,51,-1
 1152 896 l 1,52,-1
 992 896 l 2,53,54
 669 896 669 896 554 765 c 0,55,56
 435 628 435 628 480 292 c 0,57,58
 483 269 483 269 460 258 c 1,59,60
 452 256 452 256 448 256 c 0,61,62
 432 256 432 256 422 269 c 0,63,64
 412 283 412 283 401 300 c 128,-1,65
 390 317 390 317 361.5 368.5 c 128,-1,66
 333 420 333 420 312 468 c 128,-1,67
 291 516 291 516 273.5 582 c 128,-1,68
 256 648 256 648 256 704 c 0,69,70
 256 753 256 753 259.5 795 c 128,-1,71
 263 837 263 837 273.5 885 c 128,-1,72
 284 933 284 933 301.5 973 c 128,-1,73
 319 1013 319 1013 348.5 1054.5 c 128,-1,74
 378 1096 378 1096 417 1128.5 c 128,-1,75
 456 1161 456 1161 511.5 1190 c 128,-1,76
 567 1219 567 1219 636 1238.5 c 128,-1,77
 705 1258 705 1258 795.5 1269 c 128,-1,78
 886 1280 886 1280 992 1280 c 2,79,-1
 1152 1280 l 1,80,-1
 1152 1472 l 2,81,82
 1152 1514 1152 1514 1191 1531 c 0,83,84
 1204 1536 1204 1536 1216 1536 c 0,85,86
 1242 1536 1242 1536 1261 1517 c 2,87,-1
 1645 1133 l 2,88,89
 1664 1114 1664 1114 1664 1088 c 128,-1,90
 1664 1062 1664 1062 1645 1043 c 2,44,-1
EndSplineSet
EndChar

StartChar: check
Encoding: 61510 61510 93
Width: 1664
GlyphClass: 2
Flags: W
LayerCount: 2
Fore
SplineSet
1408 606 m 2,0,-1
 1408 288 l 2,1,2
 1408 169 1408 169 1323.5 84.5 c 128,-1,3
 1239 0 1239 0 1120 0 c 2,4,-1
 288 0 l 2,5,6
 169 0 169 0 84.5 84.5 c 128,-1,7
 0 169 0 169 0 288 c 2,8,-1
 0 1120 l 2,9,10
 0 1239 0 1239 84.5 1323.5 c 128,-1,11
 169 1408 169 1408 288 1408 c 2,12,-1
 1120 1408 l 2,13,14
 1183 1408 1183 1408 1237 1383 c 0,15,16
 1252 1376 1252 1376 1255 1360 c 0,17,18
 1258 1343 1258 1343 1246 1331 c 2,19,-1
 1197 1282 l 2,20,21
 1187 1272 1187 1272 1174 1272 c 0,22,23
 1171 1272 1171 1272 1165 1274 c 0,24,25
 1142 1280 1142 1280 1120 1280 c 2,26,-1
 288 1280 l 2,27,28
 222 1280 222 1280 175 1233 c 128,-1,29
 128 1186 128 1186 128 1120 c 2,30,-1
 128 288 l 2,31,32
 128 222 128 222 175 175 c 128,-1,33
 222 128 222 128 288 128 c 2,34,-1
 1120 128 l 2,35,36
 1186 128 1186 128 1233 175 c 128,-1,37
 1280 222 1280 222 1280 288 c 2,38,-1
 1280 542 l 2,39,40
 1280 555 1280 555 1289 564 c 2,41,-1
 1353 628 l 2,42,43
 1363 638 1363 638 1376 638 c 0,44,45
 1382 638 1382 638 1388 635 c 0,46,47
 1408 627 1408 627 1408 606 c 2,0,-1
1639 1095 m 2,48,-1
 825 281 l 2,49,50
 801 257 801 257 768 257 c 128,-1,51
 735 257 735 257 711 281 c 2,52,-1
 281 711 l 2,53,54
 257 735 257 735 257 768 c 128,-1,55
 257 801 257 801 281 825 c 2,56,-1
 391 935 l 2,57,58
 415 959 415 959 448 959 c 128,-1,59
 481 959 481 959 505 935 c 2,60,-1
 768 672 l 1,61,-1
 1415 1319 l 2,62,63
 1439 1343 1439 1343 1472 1343 c 128,-1,64
 1505 1343 1505 1343 1529 1319 c 2,65,-1
 1639 1209 l 2,66,67
 1663 1185 1663 1185 1663 1152 c 128,-1,68
 1663 1119 1663 1119 1639 1095 c 2,48,-1
EndSplineSet
EndChar

StartChar: move
Encoding: 61511 61511 94
Width: 1792
GlyphClass: 2
Flags: W
LayerCount: 2
Fore
SplineSet
1792 640 m 128,-1,1
 1792 614 1792 614 1773 595 c 2,2,-1
 1517 339 l 2,3,4
 1498 320 1498 320 1472 320 c 128,-1,5
 1446 320 1446 320 1427 339 c 128,-1,6
 1408 358 1408 358 1408 384 c 2,7,-1
 1408 512 l 1,8,-1
 1024 512 l 1,9,-1
 1024 128 l 1,10,-1
 1152 128 l 2,11,12
 1178 128 1178 128 1197 109 c 128,-1,13
 1216 90 1216 90 1216 64 c 128,-1,14
 1216 38 1216 38 1197 19 c 2,15,-1
 941 -237 l 2,16,17
 922 -256 922 -256 896 -256 c 128,-1,18
 870 -256 870 -256 851 -237 c 2,19,-1
 595 19 l 2,20,21
 576 38 576 38 576 64 c 128,-1,22
 576 90 576 90 595 109 c 128,-1,23
 614 128 614 128 640 128 c 2,24,-1
 768 128 l 1,25,-1
 768 512 l 1,26,-1
 384 512 l 1,27,-1
 384 384 l 2,28,29
 384 358 384 358 365 339 c 128,-1,30
 346 320 346 320 320 320 c 128,-1,31
 294 320 294 320 275 339 c 2,32,-1
 19 595 l 2,33,34
 0 614 0 614 0 640 c 128,-1,35
 0 666 0 666 19 685 c 2,36,-1
 275 941 l 2,37,38
 294 960 294 960 320 960 c 128,-1,39
 346 960 346 960 365 941 c 128,-1,40
 384 922 384 922 384 896 c 2,41,-1
 384 768 l 1,42,-1
 768 768 l 1,43,-1
 768 1152 l 1,44,-1
 640 1152 l 2,45,46
 614 1152 614 1152 595 1171 c 128,-1,47
 576 1190 576 1190 576 1216 c 128,-1,48
 576 1242 576 1242 595 1261 c 2,49,-1
 851 1517 l 2,50,51
 870 1536 870 1536 896 1536 c 128,-1,52
 922 1536 922 1536 941 1517 c 2,53,-1
 1197 1261 l 2,54,55
 1216 1242 1216 1242 1216 1216 c 128,-1,56
 1216 1190 1216 1190 1197 1171 c 128,-1,57
 1178 1152 1178 1152 1152 1152 c 2,58,-1
 1024 1152 l 1,59,-1
 1024 768 l 1,60,-1
 1408 768 l 1,61,-1
 1408 896 l 2,62,63
 1408 922 1408 922 1427 941 c 128,-1,64
 1446 960 1446 960 1472 960 c 128,-1,65
 1498 960 1498 960 1517 941 c 2,66,-1
 1773 685 l 2,67,0
 1792 666 1792 666 1792 640 c 128,-1,1
EndSplineSet
EndChar

StartChar: step_backward
Encoding: 61512 61512 95
Width: 1024
GlyphClass: 2
Flags: W
LayerCount: 2
Fore
SplineSet
979 1395 m 2,0,1
 998 1414 998 1414 1011 1408 c 128,-1,2
 1024 1402 1024 1402 1024 1376 c 2,3,-1
 1024 -96 l 2,4,5
 1024 -122 1024 -122 1011 -128 c 128,-1,6
 998 -134 998 -134 979 -115 c 2,7,-1
 269 595 l 2,8,9
 260 604 260 604 256 614 c 1,10,-1
 256 -64 l 2,11,12
 256 -90 256 -90 237 -109 c 128,-1,13
 218 -128 218 -128 192 -128 c 2,14,-1
 64 -128 l 2,15,16
 38 -128 38 -128 19 -109 c 128,-1,17
 0 -90 0 -90 0 -64 c 2,18,-1
 0 1344 l 2,19,20
 0 1370 0 1370 19 1389 c 128,-1,21
 38 1408 38 1408 64 1408 c 2,22,-1
 192 1408 l 2,23,24
 218 1408 218 1408 237 1389 c 128,-1,25
 256 1370 256 1370 256 1344 c 2,26,-1
 256 666 l 1,27,28
 260 677 260 677 269 685 c 2,29,-1
 979 1395 l 2,0,1
EndSplineSet
EndChar

StartChar: fast_backward
Encoding: 61513 61513 96
Width: 1792
GlyphClass: 2
Flags: W
LayerCount: 2
Fore
SplineSet
1747 1395 m 2,0,1
 1766 1414 1766 1414 1779 1408 c 128,-1,2
 1792 1402 1792 1402 1792 1376 c 2,3,-1
 1792 -96 l 2,4,5
 1792 -122 1792 -122 1779 -128 c 128,-1,6
 1766 -134 1766 -134 1747 -115 c 2,7,-1
 1037 595 l 2,8,9
 1028 604 1028 604 1024 614 c 1,10,-1
 1024 -96 l 2,11,12
 1024 -122 1024 -122 1011 -128 c 128,-1,13
 998 -134 998 -134 979 -115 c 2,14,-1
 269 595 l 2,15,16
 260 604 260 604 256 614 c 1,17,-1
 256 -64 l 2,18,19
 256 -90 256 -90 237 -109 c 128,-1,20
 218 -128 218 -128 192 -128 c 2,21,-1
 64 -128 l 2,22,23
 38 -128 38 -128 19 -109 c 128,-1,24
 0 -90 0 -90 0 -64 c 2,25,-1
 0 1344 l 2,26,27
 0 1370 0 1370 19 1389 c 128,-1,28
 38 1408 38 1408 64 1408 c 2,29,-1
 192 1408 l 2,30,31
 218 1408 218 1408 237 1389 c 128,-1,32
 256 1370 256 1370 256 1344 c 2,33,-1
 256 666 l 1,34,35
 260 677 260 677 269 685 c 2,36,-1
 979 1395 l 2,37,38
 998 1414 998 1414 1011 1408 c 128,-1,39
 1024 1402 1024 1402 1024 1376 c 2,40,-1
 1024 666 l 1,41,42
 1028 677 1028 677 1037 685 c 2,43,-1
 1747 1395 l 2,0,1
EndSplineSet
EndChar

StartChar: backward
Encoding: 61514 61514 97
Width: 1664
GlyphClass: 2
Flags: W
LayerCount: 2
Fore
SplineSet
1619 1395 m 2,0,1
 1638 1414 1638 1414 1651 1408 c 128,-1,2
 1664 1402 1664 1402 1664 1376 c 2,3,-1
 1664 -96 l 2,4,5
 1664 -122 1664 -122 1651 -128 c 128,-1,6
 1638 -134 1638 -134 1619 -115 c 2,7,-1
 909 595 l 2,8,9
 901 604 901 604 896 614 c 1,10,-1
 896 -96 l 2,11,12
 896 -122 896 -122 883 -128 c 128,-1,13
 870 -134 870 -134 851 -115 c 2,14,-1
 141 595 l 2,15,16
 122 614 122 614 122 640 c 128,-1,17
 122 666 122 666 141 685 c 2,18,-1
 851 1395 l 2,19,20
 870 1414 870 1414 883 1408 c 128,-1,21
 896 1402 896 1402 896 1376 c 2,22,-1
 896 666 l 1,23,24
 901 677 901 677 909 685 c 2,25,-1
 1619 1395 l 2,0,1
EndSplineSet
EndChar

StartChar: play
Encoding: 61515 61515 98
Width: 1408
GlyphClass: 2
Flags: W
LayerCount: 2
Fore
SplineSet
1384 609 m 2,0,-1
 56 -129 l 2,1,2
 33 -142 33 -142 16.5 -132 c 128,-1,3
 0 -122 0 -122 0 -96 c 2,4,-1
 0 1376 l 2,5,6
 0 1402 0 1402 16.5 1412 c 128,-1,7
 33 1422 33 1422 56 1409 c 2,8,-1
 1384 671 l 2,9,10
 1407 658 1407 658 1407 640 c 128,-1,11
 1407 622 1407 622 1384 609 c 2,0,-1
EndSplineSet
EndChar

StartChar: pause
Encoding: 61516 61516 99
Width: 1536
GlyphClass: 2
Flags: W
LayerCount: 2
Fore
SplineSet
1536 1344 m 2,0,-1
 1536 -64 l 2,1,2
 1536 -90 1536 -90 1517 -109 c 128,-1,3
 1498 -128 1498 -128 1472 -128 c 2,4,-1
 960 -128 l 2,5,6
 934 -128 934 -128 915 -109 c 128,-1,7
 896 -90 896 -90 896 -64 c 2,8,-1
 896 1344 l 2,9,10
 896 1370 896 1370 915 1389 c 128,-1,11
 934 1408 934 1408 960 1408 c 2,12,-1
 1472 1408 l 2,13,14
 1498 1408 1498 1408 1517 1389 c 128,-1,15
 1536 1370 1536 1370 1536 1344 c 2,0,-1
640 1344 m 2,16,-1
 640 -64 l 2,17,18
 640 -90 640 -90 621 -109 c 128,-1,19
 602 -128 602 -128 576 -128 c 2,20,-1
 64 -128 l 2,21,22
 38 -128 38 -128 19 -109 c 128,-1,23
 0 -90 0 -90 0 -64 c 2,24,-1
 0 1344 l 2,25,26
 0 1370 0 1370 19 1389 c 128,-1,27
 38 1408 38 1408 64 1408 c 2,28,-1
 576 1408 l 2,29,30
 602 1408 602 1408 621 1389 c 128,-1,31
 640 1370 640 1370 640 1344 c 2,16,-1
EndSplineSet
EndChar

StartChar: stop
Encoding: 61517 61517 100
Width: 1536
GlyphClass: 2
Flags: W
LayerCount: 2
Fore
SplineSet
1536 1344 m 2,0,-1
 1536 -64 l 2,1,2
 1536 -90 1536 -90 1517 -109 c 128,-1,3
 1498 -128 1498 -128 1472 -128 c 2,4,-1
 64 -128 l 2,5,6
 38 -128 38 -128 19 -109 c 128,-1,7
 0 -90 0 -90 0 -64 c 2,8,-1
 0 1344 l 2,9,10
 0 1370 0 1370 19 1389 c 128,-1,11
 38 1408 38 1408 64 1408 c 2,12,-1
 1472 1408 l 2,13,14
 1498 1408 1498 1408 1517 1389 c 128,-1,15
 1536 1370 1536 1370 1536 1344 c 2,0,-1
EndSplineSet
EndChar

StartChar: forward
Encoding: 61518 61518 101
Width: 1664
GlyphClass: 2
Flags: W
LayerCount: 2
Fore
SplineSet
45 -115 m 2,0,1
 26 -134 26 -134 13 -128 c 128,-1,2
 0 -122 0 -122 0 -96 c 2,3,-1
 0 1376 l 2,4,5
 0 1402 0 1402 13 1408 c 128,-1,6
 26 1414 26 1414 45 1395 c 2,7,-1
 755 685 l 2,8,9
 763 677 763 677 768 666 c 1,10,-1
 768 1376 l 2,11,12
 768 1402 768 1402 781 1408 c 128,-1,13
 794 1414 794 1414 813 1395 c 2,14,-1
 1523 685 l 2,15,16
 1542 666 1542 666 1542 640 c 128,-1,17
 1542 614 1542 614 1523 595 c 2,18,-1
 813 -115 l 2,19,20
 794 -134 794 -134 781 -128 c 128,-1,21
 768 -122 768 -122 768 -96 c 2,22,-1
 768 614 l 1,23,24
 763 604 763 604 755 595 c 2,25,-1
 45 -115 l 2,0,1
EndSplineSet
EndChar

StartChar: fast_forward
Encoding: 61520 61520 102
Width: 1792
GlyphClass: 2
Flags: W
LayerCount: 2
Fore
SplineSet
45 -115 m 2,0,1
 26 -134 26 -134 13 -128 c 128,-1,2
 0 -122 0 -122 0 -96 c 2,3,-1
 0 1376 l 2,4,5
 0 1402 0 1402 13 1408 c 128,-1,6
 26 1414 26 1414 45 1395 c 2,7,-1
 755 685 l 2,8,9
 763 677 763 677 768 666 c 1,10,-1
 768 1376 l 2,11,12
 768 1402 768 1402 781 1408 c 128,-1,13
 794 1414 794 1414 813 1395 c 2,14,-1
 1523 685 l 2,15,16
 1531 677 1531 677 1536 666 c 1,17,-1
 1536 1344 l 2,18,19
 1536 1370 1536 1370 1555 1389 c 128,-1,20
 1574 1408 1574 1408 1600 1408 c 2,21,-1
 1728 1408 l 2,22,23
 1754 1408 1754 1408 1773 1389 c 128,-1,24
 1792 1370 1792 1370 1792 1344 c 2,25,-1
 1792 -64 l 2,26,27
 1792 -90 1792 -90 1773 -109 c 128,-1,28
 1754 -128 1754 -128 1728 -128 c 2,29,-1
 1600 -128 l 2,30,31
 1574 -128 1574 -128 1555 -109 c 128,-1,32
 1536 -90 1536 -90 1536 -64 c 2,33,-1
 1536 614 l 1,34,35
 1531 604 1531 604 1523 595 c 2,36,-1
 813 -115 l 2,37,38
 794 -134 794 -134 781 -128 c 128,-1,39
 768 -122 768 -122 768 -96 c 2,40,-1
 768 614 l 1,41,42
 763 604 763 604 755 595 c 2,43,-1
 45 -115 l 2,0,1
EndSplineSet
EndChar

StartChar: step_forward
Encoding: 61521 61521 103
Width: 1024
GlyphClass: 2
Flags: W
LayerCount: 2
Fore
SplineSet
45 -115 m 2,0,1
 26 -134 26 -134 13 -128 c 128,-1,2
 0 -122 0 -122 0 -96 c 2,3,-1
 0 1376 l 2,4,5
 0 1402 0 1402 13 1408 c 128,-1,6
 26 1414 26 1414 45 1395 c 2,7,-1
 755 685 l 2,8,9
 763 677 763 677 768 666 c 1,10,-1
 768 1344 l 2,11,12
 768 1370 768 1370 787 1389 c 128,-1,13
 806 1408 806 1408 832 1408 c 2,14,-1
 960 1408 l 2,15,16
 986 1408 986 1408 1005 1389 c 128,-1,17
 1024 1370 1024 1370 1024 1344 c 2,18,-1
 1024 -64 l 2,19,20
 1024 -90 1024 -90 1005 -109 c 128,-1,21
 986 -128 986 -128 960 -128 c 2,22,-1
 832 -128 l 2,23,24
 806 -128 806 -128 787 -109 c 128,-1,25
 768 -90 768 -90 768 -64 c 2,26,-1
 768 614 l 1,27,28
 763 604 763 604 755 595 c 2,29,-1
 45 -115 l 2,0,1
EndSplineSet
EndChar

StartChar: eject
Encoding: 61522 61522 104
Width: 1538
GlyphClass: 2
Flags: W
LayerCount: 2
Fore
SplineSet
14 557 m 2,0,-1
 724 1267 l 2,1,2
 743 1286 743 1286 769 1286 c 128,-1,3
 795 1286 795 1286 814 1267 c 2,4,-1
 1524 557 l 2,5,6
 1543 538 1543 538 1537 525 c 128,-1,7
 1531 512 1531 512 1505 512 c 2,8,-1
 33 512 l 2,9,10
 7 512 7 512 1 525 c 128,-1,11
 -5 538 -5 538 14 557 c 2,0,-1
1473 0 m 2,12,-1
 65 0 l 2,13,14
 39 0 39 0 20 19 c 128,-1,15
 1 38 1 38 1 64 c 2,16,-1
 1 320 l 2,17,18
 1 346 1 346 20 365 c 128,-1,19
 39 384 39 384 65 384 c 2,20,-1
 1473 384 l 2,21,22
 1499 384 1499 384 1518 365 c 128,-1,23
 1537 346 1537 346 1537 320 c 2,24,-1
 1537 64 l 2,25,26
 1537 38 1537 38 1518 19 c 128,-1,27
 1499 0 1499 0 1473 0 c 2,12,-1
EndSplineSet
EndChar

StartChar: chevron_left
Encoding: 61523 61523 105
Width: 1152
GlyphClass: 2
Flags: W
LayerCount: 2
Fore
SplineSet
742 -37 m 2,0,-1
 90 614 l 2,1,2
 53 651 53 651 53 704.5 c 128,-1,3
 53 758 53 758 90 795 c 2,4,-1
 742 1446 l 2,5,6
 779 1483 779 1483 832.5 1483 c 128,-1,7
 886 1483 886 1483 923 1446 c 2,8,-1
 998 1371 l 2,9,10
 1035 1334 1035 1334 1035 1280.5 c 128,-1,11
 1035 1227 1035 1227 998 1190 c 2,12,-1
 512 704 l 1,13,-1
 998 219 l 2,14,15
 1035 181 1035 181 1035 128 c 128,-1,16
 1035 75 1035 75 998 38 c 2,17,-1
 923 -37 l 2,18,19
 886 -74 886 -74 832.5 -74 c 128,-1,20
 779 -74 779 -74 742 -37 c 2,0,-1
EndSplineSet
EndChar

StartChar: chevron_right
Encoding: 61524 61524 106
Width: 1152
GlyphClass: 2
Flags: W
LayerCount: 2
Fore
SplineSet
1099 704 m 0,0,1
 1099 652 1099 652 1062 613 c 1,2,-1
 410 -38 l 2,3,4
 373 -75 373 -75 320 -75 c 128,-1,5
 267 -75 267 -75 230 -38 c 2,6,-1
 154 37 l 1,7,8
 117 76 117 76 117 128 c 0,9,10
 117 181 117 181 154 218 c 2,11,-1
 640 704 l 1,12,-1
 154 1189 l 1,13,14
 117 1228 117 1228 117 1280 c 0,15,16
 117 1333 117 1333 154 1370 c 2,17,-1
 230 1445 l 1,18,19
 266 1483 266 1483 320 1483 c 128,-1,20
 374 1483 374 1483 410 1445 c 1,21,-1
 1062 794 l 2,22,23
 1099 757 1099 757 1099 704 c 0,0,1
EndSplineSet
EndChar

StartChar: plus_sign
Encoding: 61525 61525 107
Width: 1536
GlyphClass: 2
Flags: W
LayerCount: 2
Fore
SplineSet
1216 576 m 2,0,-1
 1216 704 l 2,1,2
 1216 730 1216 730 1197 749 c 128,-1,3
 1178 768 1178 768 1152 768 c 2,4,-1
 896 768 l 1,5,-1
 896 1024 l 2,6,7
 896 1050 896 1050 877 1069 c 128,-1,8
 858 1088 858 1088 832 1088 c 2,9,-1
 704 1088 l 2,10,11
 678 1088 678 1088 659 1069 c 128,-1,12
 640 1050 640 1050 640 1024 c 2,13,-1
 640 768 l 1,14,-1
 384 768 l 2,15,16
 358 768 358 768 339 749 c 128,-1,17
 320 730 320 730 320 704 c 2,18,-1
 320 576 l 2,19,20
 320 550 320 550 339 531 c 128,-1,21
 358 512 358 512 384 512 c 2,22,-1
 640 512 l 1,23,-1
 640 256 l 2,24,25
 640 230 640 230 659 211 c 128,-1,26
 678 192 678 192 704 192 c 2,27,-1
 832 192 l 2,28,29
 858 192 858 192 877 211 c 128,-1,30
 896 230 896 230 896 256 c 2,31,-1
 896 512 l 1,32,-1
 1152 512 l 2,33,34
 1178 512 1178 512 1197 531 c 128,-1,35
 1216 550 1216 550 1216 576 c 2,0,-1
1536 640 m 128,-1,37
 1536 431 1536 431 1433 254.5 c 128,-1,38
 1330 78 1330 78 1153.5 -25 c 128,-1,39
 977 -128 977 -128 768 -128 c 128,-1,40
 559 -128 559 -128 382.5 -25 c 128,-1,41
 206 78 206 78 103 254.5 c 128,-1,42
 0 431 0 431 0 640 c 128,-1,43
 0 849 0 849 103 1025.5 c 128,-1,44
 206 1202 206 1202 382.5 1305 c 128,-1,45
 559 1408 559 1408 768 1408 c 128,-1,46
 977 1408 977 1408 1153.5 1305 c 128,-1,47
 1330 1202 1330 1202 1433 1025.5 c 128,-1,36
 1536 849 1536 849 1536 640 c 128,-1,37
EndSplineSet
EndChar

StartChar: minus_sign
Encoding: 61526 61526 108
Width: 1536
GlyphClass: 2
Flags: W
LayerCount: 2
Fore
SplineSet
1216 576 m 2,0,-1
 1216 704 l 2,1,2
 1216 730 1216 730 1197 749 c 128,-1,3
 1178 768 1178 768 1152 768 c 2,4,-1
 384 768 l 2,5,6
 358 768 358 768 339 749 c 128,-1,7
 320 730 320 730 320 704 c 2,8,-1
 320 576 l 2,9,10
 320 550 320 550 339 531 c 128,-1,11
 358 512 358 512 384 512 c 2,12,-1
 1152 512 l 2,13,14
 1178 512 1178 512 1197 531 c 128,-1,15
 1216 550 1216 550 1216 576 c 2,0,-1
1536 640 m 128,-1,17
 1536 431 1536 431 1433 254.5 c 128,-1,18
 1330 78 1330 78 1153.5 -25 c 128,-1,19
 977 -128 977 -128 768 -128 c 128,-1,20
 559 -128 559 -128 382.5 -25 c 128,-1,21
 206 78 206 78 103 254.5 c 128,-1,22
 0 431 0 431 0 640 c 128,-1,23
 0 849 0 849 103 1025.5 c 128,-1,24
 206 1202 206 1202 382.5 1305 c 128,-1,25
 559 1408 559 1408 768 1408 c 128,-1,26
 977 1408 977 1408 1153.5 1305 c 128,-1,27
 1330 1202 1330 1202 1433 1025.5 c 128,-1,16
 1536 849 1536 849 1536 640 c 128,-1,17
EndSplineSet
EndChar

StartChar: remove_sign
Encoding: 61527 61527 109
Width: 1536
GlyphClass: 2
Flags: W
LayerCount: 2
Fore
SplineSet
1149 414 m 0,0,1
 1149 440 1149 440 1130 459 c 2,2,-1
 949 640 l 1,3,-1
 1130 821 l 2,4,5
 1149 840 1149 840 1149 866 c 0,6,7
 1149 893 1149 893 1130 912 c 2,8,-1
 1040 1002 l 2,9,10
 1021 1021 1021 1021 994 1021 c 0,11,12
 968 1021 968 1021 949 1002 c 2,13,-1
 768 821 l 1,14,-1
 587 1002 l 2,15,16
 568 1021 568 1021 542 1021 c 0,17,18
 515 1021 515 1021 496 1002 c 2,19,-1
 406 912 l 2,20,21
 387 893 387 893 387 866 c 0,22,23
 387 840 387 840 406 821 c 2,24,-1
 587 640 l 1,25,-1
 406 459 l 2,26,27
 387 440 387 440 387 414 c 0,28,29
 387 387 387 387 406 368 c 2,30,-1
 496 278 l 2,31,32
 515 259 515 259 542 259 c 0,33,34
 568 259 568 259 587 278 c 2,35,-1
 768 459 l 1,36,-1
 949 278 l 2,37,38
 968 259 968 259 994 259 c 0,39,40
 1021 259 1021 259 1040 278 c 2,41,-1
 1130 368 l 2,42,43
 1149 387 1149 387 1149 414 c 0,0,1
1536 640 m 128,-1,45
 1536 431 1536 431 1433 254.5 c 128,-1,46
 1330 78 1330 78 1153.5 -25 c 128,-1,47
 977 -128 977 -128 768 -128 c 128,-1,48
 559 -128 559 -128 382.5 -25 c 128,-1,49
 206 78 206 78 103 254.5 c 128,-1,50
 0 431 0 431 0 640 c 128,-1,51
 0 849 0 849 103 1025.5 c 128,-1,52
 206 1202 206 1202 382.5 1305 c 128,-1,53
 559 1408 559 1408 768 1408 c 128,-1,54
 977 1408 977 1408 1153.5 1305 c 128,-1,55
 1330 1202 1330 1202 1433 1025.5 c 128,-1,44
 1536 849 1536 849 1536 640 c 128,-1,45
EndSplineSet
EndChar

StartChar: ok_sign
Encoding: 61528 61528 110
Width: 1536
GlyphClass: 2
Flags: W
LayerCount: 2
Fore
SplineSet
1284 802 m 0,0,1
 1284 830 1284 830 1266 848 c 2,2,-1
 1175 938 l 2,3,4
 1156 957 1156 957 1130 957 c 128,-1,5
 1104 957 1104 957 1085 938 c 2,6,-1
 677 531 l 1,7,-1
 451 757 l 2,8,9
 432 776 432 776 406 776 c 128,-1,10
 380 776 380 776 361 757 c 2,11,-1
 270 667 l 2,12,13
 252 649 252 649 252 621 c 0,14,15
 252 594 252 594 270 576 c 2,16,-1
 632 214 l 2,17,18
 651 195 651 195 677 195 c 0,19,20
 704 195 704 195 723 214 c 2,21,-1
 1266 757 l 2,22,23
 1284 775 1284 775 1284 802 c 0,0,1
1536 640 m 128,-1,25
 1536 431 1536 431 1433 254.5 c 128,-1,26
 1330 78 1330 78 1153.5 -25 c 128,-1,27
 977 -128 977 -128 768 -128 c 128,-1,28
 559 -128 559 -128 382.5 -25 c 128,-1,29
 206 78 206 78 103 254.5 c 128,-1,30
 0 431 0 431 0 640 c 128,-1,31
 0 849 0 849 103 1025.5 c 128,-1,32
 206 1202 206 1202 382.5 1305 c 128,-1,33
 559 1408 559 1408 768 1408 c 128,-1,34
 977 1408 977 1408 1153.5 1305 c 128,-1,35
 1330 1202 1330 1202 1433 1025.5 c 128,-1,24
 1536 849 1536 849 1536 640 c 128,-1,25
EndSplineSet
EndChar

StartChar: question_sign
Encoding: 61529 61529 111
Width: 1536
GlyphClass: 2
Flags: W
LayerCount: 2
Fore
SplineSet
896 160 m 2,0,-1
 896 352 l 2,1,2
 896 366 896 366 887 375 c 128,-1,3
 878 384 878 384 864 384 c 2,4,-1
 672 384 l 2,5,6
 658 384 658 384 649 375 c 128,-1,7
 640 366 640 366 640 352 c 2,8,-1
 640 160 l 2,9,10
 640 146 640 146 649 137 c 128,-1,11
 658 128 658 128 672 128 c 2,12,-1
 864 128 l 2,13,14
 878 128 878 128 887 137 c 128,-1,15
 896 146 896 146 896 160 c 2,0,-1
1152 832 m 0,16,17
 1152 920 1152 920 1096.5 995 c 128,-1,18
 1041 1070 1041 1070 958 1111 c 128,-1,19
 875 1152 875 1152 788 1152 c 0,20,21
 545 1152 545 1152 417 939 c 0,22,23
 402 915 402 915 425 897 c 2,24,-1
 557 797 l 2,25,26
 564 791 564 791 576 791 c 0,27,28
 592 791 592 791 601 803 c 0,29,30
 654 871 654 871 687 895 c 0,31,32
 721 919 721 919 773 919 c 0,33,34
 821 919 821 919 858.5 893 c 128,-1,35
 896 867 896 867 896 834 c 0,36,37
 896 796 896 796 876 773 c 128,-1,38
 856 750 856 750 808 728 c 0,39,40
 745 700 745 700 692.5 641.5 c 128,-1,41
 640 583 640 583 640 516 c 2,42,-1
 640 480 l 2,43,44
 640 466 640 466 649 457 c 128,-1,45
 658 448 658 448 672 448 c 2,46,-1
 864 448 l 2,47,48
 878 448 878 448 887 457 c 128,-1,49
 896 466 896 466 896 480 c 0,50,51
 896 499 896 499 917.5 529.5 c 128,-1,52
 939 560 939 560 972 579 c 0,53,54
 1004 597 1004 597 1021 607.5 c 128,-1,55
 1038 618 1038 618 1067 642.5 c 128,-1,56
 1096 667 1096 667 1111.5 690.5 c 128,-1,57
 1127 714 1127 714 1139.5 751 c 128,-1,58
 1152 788 1152 788 1152 832 c 0,16,17
1536 640 m 128,-1,60
 1536 431 1536 431 1433 254.5 c 128,-1,61
 1330 78 1330 78 1153.5 -25 c 128,-1,62
 977 -128 977 -128 768 -128 c 128,-1,63
 559 -128 559 -128 382.5 -25 c 128,-1,64
 206 78 206 78 103 254.5 c 128,-1,65
 0 431 0 431 0 640 c 128,-1,66
 0 849 0 849 103 1025.5 c 128,-1,67
 206 1202 206 1202 382.5 1305 c 128,-1,68
 559 1408 559 1408 768 1408 c 128,-1,69
 977 1408 977 1408 1153.5 1305 c 128,-1,70
 1330 1202 1330 1202 1433 1025.5 c 128,-1,59
 1536 849 1536 849 1536 640 c 128,-1,60
EndSplineSet
EndChar

StartChar: info_sign
Encoding: 61530 61530 112
Width: 1536
GlyphClass: 2
Flags: W
LayerCount: 2
Fore
SplineSet
1024 160 m 2,0,-1
 1024 320 l 2,1,2
 1024 334 1024 334 1015 343 c 128,-1,3
 1006 352 1006 352 992 352 c 2,4,-1
 896 352 l 1,5,-1
 896 864 l 2,6,7
 896 878 896 878 887 887 c 128,-1,8
 878 896 878 896 864 896 c 2,9,-1
 544 896 l 2,10,11
 530 896 530 896 521 887 c 128,-1,12
 512 878 512 878 512 864 c 2,13,-1
 512 704 l 2,14,15
 512 690 512 690 521 681 c 128,-1,16
 530 672 530 672 544 672 c 2,17,-1
 640 672 l 1,18,-1
 640 352 l 1,19,-1
 544 352 l 2,20,21
 530 352 530 352 521 343 c 128,-1,22
 512 334 512 334 512 320 c 2,23,-1
 512 160 l 2,24,25
 512 146 512 146 521 137 c 128,-1,26
 530 128 530 128 544 128 c 2,27,-1
 992 128 l 2,28,29
 1006 128 1006 128 1015 137 c 128,-1,30
 1024 146 1024 146 1024 160 c 2,0,-1
896 1056 m 2,31,-1
 896 1216 l 2,32,33
 896 1230 896 1230 887 1239 c 128,-1,34
 878 1248 878 1248 864 1248 c 2,35,-1
 672 1248 l 2,36,37
 658 1248 658 1248 649 1239 c 128,-1,38
 640 1230 640 1230 640 1216 c 2,39,-1
 640 1056 l 2,40,41
 640 1042 640 1042 649 1033 c 128,-1,42
 658 1024 658 1024 672 1024 c 2,43,-1
 864 1024 l 2,44,45
 878 1024 878 1024 887 1033 c 128,-1,46
 896 1042 896 1042 896 1056 c 2,31,-1
1536 640 m 128,-1,48
 1536 431 1536 431 1433 254.5 c 128,-1,49
 1330 78 1330 78 1153.5 -25 c 128,-1,50
 977 -128 977 -128 768 -128 c 128,-1,51
 559 -128 559 -128 382.5 -25 c 128,-1,52
 206 78 206 78 103 254.5 c 128,-1,53
 0 431 0 431 0 640 c 128,-1,54
 0 849 0 849 103 1025.5 c 128,-1,55
 206 1202 206 1202 382.5 1305 c 128,-1,56
 559 1408 559 1408 768 1408 c 128,-1,57
 977 1408 977 1408 1153.5 1305 c 128,-1,58
 1330 1202 1330 1202 1433 1025.5 c 128,-1,47
 1536 849 1536 849 1536 640 c 128,-1,48
EndSplineSet
EndChar

StartChar: screenshot
Encoding: 61531 61531 113
Width: 1536
GlyphClass: 2
Flags: W
LayerCount: 2
Fore
SplineSet
1197 512 m 1,0,-1
 1088 512 l 2,1,2
 1062 512 1062 512 1043 531 c 128,-1,3
 1024 550 1024 550 1024 576 c 2,4,-1
 1024 704 l 2,5,6
 1024 730 1024 730 1043 749 c 128,-1,7
 1062 768 1062 768 1088 768 c 2,8,-1
 1197 768 l 1,9,10
 1165 876 1165 876 1084.5 956.5 c 128,-1,11
 1004 1037 1004 1037 896 1069 c 1,12,-1
 896 960 l 2,13,14
 896 934 896 934 877 915 c 128,-1,15
 858 896 858 896 832 896 c 2,16,-1
 704 896 l 2,17,18
 678 896 678 896 659 915 c 128,-1,19
 640 934 640 934 640 960 c 2,20,-1
 640 1069 l 1,21,22
 532 1037 532 1037 451.5 956.5 c 128,-1,23
 371 876 371 876 339 768 c 1,24,-1
 448 768 l 2,25,26
 474 768 474 768 493 749 c 128,-1,27
 512 730 512 730 512 704 c 2,28,-1
 512 576 l 2,29,30
 512 550 512 550 493 531 c 128,-1,31
 474 512 474 512 448 512 c 2,32,-1
 339 512 l 1,33,34
 371 404 371 404 451.5 323.5 c 128,-1,35
 532 243 532 243 640 211 c 1,36,-1
 640 320 l 2,37,38
 640 346 640 346 659 365 c 128,-1,39
 678 384 678 384 704 384 c 2,40,-1
 832 384 l 2,41,42
 858 384 858 384 877 365 c 128,-1,43
 896 346 896 346 896 320 c 2,44,-1
 896 211 l 1,45,46
 1004 243 1004 243 1084.5 323.5 c 128,-1,47
 1165 404 1165 404 1197 512 c 1,0,-1
1536 704 m 2,48,-1
 1536 576 l 2,49,50
 1536 550 1536 550 1517 531 c 128,-1,51
 1498 512 1498 512 1472 512 c 2,52,-1
 1329 512 l 1,53,54
 1292 351 1292 351 1174.5 233.5 c 128,-1,55
 1057 116 1057 116 896 79 c 1,56,-1
 896 -64 l 2,57,58
 896 -90 896 -90 877 -109 c 128,-1,59
 858 -128 858 -128 832 -128 c 2,60,-1
 704 -128 l 2,61,62
 678 -128 678 -128 659 -109 c 128,-1,63
 640 -90 640 -90 640 -64 c 2,64,-1
 640 79 l 1,65,66
 479 116 479 116 361.5 233.5 c 128,-1,67
 244 351 244 351 207 512 c 1,68,-1
 64 512 l 2,69,70
 38 512 38 512 19 531 c 128,-1,71
 0 550 0 550 0 576 c 2,72,-1
 0 704 l 2,73,74
 0 730 0 730 19 749 c 128,-1,75
 38 768 38 768 64 768 c 2,76,-1
 207 768 l 1,77,78
 244 929 244 929 361.5 1046.5 c 128,-1,79
 479 1164 479 1164 640 1201 c 1,80,-1
 640 1344 l 2,81,82
 640 1370 640 1370 659 1389 c 128,-1,83
 678 1408 678 1408 704 1408 c 2,84,-1
 832 1408 l 2,85,86
 858 1408 858 1408 877 1389 c 128,-1,87
 896 1370 896 1370 896 1344 c 2,88,-1
 896 1201 l 1,89,90
 1057 1164 1057 1164 1174.5 1046.5 c 128,-1,91
 1292 929 1292 929 1329 768 c 1,92,-1
 1472 768 l 2,93,94
 1498 768 1498 768 1517 749 c 128,-1,95
 1536 730 1536 730 1536 704 c 2,48,-1
EndSplineSet
EndChar

StartChar: remove_circle
Encoding: 61532 61532 114
Width: 1536
GlyphClass: 2
Flags: W
LayerCount: 2
Fore
SplineSet
1097 457 m 2,0,-1
 951 311 l 2,1,2
 941 301 941 301 928 301 c 128,-1,3
 915 301 915 301 905 311 c 2,4,-1
 768 448 l 1,5,-1
 631 311 l 2,6,7
 621 301 621 301 608 301 c 128,-1,8
 595 301 595 301 585 311 c 2,9,-1
 439 457 l 2,10,11
 429 467 429 467 429 480 c 128,-1,12
 429 493 429 493 439 503 c 2,13,-1
 576 640 l 1,14,-1
 439 777 l 2,15,16
 429 787 429 787 429 800 c 128,-1,17
 429 813 429 813 439 823 c 2,18,-1
 585 969 l 2,19,20
 595 979 595 979 608 979 c 128,-1,21
 621 979 621 979 631 969 c 2,22,-1
 768 832 l 1,23,-1
 905 969 l 2,24,25
 915 979 915 979 928 979 c 128,-1,26
 941 979 941 979 951 969 c 2,27,-1
 1097 823 l 2,28,29
 1107 813 1107 813 1107 800 c 128,-1,30
 1107 787 1107 787 1097 777 c 2,31,-1
 960 640 l 1,32,-1
 1097 503 l 2,33,34
 1107 493 1107 493 1107 480 c 128,-1,35
 1107 467 1107 467 1097 457 c 2,0,-1
1312 640 m 128,-1,37
 1312 788 1312 788 1239 913 c 128,-1,38
 1166 1038 1166 1038 1041 1111 c 128,-1,39
 916 1184 916 1184 768 1184 c 128,-1,40
 620 1184 620 1184 495 1111 c 128,-1,41
 370 1038 370 1038 297 913 c 128,-1,42
 224 788 224 788 224 640 c 128,-1,43
 224 492 224 492 297 367 c 128,-1,44
 370 242 370 242 495 169 c 128,-1,45
 620 96 620 96 768 96 c 128,-1,46
 916 96 916 96 1041 169 c 128,-1,47
 1166 242 1166 242 1239 367 c 128,-1,36
 1312 492 1312 492 1312 640 c 128,-1,37
1536 640 m 128,-1,49
 1536 431 1536 431 1433 254.5 c 128,-1,50
 1330 78 1330 78 1153.5 -25 c 128,-1,51
 977 -128 977 -128 768 -128 c 128,-1,52
 559 -128 559 -128 382.5 -25 c 128,-1,53
 206 78 206 78 103 254.5 c 128,-1,54
 0 431 0 431 0 640 c 128,-1,55
 0 849 0 849 103 1025.5 c 128,-1,56
 206 1202 206 1202 382.5 1305 c 128,-1,57
 559 1408 559 1408 768 1408 c 128,-1,58
 977 1408 977 1408 1153.5 1305 c 128,-1,59
 1330 1202 1330 1202 1433 1025.5 c 128,-1,48
 1536 849 1536 849 1536 640 c 128,-1,49
EndSplineSet
EndChar

StartChar: ok_circle
Encoding: 61533 61533 115
Width: 1536
GlyphClass: 2
Flags: W
LayerCount: 2
Fore
SplineSet
1171 723 m 2,0,-1
 749 301 l 2,1,2
 730 282 730 282 704 282 c 128,-1,3
 678 282 678 282 659 301 c 2,4,-1
 365 595 l 2,5,6
 346 614 346 614 346 640 c 128,-1,7
 346 666 346 666 365 685 c 2,8,-1
 467 787 l 2,9,10
 486 806 486 806 512 806 c 128,-1,11
 538 806 538 806 557 787 c 2,12,-1
 704 640 l 1,13,-1
 979 915 l 2,14,15
 998 934 998 934 1024 934 c 128,-1,16
 1050 934 1050 934 1069 915 c 2,17,-1
 1171 813 l 2,18,19
 1190 794 1190 794 1190 768 c 128,-1,20
 1190 742 1190 742 1171 723 c 2,0,-1
1312 640 m 128,-1,22
 1312 788 1312 788 1239 913 c 128,-1,23
 1166 1038 1166 1038 1041 1111 c 128,-1,24
 916 1184 916 1184 768 1184 c 128,-1,25
 620 1184 620 1184 495 1111 c 128,-1,26
 370 1038 370 1038 297 913 c 128,-1,27
 224 788 224 788 224 640 c 128,-1,28
 224 492 224 492 297 367 c 128,-1,29
 370 242 370 242 495 169 c 128,-1,30
 620 96 620 96 768 96 c 128,-1,31
 916 96 916 96 1041 169 c 128,-1,32
 1166 242 1166 242 1239 367 c 128,-1,21
 1312 492 1312 492 1312 640 c 128,-1,22
1536 640 m 128,-1,34
 1536 431 1536 431 1433 254.5 c 128,-1,35
 1330 78 1330 78 1153.5 -25 c 128,-1,36
 977 -128 977 -128 768 -128 c 128,-1,37
 559 -128 559 -128 382.5 -25 c 128,-1,38
 206 78 206 78 103 254.5 c 128,-1,39
 0 431 0 431 0 640 c 128,-1,40
 0 849 0 849 103 1025.5 c 128,-1,41
 206 1202 206 1202 382.5 1305 c 128,-1,42
 559 1408 559 1408 768 1408 c 128,-1,43
 977 1408 977 1408 1153.5 1305 c 128,-1,44
 1330 1202 1330 1202 1433 1025.5 c 128,-1,33
 1536 849 1536 849 1536 640 c 128,-1,34
EndSplineSet
EndChar

StartChar: ban_circle
Encoding: 61534 61534 116
Width: 1536
GlyphClass: 2
Flags: W
LayerCount: 2
Fore
SplineSet
1312 643 m 0,0,1
 1312 804 1312 804 1225 938 c 1,2,-1
 471 185 l 1,3,4
 608 96 608 96 768 96 c 0,5,6
 879 96 879 96 979.5 139.5 c 128,-1,7
 1080 183 1080 183 1153 256 c 128,-1,8
 1226 329 1226 329 1269 430.5 c 128,-1,9
 1312 532 1312 532 1312 643 c 0,0,1
313 344 m 1,10,-1
 1068 1098 l 1,11,12
 933 1189 933 1189 768 1189 c 0,13,14
 620 1189 620 1189 495 1116 c 128,-1,15
 370 1043 370 1043 297 917 c 128,-1,16
 224 791 224 791 224 643 c 0,17,18
 224 481 224 481 313 344 c 1,10,-1
1536 643 m 128,-1,20
 1536 486 1536 486 1475 343 c 128,-1,21
 1414 200 1414 200 1311.5 97 c 128,-1,22
 1209 -6 1209 -6 1066.5 -67 c 128,-1,23
 924 -128 924 -128 768 -128 c 128,-1,24
 612 -128 612 -128 469.5 -67 c 128,-1,25
 327 -6 327 -6 224.5 97 c 128,-1,26
 122 200 122 200 61 343 c 128,-1,27
 0 486 0 486 0 643 c 128,-1,28
 0 800 0 800 61 942.5 c 128,-1,29
 122 1085 122 1085 224.5 1188 c 128,-1,30
 327 1291 327 1291 469.5 1352 c 128,-1,31
 612 1413 612 1413 768 1413 c 128,-1,32
 924 1413 924 1413 1066.5 1352 c 128,-1,33
 1209 1291 1209 1291 1311.5 1188 c 128,-1,34
 1414 1085 1414 1085 1475 942.5 c 128,-1,19
 1536 800 1536 800 1536 643 c 128,-1,20
EndSplineSet
EndChar

StartChar: arrow_left
Encoding: 61536 61536 117
Width: 1536
GlyphClass: 2
Flags: W
LayerCount: 2
Fore
SplineSet
1536 640 m 2,0,-1
 1536 512 l 2,1,2
 1536 459 1536 459 1503.5 421.5 c 128,-1,3
 1471 384 1471 384 1419 384 c 2,4,-1
 715 384 l 1,5,-1
 1008 90 l 1,6,7
 1046 54 1046 54 1046 0 c 128,-1,8
 1046 -54 1046 -54 1008 -90 c 1,9,-1
 933 -166 l 2,10,11
 896 -203 896 -203 843 -203 c 0,12,13
 791 -203 791 -203 752 -166 c 1,14,-1
 101 486 l 2,15,16
 64 523 64 523 64 576 c 0,17,18
 64 628 64 628 101 667 c 1,19,-1
 752 1317 l 2,20,21
 790 1355 790 1355 843 1355 c 0,22,23
 895 1355 895 1355 933 1317 c 2,24,-1
 1008 1243 l 2,25,26
 1046 1205 1046 1205 1046 1152 c 128,-1,27
 1046 1099 1046 1099 1008 1061 c 2,28,-1
 715 768 l 1,29,-1
 1419 768 l 2,30,31
 1471 768 1471 768 1503.5 730.5 c 128,-1,32
 1536 693 1536 693 1536 640 c 2,0,-1
EndSplineSet
EndChar

StartChar: arrow_right
Encoding: 61537 61537 118
Width: 1536
GlyphClass: 2
Flags: W
LayerCount: 2
Fore
SplineSet
1472 576 m 0,0,1
 1472 522 1472 522 1435 485 c 2,2,-1
 784 -166 l 1,3,4
 745 -203 745 -203 693 -203 c 0,5,6
 642 -203 642 -203 603 -166 c 1,7,-1
 528 -91 l 2,8,9
 490 -53 490 -53 490 0 c 128,-1,10
 490 53 490 53 528 91 c 2,11,-1
 821 384 l 1,12,-1
 117 384 l 2,13,14
 65 384 65 384 32.5 421.5 c 128,-1,15
 0 459 0 459 0 512 c 2,16,-1
 0 640 l 2,17,18
 0 693 0 693 32.5 730.5 c 128,-1,19
 65 768 65 768 117 768 c 2,20,-1
 821 768 l 1,21,-1
 528 1062 l 1,22,23
 490 1098 490 1098 490 1152 c 128,-1,24
 490 1206 490 1206 528 1242 c 1,25,-1
 603 1317 l 2,26,27
 641 1355 641 1355 693 1355 c 0,28,29
 746 1355 746 1355 784 1317 c 2,30,-1
 1435 666 l 1,31,32
 1472 631 1472 631 1472 576 c 0,0,1
EndSplineSet
EndChar

StartChar: arrow_up
Encoding: 61538 61538 119
Width: 1664
GlyphClass: 2
Flags: W
LayerCount: 2
Fore
SplineSet
1611 565 m 0,0,1
 1611 514 1611 514 1574 475 c 1,2,-1
 1499 400 l 2,3,4
 1461 362 1461 362 1408 362 c 0,5,6
 1354 362 1354 362 1318 400 c 1,7,-1
 1024 693 l 1,8,-1
 1024 -11 l 2,9,10
 1024 -63 1024 -63 986.5 -95.5 c 128,-1,11
 949 -128 949 -128 896 -128 c 2,12,-1
 768 -128 l 2,13,14
 715 -128 715 -128 677.5 -95.5 c 128,-1,15
 640 -63 640 -63 640 -11 c 2,16,-1
 640 693 l 1,17,-1
 346 400 l 1,18,19
 310 362 310 362 256 362 c 128,-1,20
 202 362 202 362 166 400 c 1,21,-1
 91 475 l 2,22,23
 53 513 53 513 53 565 c 0,24,25
 53 618 53 618 91 656 c 2,26,-1
 742 1307 l 1,27,28
 777 1344 777 1344 832 1344 c 0,29,30
 886 1344 886 1344 923 1307 c 2,31,-1
 1574 656 l 1,32,33
 1611 617 1611 617 1611 565 c 0,0,1
EndSplineSet
EndChar

StartChar: arrow_down
Encoding: 61539 61539 120
Width: 1664
GlyphClass: 2
Flags: W
LayerCount: 2
Fore
SplineSet
1611 704 m 0,0,1
 1611 651 1611 651 1574 614 c 2,2,-1
 923 -38 l 1,3,4
 884 -75 884 -75 832 -75 c 0,5,6
 779 -75 779 -75 742 -38 c 2,7,-1
 91 614 l 1,8,9
 53 650 53 650 53 704 c 0,10,11
 53 757 53 757 91 795 c 2,12,-1
 165 870 l 1,13,14
 204 907 204 907 256 907 c 0,15,16
 309 907 309 907 346 870 c 2,17,-1
 640 576 l 1,18,-1
 640 1280 l 2,19,20
 640 1332 640 1332 678 1370 c 128,-1,21
 716 1408 716 1408 768 1408 c 2,22,-1
 896 1408 l 2,23,24
 948 1408 948 1408 986 1370 c 128,-1,25
 1024 1332 1024 1332 1024 1280 c 2,26,-1
 1024 576 l 1,27,-1
 1318 870 l 2,28,29
 1355 907 1355 907 1408 907 c 0,30,31
 1460 907 1460 907 1499 870 c 1,32,-1
 1574 795 l 1,33,34
 1611 756 1611 756 1611 704 c 0,0,1
EndSplineSet
EndChar

StartChar: share_alt
Encoding: 61540 61540 121
Width: 1792
GlyphClass: 2
Flags: W
LayerCount: 2
Fore
SplineSet
1792 896 m 128,-1,1
 1792 870 1792 870 1773 851 c 2,2,-1
 1261 339 l 2,3,4
 1242 320 1242 320 1216 320 c 128,-1,5
 1190 320 1190 320 1171 339 c 128,-1,6
 1152 358 1152 358 1152 384 c 2,7,-1
 1152 640 l 1,8,-1
 928 640 l 2,9,10
 830 640 830 640 752.5 634 c 128,-1,11
 675 628 675 628 598.5 612.5 c 128,-1,12
 522 597 522 597 465.5 570 c 128,-1,13
 409 543 409 543 360 500.5 c 128,-1,14
 311 458 311 458 280 399.5 c 128,-1,15
 249 341 249 341 231.5 261 c 128,-1,16
 214 181 214 181 214 80 c 0,17,18
 214 25 214 25 219 -43 c 0,19,20
 219 -49 219 -49 221.5 -66.5 c 128,-1,21
 224 -84 224 -84 224 -93 c 0,22,23
 224 -108 224 -108 215.5 -118 c 128,-1,24
 207 -128 207 -128 192 -128 c 0,25,26
 176 -128 176 -128 164 -111 c 0,27,28
 157 -102 157 -102 151 -89 c 128,-1,29
 145 -76 145 -76 137.5 -59 c 128,-1,30
 130 -42 130 -42 127 -35 c 0,31,32
 0 250 0 250 0 416 c 0,33,34
 0 615 0 615 53 749 c 0,35,36
 215 1152 215 1152 928 1152 c 2,37,-1
 1152 1152 l 1,38,-1
 1152 1408 l 2,39,40
 1152 1434 1152 1434 1171 1453 c 128,-1,41
 1190 1472 1190 1472 1216 1472 c 128,-1,42
 1242 1472 1242 1472 1261 1453 c 2,43,-1
 1773 941 l 2,44,0
 1792 922 1792 922 1792 896 c 128,-1,1
EndSplineSet
EndChar

StartChar: resize_full
Encoding: 61541 61541 122
Width: 1536
GlyphClass: 2
Flags: W
LayerCount: 2
Fore
SplineSet
755 480 m 128,-1,1
 755 467 755 467 745 457 c 2,2,-1
 413 125 l 1,3,-1
 557 -19 l 2,4,5
 576 -38 576 -38 576 -64 c 128,-1,6
 576 -90 576 -90 557 -109 c 128,-1,7
 538 -128 538 -128 512 -128 c 2,8,-1
 64 -128 l 2,9,10
 38 -128 38 -128 19 -109 c 128,-1,11
 0 -90 0 -90 0 -64 c 2,12,-1
 0 384 l 2,13,14
 0 410 0 410 19 429 c 128,-1,15
 38 448 38 448 64 448 c 128,-1,16
 90 448 90 448 109 429 c 2,17,-1
 253 285 l 1,18,-1
 585 617 l 2,19,20
 595 627 595 627 608 627 c 128,-1,21
 621 627 621 627 631 617 c 2,22,-1
 745 503 l 2,23,0
 755 493 755 493 755 480 c 128,-1,1
1536 1344 m 2,24,-1
 1536 896 l 2,25,26
 1536 870 1536 870 1517 851 c 128,-1,27
 1498 832 1498 832 1472 832 c 128,-1,28
 1446 832 1446 832 1427 851 c 2,29,-1
 1283 995 l 1,30,-1
 951 663 l 2,31,32
 941 653 941 653 928 653 c 128,-1,33
 915 653 915 653 905 663 c 2,34,-1
 791 777 l 2,35,36
 781 787 781 787 781 800 c 128,-1,37
 781 813 781 813 791 823 c 2,38,-1
 1123 1155 l 1,39,-1
 979 1299 l 2,40,41
 960 1318 960 1318 960 1344 c 128,-1,42
 960 1370 960 1370 979 1389 c 128,-1,43
 998 1408 998 1408 1024 1408 c 2,44,-1
 1472 1408 l 2,45,46
 1498 1408 1498 1408 1517 1389 c 128,-1,47
 1536 1370 1536 1370 1536 1344 c 2,24,-1
EndSplineSet
EndChar

StartChar: resize_small
Encoding: 61542 61542 123
Width: 1536
GlyphClass: 2
Flags: W
LayerCount: 2
Fore
SplineSet
768 576 m 2,0,-1
 768 128 l 2,1,2
 768 102 768 102 749 83 c 128,-1,3
 730 64 730 64 704 64 c 128,-1,4
 678 64 678 64 659 83 c 2,5,-1
 515 227 l 1,6,-1
 183 -105 l 2,7,8
 173 -115 173 -115 160 -115 c 128,-1,9
 147 -115 147 -115 137 -105 c 2,10,-1
 23 9 l 2,11,12
 13 19 13 19 13 32 c 128,-1,13
 13 45 13 45 23 55 c 2,14,-1
 355 387 l 1,15,-1
 211 531 l 2,16,17
 192 550 192 550 192 576 c 128,-1,18
 192 602 192 602 211 621 c 128,-1,19
 230 640 230 640 256 640 c 2,20,-1
 704 640 l 2,21,22
 730 640 730 640 749 621 c 128,-1,23
 768 602 768 602 768 576 c 2,0,-1
1523 1248 m 128,-1,25
 1523 1235 1523 1235 1513 1225 c 2,26,-1
 1181 893 l 1,27,-1
 1325 749 l 2,28,29
 1344 730 1344 730 1344 704 c 128,-1,30
 1344 678 1344 678 1325 659 c 128,-1,31
 1306 640 1306 640 1280 640 c 2,32,-1
 832 640 l 2,33,34
 806 640 806 640 787 659 c 128,-1,35
 768 678 768 678 768 704 c 2,36,-1
 768 1152 l 2,37,38
 768 1178 768 1178 787 1197 c 128,-1,39
 806 1216 806 1216 832 1216 c 128,-1,40
 858 1216 858 1216 877 1197 c 2,41,-1
 1021 1053 l 1,42,-1
 1353 1385 l 2,43,44
 1363 1395 1363 1395 1376 1395 c 128,-1,45
 1389 1395 1389 1395 1399 1385 c 2,46,-1
 1513 1271 l 2,47,24
 1523 1261 1523 1261 1523 1248 c 128,-1,25
EndSplineSet
EndChar

StartChar: plus
Encoding: 61543 61543 124
Width: 1408
GlyphClass: 2
Flags: W
LayerCount: 2
Fore
SplineSet
1408 800 m 2,0,-1
 1408 608 l 2,1,2
 1408 568 1408 568 1380 540 c 128,-1,3
 1352 512 1352 512 1312 512 c 2,4,-1
 896 512 l 1,5,-1
 896 96 l 2,6,7
 896 56 896 56 868 28 c 128,-1,8
 840 0 840 0 800 0 c 2,9,-1
 608 0 l 2,10,11
 568 0 568 0 540 28 c 128,-1,12
 512 56 512 56 512 96 c 2,13,-1
 512 512 l 1,14,-1
 96 512 l 2,15,16
 56 512 56 512 28 540 c 128,-1,17
 0 568 0 568 0 608 c 2,18,-1
 0 800 l 2,19,20
 0 840 0 840 28 868 c 128,-1,21
 56 896 56 896 96 896 c 2,22,-1
 512 896 l 1,23,-1
 512 1312 l 2,24,25
 512 1352 512 1352 540 1380 c 128,-1,26
 568 1408 568 1408 608 1408 c 2,27,-1
 800 1408 l 2,28,29
 840 1408 840 1408 868 1380 c 128,-1,30
 896 1352 896 1352 896 1312 c 2,31,-1
 896 896 l 1,32,-1
 1312 896 l 2,33,34
 1352 896 1352 896 1380 868 c 128,-1,35
 1408 840 1408 840 1408 800 c 2,0,-1
EndSplineSet
EndChar

StartChar: minus
Encoding: 61544 61544 125
Width: 1408
GlyphClass: 2
Flags: W
LayerCount: 2
Fore
SplineSet
1408 800 m 2,0,-1
 1408 608 l 2,1,2
 1408 568 1408 568 1380 540 c 128,-1,3
 1352 512 1352 512 1312 512 c 2,4,-1
 96 512 l 2,5,6
 56 512 56 512 28 540 c 128,-1,7
 0 568 0 568 0 608 c 2,8,-1
 0 800 l 2,9,10
 0 840 0 840 28 868 c 128,-1,11
 56 896 56 896 96 896 c 2,12,-1
 1312 896 l 2,13,14
 1352 896 1352 896 1380 868 c 128,-1,15
 1408 840 1408 840 1408 800 c 2,0,-1
EndSplineSet
EndChar

StartChar: asterisk
Encoding: 61545 61545 126
Width: 1664
GlyphClass: 2
Flags: W
LayerCount: 2
Fore
SplineSet
1482 486 m 2,0,1
 1528 460 1528 460 1541.5 408.5 c 128,-1,2
 1555 357 1555 357 1529 311 c 2,3,-1
 1465 201 l 2,4,5
 1439 155 1439 155 1387.5 141.5 c 128,-1,6
 1336 128 1336 128 1290 154 c 2,7,-1
 1024 307 l 1,8,-1
 1024 0 l 2,9,10
 1024 -52 1024 -52 986 -90 c 128,-1,11
 948 -128 948 -128 896 -128 c 2,12,-1
 768 -128 l 2,13,14
 716 -128 716 -128 678 -90 c 128,-1,15
 640 -52 640 -52 640 0 c 2,16,-1
 640 307 l 1,17,-1
 374 154 l 2,18,19
 328 128 328 128 276.5 141.5 c 128,-1,20
 225 155 225 155 199 201 c 2,21,-1
 135 311 l 2,22,23
 109 357 109 357 122.5 408.5 c 128,-1,24
 136 460 136 460 182 486 c 2,25,-1
 448 640 l 1,26,-1
 182 794 l 2,27,28
 136 820 136 820 122.5 871.5 c 128,-1,29
 109 923 109 923 135 969 c 2,30,-1
 199 1079 l 2,31,32
 225 1125 225 1125 276.5 1138.5 c 128,-1,33
 328 1152 328 1152 374 1126 c 2,34,-1
 640 973 l 1,35,-1
 640 1280 l 2,36,37
 640 1332 640 1332 678 1370 c 128,-1,38
 716 1408 716 1408 768 1408 c 2,39,-1
 896 1408 l 2,40,41
 948 1408 948 1408 986 1370 c 128,-1,42
 1024 1332 1024 1332 1024 1280 c 2,43,-1
 1024 973 l 1,44,-1
 1290 1126 l 2,45,46
 1336 1152 1336 1152 1387.5 1138.5 c 128,-1,47
 1439 1125 1439 1125 1465 1079 c 2,48,-1
 1529 969 l 2,49,50
 1555 923 1555 923 1541.5 871.5 c 128,-1,51
 1528 820 1528 820 1482 794 c 2,52,-1
 1216 640 l 1,53,-1
 1482 486 l 2,0,1
EndSplineSet
EndChar

StartChar: exclamation_sign
Encoding: 61546 61546 127
Width: 1536
GlyphClass: 2
Flags: W
LayerCount: 2
Fore
SplineSet
768 1408 m 128,-1,1
 977 1408 977 1408 1153.5 1305 c 128,-1,2
 1330 1202 1330 1202 1433 1025.5 c 128,-1,3
 1536 849 1536 849 1536 640 c 128,-1,4
 1536 431 1536 431 1433 254.5 c 128,-1,5
 1330 78 1330 78 1153.5 -25 c 128,-1,6
 977 -128 977 -128 768 -128 c 128,-1,7
 559 -128 559 -128 382.5 -25 c 128,-1,8
 206 78 206 78 103 254.5 c 128,-1,9
 0 431 0 431 0 640 c 128,-1,10
 0 849 0 849 103 1025.5 c 128,-1,11
 206 1202 206 1202 382.5 1305 c 128,-1,0
 559 1408 559 1408 768 1408 c 128,-1,1
896 161 m 2,12,-1
 896 351 l 2,13,14
 896 365 896 365 887 374.5 c 128,-1,15
 878 384 878 384 865 384 c 2,16,-1
 673 384 l 2,17,18
 660 384 660 384 650 374 c 128,-1,19
 640 364 640 364 640 351 c 2,20,-1
 640 161 l 2,21,22
 640 148 640 148 650 138 c 128,-1,23
 660 128 660 128 673 128 c 2,24,-1
 865 128 l 2,25,26
 878 128 878 128 887 137.5 c 128,-1,27
 896 147 896 147 896 161 c 2,12,-1
894 505 m 2,28,-1
 912 1126 l 2,29,30
 912 1138 912 1138 902 1144 c 1,31,32
 892 1152 892 1152 878 1152 c 2,33,-1
 658 1152 l 2,34,35
 644 1152 644 1152 634 1144 c 1,36,37
 624 1138 624 1138 624 1126 c 2,38,-1
 641 505 l 2,39,40
 641 495 641 495 651 487.5 c 128,-1,41
 661 480 661 480 675 480 c 2,42,-1
 860 480 l 2,43,44
 874 480 874 480 883.5 487.5 c 128,-1,45
 893 495 893 495 894 505 c 2,28,-1
EndSplineSet
EndChar

StartChar: gift
Encoding: 61547 61547 128
Width: 1536
GlyphClass: 2
Flags: W
LayerCount: 2
Fore
SplineSet
928 180 m 2,0,-1
 928 236 l 1,1,-1
 928 704 l 1,2,-1
 928 896 l 1,3,-1
 608 896 l 1,4,-1
 608 704 l 1,5,-1
 608 236 l 1,6,-1
 608 180 l 2,7,8
 608 155 608 155 626 141.5 c 128,-1,9
 644 128 644 128 672 128 c 2,10,-1
 864 128 l 2,11,12
 892 128 892 128 910 141.5 c 128,-1,13
 928 155 928 155 928 180 c 2,0,-1
472 1024 m 2,14,-1
 667 1024 l 1,15,-1
 541 1185 l 1,16,17
 515 1216 515 1216 472 1216 c 0,18,19
 432 1216 432 1216 404 1188 c 128,-1,20
 376 1160 376 1160 376 1120 c 128,-1,21
 376 1080 376 1080 404 1052 c 128,-1,22
 432 1024 432 1024 472 1024 c 2,14,-1
1160 1120 m 128,-1,24
 1160 1160 1160 1160 1132 1188 c 128,-1,25
 1104 1216 1104 1216 1064 1216 c 0,26,27
 1021 1216 1021 1216 995 1185 c 1,28,-1
 870 1024 l 1,29,-1
 1064 1024 l 2,30,31
 1104 1024 1104 1024 1132 1052 c 128,-1,23
 1160 1080 1160 1080 1160 1120 c 128,-1,24
1536 864 m 2,32,-1
 1536 544 l 2,33,34
 1536 530 1536 530 1527 521 c 128,-1,35
 1518 512 1518 512 1504 512 c 2,36,-1
 1408 512 l 1,37,-1
 1408 96 l 2,38,39
 1408 56 1408 56 1380 28 c 128,-1,40
 1352 0 1352 0 1312 0 c 2,41,-1
 224 0 l 2,42,43
 184 0 184 0 156 28 c 128,-1,44
 128 56 128 56 128 96 c 2,45,-1
 128 512 l 1,46,-1
 32 512 l 2,47,48
 18 512 18 512 9 521 c 128,-1,49
 0 530 0 530 0 544 c 2,50,-1
 0 864 l 2,51,52
 0 878 0 878 9 887 c 128,-1,53
 18 896 18 896 32 896 c 2,54,-1
 472 896 l 2,55,56
 379 896 379 896 313.5 961.5 c 128,-1,57
 248 1027 248 1027 248 1120 c 128,-1,58
 248 1213 248 1213 313.5 1278.5 c 128,-1,59
 379 1344 379 1344 472 1344 c 0,60,61
 579 1344 579 1344 640 1267 c 1,62,-1
 768 1102 l 1,63,-1
 896 1267 l 1,64,65
 957 1344 957 1344 1064 1344 c 0,66,67
 1157 1344 1157 1344 1222.5 1278.5 c 128,-1,68
 1288 1213 1288 1213 1288 1120 c 128,-1,69
 1288 1027 1288 1027 1222.5 961.5 c 128,-1,70
 1157 896 1157 896 1064 896 c 2,71,-1
 1504 896 l 2,72,73
 1518 896 1518 896 1527 887 c 128,-1,74
 1536 878 1536 878 1536 864 c 2,32,-1
EndSplineSet
EndChar

StartChar: leaf
Encoding: 61548 61548 129
Width: 1792
GlyphClass: 2
Flags: W
LayerCount: 2
Fore
SplineSet
1280 832 m 128,-1,1
 1280 858 1280 858 1261 877 c 128,-1,2
 1242 896 1242 896 1216 896 c 0,3,4
 1044 896 1044 896 898 846.5 c 128,-1,5
 752 797 752 797 638.5 712.5 c 128,-1,6
 525 628 525 628 403 493 c 0,7,8
 384 472 384 472 384 448 c 0,9,10
 384 422 384 422 403 403 c 128,-1,11
 422 384 422 384 448 384 c 0,12,13
 472 384 472 384 493 403 c 0,14,15
 520 427 520 427 567 474 c 128,-1,16
 614 521 614 521 634 540 c 0,17,18
 771 664 771 664 902.5 716 c 128,-1,19
 1034 768 1034 768 1216 768 c 0,20,21
 1242 768 1242 768 1261 787 c 128,-1,0
 1280 806 1280 806 1280 832 c 128,-1,1
1792 1030 m 0,22,23
 1792 935 1792 935 1772 837 c 0,24,25
 1726 613 1726 613 1587.5 454 c 128,-1,26
 1449 295 1449 295 1230 186 c 1,27,28
 1016 78 1016 78 792 78 c 0,29,30
 644 78 644 78 506 125 c 0,31,32
 491 130 491 130 418 167 c 128,-1,33
 345 204 345 204 322 204 c 0,34,35
 306 204 306 204 282.5 172 c 128,-1,36
 259 140 259 140 237.5 102 c 128,-1,37
 216 64 216 64 185 32 c 128,-1,38
 154 0 154 0 125 0 c 0,39,40
 95 0 95 0 74 11 c 128,-1,41
 53 22 53 22 43 35 c 128,-1,42
 33 48 33 48 16 77 c 0,43,44
 14 81 14 81 10 88 c 128,-1,45
 6 95 6 95 4.5 98 c 128,-1,46
 3 101 3 101 1.5 107.5 c 128,-1,47
 0 114 0 114 0 121 c 0,48,49
 0 156 0 156 31 194.5 c 128,-1,50
 62 233 62 233 99 260 c 128,-1,51
 136 287 136 287 167 316 c 128,-1,52
 198 345 198 345 198 364 c 0,53,54
 198 368 198 368 184 402 c 128,-1,55
 170 436 170 436 168 446 c 0,56,57
 159 497 159 497 159 550 c 0,58,59
 159 665 159 665 202.5 770 c 128,-1,60
 246 875 246 875 321.5 954.5 c 128,-1,61
 397 1034 397 1034 492 1093.5 c 128,-1,62
 587 1153 587 1153 696 1189 c 0,63,64
 751 1207 751 1207 841 1214.5 c 128,-1,65
 931 1222 931 1222 1020.5 1223.5 c 128,-1,66
 1110 1225 1110 1225 1199 1229.5 c 128,-1,67
 1288 1234 1288 1234 1362.5 1253.5 c 128,-1,68
 1437 1273 1437 1273 1476 1310 c 0,69,70
 1486 1320 1486 1320 1505.5 1339.5 c 128,-1,71
 1525 1359 1525 1359 1535 1367.5 c 128,-1,72
 1545 1376 1545 1376 1562 1387.5 c 128,-1,73
 1579 1399 1579 1399 1598.5 1403.5 c 128,-1,74
 1618 1408 1618 1408 1642 1408 c 0,75,76
 1681 1408 1681 1408 1712.5 1362 c 128,-1,77
 1744 1316 1744 1316 1760 1250 c 128,-1,78
 1776 1184 1776 1184 1784 1126 c 128,-1,79
 1792 1068 1792 1068 1792 1030 c 0,22,23
EndSplineSet
EndChar

StartChar: fire
Encoding: 61549 61549 130
Width: 1408
GlyphClass: 2
Flags: W
LayerCount: 2
Fore
SplineSet
1408 -160 m 2,0,-1
 1408 -224 l 2,1,2
 1408 -237 1408 -237 1398.5 -246.5 c 128,-1,3
 1389 -256 1389 -256 1376 -256 c 2,4,-1
 32 -256 l 2,5,6
 19 -256 19 -256 9.5 -246.5 c 128,-1,7
 0 -237 0 -237 0 -224 c 2,8,-1
 0 -160 l 2,9,10
 0 -147 0 -147 9.5 -137.5 c 128,-1,11
 19 -128 19 -128 32 -128 c 2,12,-1
 1376 -128 l 2,13,14
 1389 -128 1389 -128 1398.5 -137.5 c 128,-1,15
 1408 -147 1408 -147 1408 -160 c 2,0,-1
1152 896 m 0,16,17
 1152 818 1152 818 1127.5 752 c 128,-1,18
 1103 686 1103 686 1063.5 639.5 c 128,-1,19
 1024 593 1024 593 976 551.5 c 128,-1,20
 928 510 928 510 880 474 c 128,-1,21
 832 438 832 438 792.5 402 c 128,-1,22
 753 366 753 366 728.5 320.5 c 128,-1,23
 704 275 704 275 704 224 c 0,24,25
 704 128 704 128 771 0 c 1,26,-1
 767 1 l 1,27,-1
 768 0 l 1,28,29
 678 41 678 41 608 83 c 128,-1,30
 538 125 538 125 469.5 183 c 128,-1,31
 401 241 401 241 356 305.5 c 128,-1,32
 311 370 311 370 283.5 456 c 128,-1,33
 256 542 256 542 256 640 c 0,34,35
 256 718 256 718 280.5 784 c 128,-1,36
 305 850 305 850 344.5 896.5 c 128,-1,37
 384 943 384 943 432 984.5 c 128,-1,38
 480 1026 480 1026 528 1062 c 128,-1,39
 576 1098 576 1098 615.5 1134 c 128,-1,40
 655 1170 655 1170 679.5 1215.5 c 128,-1,41
 704 1261 704 1261 704 1312 c 0,42,43
 704 1406 704 1406 638 1536 c 1,44,-1
 641 1535 l 1,45,-1
 640 1536 l 1,46,47
 730 1495 730 1495 800 1453 c 128,-1,48
 870 1411 870 1411 938.5 1353 c 128,-1,49
 1007 1295 1007 1295 1052 1230.5 c 128,-1,50
 1097 1166 1097 1166 1124.5 1080 c 128,-1,51
 1152 994 1152 994 1152 896 c 0,16,17
EndSplineSet
EndChar

StartChar: eye_open
Encoding: 61550 61550 131
Width: 1792
GlyphClass: 2
Flags: W
LayerCount: 2
Fore
SplineSet
1664 576 m 1,0,1
 1512 812 1512 812 1283 929 c 1,2,3
 1344 825 1344 825 1344 704 c 0,4,5
 1344 519 1344 519 1212.5 387.5 c 128,-1,6
 1081 256 1081 256 896 256 c 128,-1,7
 711 256 711 256 579.5 387.5 c 128,-1,8
 448 519 448 519 448 704 c 0,9,10
 448 825 448 825 509 929 c 1,11,12
 280 812 280 812 128 576 c 1,13,14
 261 371 261 371 461.5 249.5 c 128,-1,15
 662 128 662 128 896 128 c 128,-1,16
 1130 128 1130 128 1330.5 249.5 c 128,-1,17
 1531 371 1531 371 1664 576 c 1,0,1
944 960 m 128,-1,19
 944 980 944 980 930 994 c 128,-1,20
 916 1008 916 1008 896 1008 c 0,21,22
 771 1008 771 1008 681.5 918.5 c 128,-1,23
 592 829 592 829 592 704 c 0,24,25
 592 684 592 684 606 670 c 128,-1,26
 620 656 620 656 640 656 c 128,-1,27
 660 656 660 656 674 670 c 128,-1,28
 688 684 688 684 688 704 c 0,29,30
 688 790 688 790 749 851 c 128,-1,31
 810 912 810 912 896 912 c 0,32,33
 916 912 916 912 930 926 c 128,-1,18
 944 940 944 940 944 960 c 128,-1,19
1792 576 m 128,-1,35
 1792 542 1792 542 1772 507 c 1,36,37
 1632 277 1632 277 1395.5 138.5 c 128,-1,38
 1159 0 1159 0 896 0 c 128,-1,39
 633 0 633 0 396.5 139 c 128,-1,40
 160 278 160 278 20 507 c 1,41,42
 0 542 0 542 0 576 c 128,-1,43
 0 610 0 610 20 645 c 1,44,45
 160 874 160 874 396.5 1013 c 128,-1,46
 633 1152 633 1152 896 1152 c 128,-1,47
 1159 1152 1159 1152 1395.5 1013 c 128,-1,48
 1632 874 1632 874 1772 645 c 1,49,34
 1792 610 1792 610 1792 576 c 128,-1,35
EndSplineSet
EndChar

StartChar: eye_close
Encoding: 61552 61552 132
Width: 1792
GlyphClass: 2
Flags: W
LayerCount: 2
Fore
SplineSet
555 201 m 1,0,-1
 633 342 l 1,1,2
 546 405 546 405 497 501 c 128,-1,3
 448 597 448 597 448 704 c 0,4,5
 448 825 448 825 509 929 c 1,6,7
 280 812 280 812 128 576 c 1,8,9
 295 318 295 318 555 201 c 1,0,-1
944 960 m 128,-1,11
 944 980 944 980 930 994 c 128,-1,12
 916 1008 916 1008 896 1008 c 0,13,14
 771 1008 771 1008 681.5 918.5 c 128,-1,15
 592 829 592 829 592 704 c 0,16,17
 592 684 592 684 606 670 c 128,-1,18
 620 656 620 656 640 656 c 128,-1,19
 660 656 660 656 674 670 c 128,-1,20
 688 684 688 684 688 704 c 0,21,22
 688 790 688 790 749 851 c 128,-1,23
 810 912 810 912 896 912 c 0,24,25
 916 912 916 912 930 926 c 128,-1,10
 944 940 944 940 944 960 c 128,-1,11
1307 1151 m 0,26,27
 1307 1144 1307 1144 1306 1142 c 0,28,29
 1201 954 1201 954 991 576 c 128,-1,30
 781 198 781 198 675 9 c 1,31,-1
 626 -80 l 1,32,33
 616 -96 616 -96 598 -96 c 0,34,35
 586 -96 586 -96 464 -26 c 0,36,37
 448 -16 448 -16 448 2 c 0,38,39
 448 14 448 14 492 89 c 1,40,41
 349 154 349 154 228.5 262 c 128,-1,42
 108 370 108 370 20 507 c 0,43,44
 0 538 0 538 0 576 c 128,-1,45
 0 614 0 614 20 645 c 0,46,47
 173 880 173 880 400 1016 c 128,-1,48
 627 1152 627 1152 896 1152 c 0,49,50
 985 1152 985 1152 1076 1135 c 1,51,-1
 1130 1232 l 2,52,53
 1140 1248 1140 1248 1158 1248 c 0,54,55
 1163 1248 1163 1248 1176 1242 c 128,-1,56
 1189 1236 1189 1236 1207 1226.5 c 128,-1,57
 1225 1217 1225 1217 1240 1208 c 128,-1,58
 1255 1199 1255 1199 1271.5 1189.5 c 128,-1,59
 1288 1180 1288 1180 1291 1178 c 0,60,61
 1307 1168 1307 1168 1307 1151 c 0,26,27
1344 704 m 0,62,63
 1344 565 1344 565 1265 450.5 c 128,-1,64
 1186 336 1186 336 1056 286 c 1,65,-1
 1336 788 l 1,66,67
 1344 743 1344 743 1344 704 c 0,62,63
1792 576 m 128,-1,69
 1792 541 1792 541 1772 507 c 0,70,71
 1733 443 1733 443 1663 362 c 0,72,73
 1513 190 1513 190 1315.5 95 c 128,-1,74
 1118 0 1118 0 896 0 c 1,75,-1
 970 132 l 1,76,77
 1182 150 1182 150 1362.5 269 c 128,-1,78
 1543 388 1543 388 1664 576 c 1,79,80
 1549 755 1549 755 1382 870 c 1,81,-1
 1445 982 l 1,82,83
 1540 918 1540 918 1627.5 829 c 128,-1,84
 1715 740 1715 740 1772 645 c 0,85,68
 1792 611 1792 611 1792 576 c 128,-1,69
EndSplineSet
EndChar

StartChar: warning_sign
Encoding: 61553 61553 133
Width: 1792
GlyphClass: 2
Flags: W
LayerCount: 2
Fore
SplineSet
1024 161 m 2,0,-1
 1024 351 l 2,1,2
 1024 365 1024 365 1014.5 374.5 c 128,-1,3
 1005 384 1005 384 992 384 c 2,4,-1
 800 384 l 2,5,6
 787 384 787 384 777.5 374.5 c 128,-1,7
 768 365 768 365 768 351 c 2,8,-1
 768 161 l 2,9,10
 768 147 768 147 777.5 137.5 c 128,-1,11
 787 128 787 128 800 128 c 2,12,-1
 992 128 l 2,13,14
 1005 128 1005 128 1014.5 137.5 c 128,-1,15
 1024 147 1024 147 1024 161 c 2,0,-1
1022 535 m 2,16,-1
 1040 994 l 2,17,18
 1040 1006 1040 1006 1030 1013 c 1,19,20
 1017 1024 1017 1024 1006 1024 c 2,21,-1
 786 1024 l 2,22,23
 775 1024 775 1024 762 1013 c 1,24,25
 752 1006 752 1006 752 992 c 2,26,-1
 769 535 l 2,27,28
 769 525 769 525 779 518.5 c 128,-1,29
 789 512 789 512 803 512 c 2,30,-1
 988 512 l 2,31,32
 1002 512 1002 512 1011.5 518.5 c 128,-1,33
 1021 525 1021 525 1022 535 c 2,16,-1
1008 1469 m 2,34,-1
 1776 61 l 2,35,36
 1811 -2 1811 -2 1774 -65 c 0,37,38
 1757 -94 1757 -94 1727.5 -111 c 128,-1,39
 1698 -128 1698 -128 1664 -128 c 2,40,-1
 128 -128 l 2,41,42
 94 -128 94 -128 64.5 -111 c 128,-1,43
 35 -94 35 -94 18 -65 c 0,44,45
 -19 -2 -19 -2 16 61 c 2,46,-1
 784 1469 l 2,47,48
 801 1500 801 1500 831 1518 c 128,-1,49
 861 1536 861 1536 896 1536 c 128,-1,50
 931 1536 931 1536 961 1518 c 128,-1,51
 991 1500 991 1500 1008 1469 c 2,34,-1
EndSplineSet
EndChar

StartChar: plane
Encoding: 61554 61554 134
Width: 1408
GlyphClass: 2
Flags: W
LayerCount: 2
Fore
SplineSet
1376 1376 m 1,0,1
 1420 1324 1420 1324 1388 1228 c 128,-1,2
 1356 1132 1356 1132 1280 1056 c 2,3,-1
 1119 895 l 1,4,-1
 1279 199 l 2,5,6
 1284 180 1284 180 1267 166 c 2,7,-1
 1139 70 l 2,8,9
 1132 64 1132 64 1120 64 c 0,10,11
 1116 64 1116 64 1113 65 c 0,12,13
 1098 68 1098 68 1092 81 c 2,14,-1
 813 589 l 1,15,-1
 554 330 l 1,16,-1
 607 136 l 2,17,18
 612 119 612 119 599 105 c 2,19,-1
 503 9 l 2,20,21
 494 0 494 0 480 0 c 2,22,-1
 478 0 l 1,23,24
 463 2 463 2 454 13 c 2,25,-1
 265 265 l 1,26,-1
 13 454 l 1,27,28
 2 461 2 461 0 477 c 0,29,30
 -1 490 -1 490 9 502 c 1,31,-1
 105 599 l 2,32,33
 114 608 114 608 128 608 c 0,34,35
 134 608 134 608 136 607 c 2,36,-1
 330 554 l 1,37,-1
 589 813 l 1,38,-1
 81 1092 l 2,39,40
 67 1100 67 1100 64 1116 c 0,41,42
 62 1132 62 1132 73 1143 c 2,43,-1
 201 1271 l 2,44,45
 215 1284 215 1284 231 1279 c 1,46,-1
 896 1120 l 1,47,-1
 1056 1280 l 2,48,49
 1132 1356 1132 1356 1228 1388 c 128,-1,50
 1324 1420 1324 1420 1376 1376 c 1,0,1
EndSplineSet
EndChar

StartChar: calendar
Encoding: 61555 61555 135
Width: 1664
GlyphClass: 2
Flags: W
LayerCount: 2
Fore
SplineSet
128 -128 m 1,0,-1
 416 -128 l 1,1,-1
 416 160 l 1,2,-1
 128 160 l 1,3,-1
 128 -128 l 1,0,-1
480 -128 m 1,4,-1
 800 -128 l 1,5,-1
 800 160 l 1,6,-1
 480 160 l 1,7,-1
 480 -128 l 1,4,-1
128 224 m 1,8,-1
 416 224 l 1,9,-1
 416 544 l 1,10,-1
 128 544 l 1,11,-1
 128 224 l 1,8,-1
480 224 m 1,12,-1
 800 224 l 1,13,-1
 800 544 l 1,14,-1
 480 544 l 1,15,-1
 480 224 l 1,12,-1
128 608 m 1,16,-1
 416 608 l 1,17,-1
 416 896 l 1,18,-1
 128 896 l 1,19,-1
 128 608 l 1,16,-1
864 -128 m 1,20,-1
 1184 -128 l 1,21,-1
 1184 160 l 1,22,-1
 864 160 l 1,23,-1
 864 -128 l 1,20,-1
480 608 m 1,24,-1
 800 608 l 1,25,-1
 800 896 l 1,26,-1
 480 896 l 1,27,-1
 480 608 l 1,24,-1
1248 -128 m 1,28,-1
 1536 -128 l 1,29,-1
 1536 160 l 1,30,-1
 1248 160 l 1,31,-1
 1248 -128 l 1,28,-1
864 224 m 1,32,-1
 1184 224 l 1,33,-1
 1184 544 l 1,34,-1
 864 544 l 1,35,-1
 864 224 l 1,32,-1
512 1088 m 2,36,-1
 512 1376 l 2,37,38
 512 1389 512 1389 502.5 1398.5 c 128,-1,39
 493 1408 493 1408 480 1408 c 2,40,-1
 416 1408 l 2,41,42
 403 1408 403 1408 393.5 1398.5 c 128,-1,43
 384 1389 384 1389 384 1376 c 2,44,-1
 384 1088 l 2,45,46
 384 1075 384 1075 393.5 1065.5 c 128,-1,47
 403 1056 403 1056 416 1056 c 2,48,-1
 480 1056 l 2,49,50
 493 1056 493 1056 502.5 1065.5 c 128,-1,51
 512 1075 512 1075 512 1088 c 2,36,-1
1248 224 m 1,52,-1
 1536 224 l 1,53,-1
 1536 544 l 1,54,-1
 1248 544 l 1,55,-1
 1248 224 l 1,52,-1
864 608 m 1,56,-1
 1184 608 l 1,57,-1
 1184 896 l 1,58,-1
 864 896 l 1,59,-1
 864 608 l 1,56,-1
1248 608 m 1,60,-1
 1536 608 l 1,61,-1
 1536 896 l 1,62,-1
 1248 896 l 1,63,-1
 1248 608 l 1,60,-1
1280 1088 m 2,64,-1
 1280 1376 l 2,65,66
 1280 1389 1280 1389 1270.5 1398.5 c 128,-1,67
 1261 1408 1261 1408 1248 1408 c 2,68,-1
 1184 1408 l 2,69,70
 1171 1408 1171 1408 1161.5 1398.5 c 128,-1,71
 1152 1389 1152 1389 1152 1376 c 2,72,-1
 1152 1088 l 2,73,74
 1152 1075 1152 1075 1161.5 1065.5 c 128,-1,75
 1171 1056 1171 1056 1184 1056 c 2,76,-1
 1248 1056 l 2,77,78
 1261 1056 1261 1056 1270.5 1065.5 c 128,-1,79
 1280 1075 1280 1075 1280 1088 c 2,64,-1
1664 1152 m 2,80,-1
 1664 -128 l 2,81,82
 1664 -180 1664 -180 1626 -218 c 128,-1,83
 1588 -256 1588 -256 1536 -256 c 2,84,-1
 128 -256 l 2,85,86
 76 -256 76 -256 38 -218 c 128,-1,87
 0 -180 0 -180 0 -128 c 2,88,-1
 0 1152 l 2,89,90
 0 1204 0 1204 38 1242 c 128,-1,91
 76 1280 76 1280 128 1280 c 2,92,-1
 256 1280 l 1,93,-1
 256 1376 l 2,94,95
 256 1442 256 1442 303 1489 c 128,-1,96
 350 1536 350 1536 416 1536 c 2,97,-1
 480 1536 l 2,98,99
 546 1536 546 1536 593 1489 c 128,-1,100
 640 1442 640 1442 640 1376 c 2,101,-1
 640 1280 l 1,102,-1
 1024 1280 l 1,103,-1
 1024 1376 l 2,104,105
 1024 1442 1024 1442 1071 1489 c 128,-1,106
 1118 1536 1118 1536 1184 1536 c 2,107,-1
 1248 1536 l 2,108,109
 1314 1536 1314 1536 1361 1489 c 128,-1,110
 1408 1442 1408 1442 1408 1376 c 2,111,-1
 1408 1280 l 1,112,-1
 1536 1280 l 2,113,114
 1588 1280 1588 1280 1626 1242 c 128,-1,115
 1664 1204 1664 1204 1664 1152 c 2,80,-1
EndSplineSet
EndChar

StartChar: random
Encoding: 61556 61556 136
Width: 1792
GlyphClass: 2
Flags: W
LayerCount: 2
Fore
SplineSet
666 1055 m 1,0,1
 606 963 606 963 529 782 c 1,2,3
 507 827 507 827 492 854.5 c 128,-1,4
 477 882 477 882 451.5 918 c 128,-1,5
 426 954 426 954 400.5 974.5 c 128,-1,6
 375 995 375 995 337.5 1009.5 c 128,-1,7
 300 1024 300 1024 256 1024 c 2,8,-1
 32 1024 l 2,9,10
 18 1024 18 1024 9 1033 c 128,-1,11
 0 1042 0 1042 0 1056 c 2,12,-1
 0 1248 l 2,13,14
 0 1262 0 1262 9 1271 c 128,-1,15
 18 1280 18 1280 32 1280 c 2,16,-1
 256 1280 l 2,17,18
 506 1280 506 1280 666 1055 c 1,0,1
1792 256 m 128,-1,20
 1792 242 1792 242 1783 233 c 2,21,-1
 1463 -87 l 2,22,23
 1454 -96 1454 -96 1440 -96 c 0,24,25
 1427 -96 1427 -96 1417.5 -86.5 c 128,-1,26
 1408 -77 1408 -77 1408 -64 c 2,27,-1
 1408 128 l 1,28,29
 1376 128 1376 128 1323 127.5 c 128,-1,30
 1270 127 1270 127 1242 126.5 c 128,-1,31
 1214 126 1214 126 1169 127.5 c 128,-1,32
 1124 129 1124 129 1098 132.5 c 128,-1,33
 1072 136 1072 136 1034 143 c 128,-1,34
 996 150 996 150 971 161.5 c 128,-1,35
 946 173 946 173 913 190 c 128,-1,36
 880 207 880 207 854 230 c 128,-1,37
 828 253 828 253 799 283.5 c 128,-1,38
 770 314 770 314 743 353 c 1,39,40
 802 446 802 446 879 626 c 1,41,42
 901 581 901 581 916 553.5 c 128,-1,43
 931 526 931 526 956.5 490 c 128,-1,44
 982 454 982 454 1007.5 433.5 c 128,-1,45
 1033 413 1033 413 1070.5 398.5 c 128,-1,46
 1108 384 1108 384 1152 384 c 2,47,-1
 1408 384 l 1,48,-1
 1408 576 l 2,49,50
 1408 590 1408 590 1417 599 c 128,-1,51
 1426 608 1426 608 1440 608 c 0,52,53
 1452 608 1452 608 1464 598 c 1,54,-1
 1783 279 l 2,55,19
 1792 270 1792 270 1792 256 c 128,-1,20
1792 1152 m 128,-1,57
 1792 1138 1792 1138 1783 1129 c 2,58,-1
 1463 809 l 2,59,60
 1454 800 1454 800 1440 800 c 0,61,62
 1427 800 1427 800 1417.5 809.5 c 128,-1,63
 1408 819 1408 819 1408 832 c 2,64,-1
 1408 1024 l 1,65,-1
 1152 1024 l 2,66,67
 1104 1024 1104 1024 1065 1009 c 128,-1,68
 1026 994 1026 994 996 964 c 128,-1,69
 966 934 966 934 945 902.5 c 128,-1,70
 924 871 924 871 900 825 c 0,71,72
 868 763 868 763 822 654 c 1,73,74
 793 588 793 588 772.5 543 c 128,-1,75
 752 498 752 498 718.5 438 c 128,-1,76
 685 378 685 378 654.5 338 c 128,-1,77
 624 298 624 298 580.5 255 c 128,-1,78
 537 212 537 212 490.5 186.5 c 128,-1,79
 444 161 444 161 384 144.5 c 128,-1,80
 324 128 324 128 256 128 c 2,81,-1
 32 128 l 2,82,83
 18 128 18 128 9 137 c 128,-1,84
 0 146 0 146 0 160 c 2,85,-1
 0 352 l 2,86,87
 0 366 0 366 9 375 c 128,-1,88
 18 384 18 384 32 384 c 2,89,-1
 256 384 l 2,90,91
 304 384 304 384 343 399 c 128,-1,92
 382 414 382 414 412 444 c 128,-1,93
 442 474 442 474 463 505.5 c 128,-1,94
 484 537 484 537 508 583 c 0,95,96
 540 645 540 645 586 754 c 1,97,98
 615 820 615 820 635.5 865 c 128,-1,99
 656 910 656 910 689.5 970 c 128,-1,100
 723 1030 723 1030 753.5 1070 c 128,-1,101
 784 1110 784 1110 827.5 1153 c 128,-1,102
 871 1196 871 1196 917.5 1221.5 c 128,-1,103
 964 1247 964 1247 1024 1263.5 c 128,-1,104
 1084 1280 1084 1280 1152 1280 c 2,105,-1
 1408 1280 l 1,106,-1
 1408 1472 l 2,107,108
 1408 1486 1408 1486 1417 1495 c 128,-1,109
 1426 1504 1426 1504 1440 1504 c 0,110,111
 1452 1504 1452 1504 1464 1494 c 1,112,-1
 1783 1175 l 2,113,56
 1792 1166 1792 1166 1792 1152 c 128,-1,57
EndSplineSet
EndChar

StartChar: comment
Encoding: 61557 61557 137
Width: 1792
GlyphClass: 2
Flags: W
LayerCount: 2
Fore
SplineSet
1792 640 m 128,-1,1
 1792 466 1792 466 1672 318.5 c 128,-1,2
 1552 171 1552 171 1346 85.5 c 128,-1,3
 1140 0 1140 0 896 0 c 0,4,5
 826 0 826 0 751 8 c 1,6,7
 553 -167 553 -167 291 -234 c 1,8,9
 242 -248 242 -248 177 -256 c 0,10,11
 160 -258 160 -258 146.5 -247 c 128,-1,12
 133 -236 133 -236 129 -218 c 1,13,-1
 129 -217 l 1,14,15
 126 -213 126 -213 128.5 -205 c 128,-1,16
 131 -197 131 -197 130.5 -195 c 128,-1,17
 130 -193 130 -193 135 -185.5 c 128,-1,18
 140 -178 140 -178 141 -176.5 c 128,-1,19
 142 -175 142 -175 148 -168 c 128,-1,20
 154 -161 154 -161 156 -159 c 0,21,22
 163 -151 163 -151 187 -124.5 c 128,-1,23
 211 -98 211 -98 221.5 -86.5 c 128,-1,24
 232 -75 232 -75 252.5 -47 c 128,-1,25
 273 -19 273 -19 285 4 c 128,-1,26
 297 27 297 27 312 63 c 128,-1,27
 327 99 327 99 338 139 c 1,28,29
 181 228 181 228 90.5 359 c 128,-1,30
 0 490 0 490 0 640 c 0,31,32
 0 770 0 770 71 888.5 c 128,-1,33
 142 1007 142 1007 262 1093 c 128,-1,34
 382 1179 382 1179 548 1229.5 c 128,-1,35
 714 1280 714 1280 896 1280 c 0,36,37
 1140 1280 1140 1280 1346 1194.5 c 128,-1,38
 1552 1109 1552 1109 1672 961.5 c 128,-1,0
 1792 814 1792 814 1792 640 c 128,-1,1
EndSplineSet
EndChar

StartChar: magnet
Encoding: 61558 61558 138
Width: 1536
GlyphClass: 2
Flags: W
LayerCount: 2
Fore
SplineSet
1536 704 m 2,0,-1
 1536 576 l 2,1,2
 1536 375 1536 375 1437.5 214 c 128,-1,3
 1339 53 1339 53 1163.5 -37.5 c 128,-1,4
 988 -128 988 -128 768 -128 c 128,-1,5
 548 -128 548 -128 372.5 -37.5 c 128,-1,6
 197 53 197 53 98.5 214 c 128,-1,7
 0 375 0 375 0 576 c 2,8,-1
 0 704 l 2,9,10
 0 730 0 730 19 749 c 128,-1,11
 38 768 38 768 64 768 c 2,12,-1
 448 768 l 2,13,14
 474 768 474 768 493 749 c 128,-1,15
 512 730 512 730 512 704 c 2,16,-1
 512 576 l 2,17,18
 512 524 512 524 535.5 486 c 128,-1,19
 559 448 559 448 589 429 c 128,-1,20
 619 410 619 410 660 399 c 128,-1,21
 701 388 701 388 724 386 c 128,-1,22
 747 384 747 384 768 384 c 128,-1,23
 789 384 789 384 812 386 c 128,-1,24
 835 388 835 388 876 399 c 128,-1,25
 917 410 917 410 947 429 c 128,-1,26
 977 448 977 448 1000.5 486 c 128,-1,27
 1024 524 1024 524 1024 576 c 2,28,-1
 1024 704 l 2,29,30
 1024 730 1024 730 1043 749 c 128,-1,31
 1062 768 1062 768 1088 768 c 2,32,-1
 1472 768 l 2,33,34
 1498 768 1498 768 1517 749 c 128,-1,35
 1536 730 1536 730 1536 704 c 2,0,-1
512 1344 m 2,36,-1
 512 960 l 2,37,38
 512 934 512 934 493 915 c 128,-1,39
 474 896 474 896 448 896 c 2,40,-1
 64 896 l 2,41,42
 38 896 38 896 19 915 c 128,-1,43
 0 934 0 934 0 960 c 2,44,-1
 0 1344 l 2,45,46
 0 1370 0 1370 19 1389 c 128,-1,47
 38 1408 38 1408 64 1408 c 2,48,-1
 448 1408 l 2,49,50
 474 1408 474 1408 493 1389 c 128,-1,51
 512 1370 512 1370 512 1344 c 2,36,-1
1536 1344 m 2,52,-1
 1536 960 l 2,53,54
 1536 934 1536 934 1517 915 c 128,-1,55
 1498 896 1498 896 1472 896 c 2,56,-1
 1088 896 l 2,57,58
 1062 896 1062 896 1043 915 c 128,-1,59
 1024 934 1024 934 1024 960 c 2,60,-1
 1024 1344 l 2,61,62
 1024 1370 1024 1370 1043 1389 c 128,-1,63
 1062 1408 1062 1408 1088 1408 c 2,64,-1
 1472 1408 l 2,65,66
 1498 1408 1498 1408 1517 1389 c 128,-1,67
 1536 1370 1536 1370 1536 1344 c 2,52,-1
EndSplineSet
EndChar

StartChar: chevron_up
Encoding: 61559 61559 139
Width: 1664
GlyphClass: 2
Flags: W
LayerCount: 2
Fore
SplineSet
1611 320 m 128,-1,1
 1611 267 1611 267 1574 230 c 2,2,-1
 1499 155 l 2,3,4
 1461 117 1461 117 1408 117 c 0,5,6
 1354 117 1354 117 1318 155 c 1,7,-1
 832 640 l 1,8,-1
 346 155 l 1,9,10
 310 117 310 117 256 117 c 128,-1,11
 202 117 202 117 166 155 c 1,12,-1
 91 230 l 1,13,14
 53 266 53 266 53 320 c 0,15,16
 53 373 53 373 91 411 c 2,17,-1
 742 1062 l 2,18,19
 779 1099 779 1099 832 1099 c 0,20,21
 884 1099 884 1099 923 1062 c 1,22,-1
 1573 411 l 2,23,0
 1611 373 1611 373 1611 320 c 128,-1,1
EndSplineSet
EndChar

StartChar: chevron_down
Encoding: 61560 61560 140
Width: 1664
GlyphClass: 2
Flags: W
LayerCount: 2
Fore
SplineSet
1611 832 m 0,0,1
 1611 779 1611 779 1574 742 c 2,2,-1
 923 91 l 2,3,4
 885 53 885 53 832 53 c 0,5,6
 778 53 778 53 742 91 c 1,7,-1
 91 742 l 1,8,9
 53 778 53 778 53 832 c 0,10,11
 53 885 53 885 91 923 c 2,12,-1
 165 998 l 1,13,14
 204 1035 204 1035 256 1035 c 0,15,16
 309 1035 309 1035 346 998 c 2,17,-1
 832 512 l 1,18,-1
 1318 998 l 2,19,20
 1355 1035 1355 1035 1408 1035 c 0,21,22
 1460 1035 1460 1035 1499 998 c 1,23,-1
 1574 923 l 1,24,25
 1611 884 1611 884 1611 832 c 0,0,1
EndSplineSet
EndChar

StartChar: retweet
Encoding: 61561 61561 141
Width: 1920
GlyphClass: 2
Flags: W
LayerCount: 2
Fore
SplineSet
1280 32 m 0,0,1
 1280 19 1280 19 1270.5 9.5 c 128,-1,2
 1261 0 1261 0 1248 0 c 2,3,-1
 288 0 l 2,4,5
 280 0 280 0 274.5 2 c 128,-1,6
 269 4 269 4 265.5 9 c 128,-1,7
 262 14 262 14 260 17 c 128,-1,8
 258 20 258 20 257 28.5 c 128,-1,9
 256 37 256 37 256 40 c 128,-1,10
 256 43 256 43 256 53 c 128,-1,11
 256 63 256 63 256 64 c 2,12,-1
 256 224 l 1,13,-1
 256 640 l 1,14,-1
 64 640 l 2,15,16
 38 640 38 640 19 659 c 128,-1,17
 0 678 0 678 0 704 c 0,18,19
 0 728 0 728 15 745 c 2,20,-1
 335 1129 l 2,21,22
 354 1151 354 1151 384 1151 c 128,-1,23
 414 1151 414 1151 433 1129 c 2,24,-1
 753 745 l 2,25,26
 768 728 768 728 768 704 c 0,27,28
 768 678 768 678 749 659 c 128,-1,29
 730 640 730 640 704 640 c 2,30,-1
 512 640 l 1,31,-1
 512 256 l 1,32,-1
 1088 256 l 2,33,34
 1104 256 1104 256 1113 245 c 2,35,-1
 1273 53 l 1,36,37
 1280 42 1280 42 1280 32 c 0,0,1
1920 448 m 0,38,39
 1920 424 1920 424 1905 407 c 2,40,-1
 1585 23 l 2,41,42
 1565 0 1565 0 1536 0 c 128,-1,43
 1507 0 1507 0 1487 23 c 2,44,-1
 1167 407 l 2,45,46
 1152 424 1152 424 1152 448 c 0,47,48
 1152 474 1152 474 1171 493 c 128,-1,49
 1190 512 1190 512 1216 512 c 2,50,-1
 1408 512 l 1,51,-1
 1408 896 l 1,52,-1
 832 896 l 2,53,54
 816 896 816 896 807 908 c 2,55,-1
 647 1100 l 2,56,57
 640 1109 640 1109 640 1120 c 0,58,59
 640 1133 640 1133 649.5 1142.5 c 128,-1,60
 659 1152 659 1152 672 1152 c 2,61,-1
 1632 1152 l 2,62,63
 1640 1152 1640 1152 1645.5 1150 c 128,-1,64
 1651 1148 1651 1148 1654.5 1143 c 128,-1,65
 1658 1138 1658 1138 1660 1135 c 128,-1,66
 1662 1132 1662 1132 1663 1123.5 c 128,-1,67
 1664 1115 1664 1115 1664 1112 c 128,-1,68
 1664 1109 1664 1109 1664 1099 c 128,-1,69
 1664 1089 1664 1089 1664 1088 c 2,70,-1
 1664 928 l 1,71,-1
 1664 512 l 1,72,-1
 1856 512 l 2,73,74
 1882 512 1882 512 1901 493 c 128,-1,75
 1920 474 1920 474 1920 448 c 0,38,39
EndSplineSet
EndChar

StartChar: shopping_cart
Encoding: 61562 61562 142
Width: 1664
GlyphClass: 2
Flags: W
LayerCount: 2
Fore
SplineSet
640 0 m 128,-1,1
 640 -53 640 -53 602.5 -90.5 c 128,-1,2
 565 -128 565 -128 512 -128 c 128,-1,3
 459 -128 459 -128 421.5 -90.5 c 128,-1,4
 384 -53 384 -53 384 0 c 128,-1,5
 384 53 384 53 421.5 90.5 c 128,-1,6
 459 128 459 128 512 128 c 128,-1,7
 565 128 565 128 602.5 90.5 c 128,-1,0
 640 53 640 53 640 0 c 128,-1,1
1536 0 m 128,-1,9
 1536 -53 1536 -53 1498.5 -90.5 c 128,-1,10
 1461 -128 1461 -128 1408 -128 c 128,-1,11
 1355 -128 1355 -128 1317.5 -90.5 c 128,-1,12
 1280 -53 1280 -53 1280 0 c 128,-1,13
 1280 53 1280 53 1317.5 90.5 c 128,-1,14
 1355 128 1355 128 1408 128 c 128,-1,15
 1461 128 1461 128 1498.5 90.5 c 128,-1,8
 1536 53 1536 53 1536 0 c 128,-1,9
1664 1088 m 2,16,-1
 1664 576 l 2,17,18
 1664 552 1664 552 1648 533.5 c 128,-1,19
 1632 515 1632 515 1607 512 c 2,20,-1
 563 390 l 1,21,22
 564 383 564 383 567.5 368.5 c 128,-1,23
 571 354 571 354 573.5 342 c 128,-1,24
 576 330 576 330 576 320 c 0,25,26
 576 304 576 304 552 256 c 1,27,-1
 1472 256 l 2,28,29
 1498 256 1498 256 1517 237 c 128,-1,30
 1536 218 1536 218 1536 192 c 128,-1,31
 1536 166 1536 166 1517 147 c 128,-1,32
 1498 128 1498 128 1472 128 c 2,33,-1
 448 128 l 2,34,35
 422 128 422 128 403 147 c 128,-1,36
 384 166 384 166 384 192 c 0,37,38
 384 206 384 206 395 231.5 c 128,-1,39
 406 257 406 257 424.5 291 c 128,-1,40
 443 325 443 325 445 329 c 1,41,-1
 268 1152 l 1,42,-1
 64 1152 l 2,43,44
 38 1152 38 1152 19 1171 c 128,-1,45
 0 1190 0 1190 0 1216 c 128,-1,46
 0 1242 0 1242 19 1261 c 128,-1,47
 38 1280 38 1280 64 1280 c 2,48,-1
 320 1280 l 2,49,50
 336 1280 336 1280 348.5 1273.5 c 128,-1,51
 361 1267 361 1267 368.5 1258 c 128,-1,52
 376 1249 376 1249 381.5 1233.5 c 128,-1,53
 387 1218 387 1218 389 1207 c 128,-1,54
 391 1196 391 1196 394.5 1177.5 c 128,-1,55
 398 1159 398 1159 399 1152 c 1,56,-1
 1600 1152 l 2,57,58
 1626 1152 1626 1152 1645 1133 c 128,-1,59
 1664 1114 1664 1114 1664 1088 c 2,16,-1
EndSplineSet
EndChar

StartChar: folder_close
Encoding: 61563 61563 143
Width: 1664
GlyphClass: 2
Flags: W
LayerCount: 2
Fore
SplineSet
1664 928 m 2,0,-1
 1664 224 l 2,1,2
 1664 132 1664 132 1598 66 c 128,-1,3
 1532 0 1532 0 1440 0 c 2,4,-1
 224 0 l 2,5,6
 132 0 132 0 66 66 c 128,-1,7
 0 132 0 132 0 224 c 2,8,-1
 0 1184 l 2,9,10
 0 1276 0 1276 66 1342 c 128,-1,11
 132 1408 132 1408 224 1408 c 2,12,-1
 544 1408 l 2,13,14
 636 1408 636 1408 702 1342 c 128,-1,15
 768 1276 768 1276 768 1184 c 2,16,-1
 768 1152 l 1,17,-1
 1440 1152 l 2,18,19
 1532 1152 1532 1152 1598 1086 c 128,-1,20
 1664 1020 1664 1020 1664 928 c 2,0,-1
EndSplineSet
EndChar

StartChar: folder_open
Encoding: 61564 61564 144
Width: 1920
GlyphClass: 2
Flags: W
LayerCount: 2
Fore
SplineSet
1879 584 m 0,0,1
 1879 553 1879 553 1848 518 c 2,2,-1
 1512 122 l 2,3,4
 1469 71 1469 71 1391.5 35.5 c 128,-1,5
 1314 0 1314 0 1248 0 c 2,6,-1
 160 0 l 2,7,8
 126 0 126 0 99.5 13 c 128,-1,9
 73 26 73 26 73 56 c 0,10,11
 73 87 73 87 104 122 c 2,12,-1
 440 518 l 2,13,14
 483 569 483 569 560.5 604.5 c 128,-1,15
 638 640 638 640 704 640 c 2,16,-1
 1792 640 l 2,17,18
 1826 640 1826 640 1852.5 627 c 128,-1,19
 1879 614 1879 614 1879 584 c 0,0,1
1536 928 m 2,20,-1
 1536 768 l 1,21,-1
 704 768 l 2,22,23
 610 768 610 768 507 720.5 c 128,-1,24
 404 673 404 673 343 601 c 2,25,-1
 6 205 l 1,26,-1
 1 199 l 1,27,28
 1 203 1 203 0.5 211.5 c 128,-1,29
 0 220 0 220 0 224 c 2,30,-1
 0 1184 l 2,31,32
 0 1276 0 1276 66 1342 c 128,-1,33
 132 1408 132 1408 224 1408 c 2,34,-1
 544 1408 l 2,35,36
 636 1408 636 1408 702 1342 c 128,-1,37
 768 1276 768 1276 768 1184 c 2,38,-1
 768 1152 l 1,39,-1
 1312 1152 l 2,40,41
 1404 1152 1404 1152 1470 1086 c 128,-1,42
 1536 1020 1536 1020 1536 928 c 2,20,-1
EndSplineSet
EndChar

StartChar: resize_vertical
Encoding: 61565 61565 145
Width: 768
GlyphClass: 2
Flags: W
LayerCount: 2
Fore
SplineSet
704 1216 m 128,-1,1
 704 1190 704 1190 685 1171 c 128,-1,2
 666 1152 666 1152 640 1152 c 2,3,-1
 512 1152 l 1,4,-1
 512 128 l 1,5,-1
 640 128 l 2,6,7
 666 128 666 128 685 109 c 128,-1,8
 704 90 704 90 704 64 c 128,-1,9
 704 38 704 38 685 19 c 2,10,-1
 429 -237 l 2,11,12
 410 -256 410 -256 384 -256 c 128,-1,13
 358 -256 358 -256 339 -237 c 2,14,-1
 83 19 l 2,15,16
 64 38 64 38 64 64 c 128,-1,17
 64 90 64 90 83 109 c 128,-1,18
 102 128 102 128 128 128 c 2,19,-1
 256 128 l 1,20,-1
 256 1152 l 1,21,-1
 128 1152 l 2,22,23
 102 1152 102 1152 83 1171 c 128,-1,24
 64 1190 64 1190 64 1216 c 128,-1,25
 64 1242 64 1242 83 1261 c 2,26,-1
 339 1517 l 2,27,28
 358 1536 358 1536 384 1536 c 128,-1,29
 410 1536 410 1536 429 1517 c 2,30,-1
 685 1261 l 2,31,0
 704 1242 704 1242 704 1216 c 128,-1,1
EndSplineSet
EndChar

StartChar: resize_horizontal
Encoding: 61566 61566 146
Width: 1792
GlyphClass: 2
Flags: W
LayerCount: 2
Fore
SplineSet
1792 640 m 128,-1,1
 1792 614 1792 614 1773 595 c 2,2,-1
 1517 339 l 2,3,4
 1498 320 1498 320 1472 320 c 128,-1,5
 1446 320 1446 320 1427 339 c 128,-1,6
 1408 358 1408 358 1408 384 c 2,7,-1
 1408 512 l 1,8,-1
 384 512 l 1,9,-1
 384 384 l 2,10,11
 384 358 384 358 365 339 c 128,-1,12
 346 320 346 320 320 320 c 128,-1,13
 294 320 294 320 275 339 c 2,14,-1
 19 595 l 2,15,16
 0 614 0 614 0 640 c 128,-1,17
 0 666 0 666 19 685 c 2,18,-1
 275 941 l 2,19,20
 294 960 294 960 320 960 c 128,-1,21
 346 960 346 960 365 941 c 128,-1,22
 384 922 384 922 384 896 c 2,23,-1
 384 768 l 1,24,-1
 1408 768 l 1,25,-1
 1408 896 l 2,26,27
 1408 922 1408 922 1427 941 c 128,-1,28
 1446 960 1446 960 1472 960 c 128,-1,29
 1498 960 1498 960 1517 941 c 2,30,-1
 1773 685 l 2,31,0
 1792 666 1792 666 1792 640 c 128,-1,1
EndSplineSet
EndChar

StartChar: bar_chart
Encoding: 61568 61568 147
Width: 1920
GlyphClass: 2
Flags: W
LayerCount: 2
Fore
SplineSet
512 512 m 1,0,-1
 512 128 l 1,1,-1
 256 128 l 1,2,-1
 256 512 l 1,3,-1
 512 512 l 1,0,-1
896 1024 m 1,4,-1
 896 128 l 1,5,-1
 640 128 l 1,6,-1
 640 1024 l 1,7,-1
 896 1024 l 1,4,-1
1280 768 m 1,8,-1
 1280 128 l 1,9,-1
 1024 128 l 1,10,-1
 1024 768 l 1,11,-1
 1280 768 l 1,8,-1
1664 1152 m 1,12,-1
 1664 128 l 1,13,-1
 1408 128 l 1,14,-1
 1408 1152 l 1,15,-1
 1664 1152 l 1,12,-1
1792 32 m 2,16,-1
 1792 1248 l 2,17,18
 1792 1261 1792 1261 1782.5 1270.5 c 128,-1,19
 1773 1280 1773 1280 1760 1280 c 2,20,-1
 160 1280 l 2,21,22
 147 1280 147 1280 137.5 1270.5 c 128,-1,23
 128 1261 128 1261 128 1248 c 2,24,-1
 128 32 l 2,25,26
 128 19 128 19 137.5 9.5 c 128,-1,27
 147 0 147 0 160 0 c 2,28,-1
 1760 0 l 2,29,30
 1773 0 1773 0 1782.5 9.5 c 128,-1,31
 1792 19 1792 19 1792 32 c 2,16,-1
1920 1248 m 2,32,-1
 1920 32 l 2,33,34
 1920 -34 1920 -34 1873 -81 c 128,-1,35
 1826 -128 1826 -128 1760 -128 c 2,36,-1
 160 -128 l 2,37,38
 94 -128 94 -128 47 -81 c 128,-1,39
 0 -34 0 -34 0 32 c 2,40,-1
 0 1248 l 2,41,42
 0 1314 0 1314 47 1361 c 128,-1,43
 94 1408 94 1408 160 1408 c 2,44,-1
 1760 1408 l 2,45,46
 1826 1408 1826 1408 1873 1361 c 128,-1,47
 1920 1314 1920 1314 1920 1248 c 2,32,-1
EndSplineSet
EndChar

StartChar: twitter_sign
Encoding: 61569 61569 148
Width: 1536
GlyphClass: 2
Flags: W
LayerCount: 2
Fore
SplineSet
1280 926 m 1,0,1
 1224 901 1224 901 1159 892 c 1,2,3
 1227 932 1227 932 1252 1009 c 1,4,5
 1187 971 1187 971 1118 958 c 1,6,7
 1057 1024 1057 1024 965 1024 c 0,8,9
 878 1024 878 1024 816.5 962.5 c 128,-1,10
 755 901 755 901 755 814 c 0,11,12
 755 785 755 785 760 766 c 1,13,14
 631 773 631 773 518 831 c 128,-1,15
 405 889 405 889 326 986 c 1,16,17
 297 936 297 936 297 880 c 0,18,19
 297 766 297 766 388 705 c 1,20,21
 341 706 341 706 288 731 c 1,22,-1
 288 729 l 2,23,24
 288 654 288 654 338 595.5 c 128,-1,25
 388 537 388 537 461 523 c 1,26,27
 432 515 432 515 410 515 c 0,28,29
 397 515 397 515 371 519 c 1,30,31
 392 456 392 456 445.5 415 c 128,-1,32
 499 374 499 374 567 373 c 1,33,34
 451 283 451 283 306 283 c 0,35,36
 280 283 280 283 256 286 c 1,37,38
 404 192 404 192 578 192 c 0,39,40
 690 192 690 192 788 227.5 c 128,-1,41
 886 263 886 263 956 322.5 c 128,-1,42
 1026 382 1026 382 1076.5 459.5 c 128,-1,43
 1127 537 1127 537 1151.5 621.5 c 128,-1,44
 1176 706 1176 706 1176 790 c 0,45,46
 1176 808 1176 808 1175 817 c 1,47,48
 1238 862 1238 862 1280 926 c 1,0,1
1536 1120 m 2,49,-1
 1536 160 l 2,50,51
 1536 41 1536 41 1451.5 -43.5 c 128,-1,52
 1367 -128 1367 -128 1248 -128 c 2,53,-1
 288 -128 l 2,54,55
 169 -128 169 -128 84.5 -43.5 c 128,-1,56
 0 41 0 41 0 160 c 2,57,-1
 0 1120 l 2,58,59
 0 1239 0 1239 84.5 1323.5 c 128,-1,60
 169 1408 169 1408 288 1408 c 2,61,-1
 1248 1408 l 2,62,63
 1367 1408 1367 1408 1451.5 1323.5 c 128,-1,64
 1536 1239 1536 1239 1536 1120 c 2,49,-1
EndSplineSet
EndChar

StartChar: facebook_sign
Encoding: 61570 61570 149
Width: 1536
GlyphClass: 2
Flags: W
LayerCount: 2
Fore
SplineSet
1307 618 m 1,0,-1
 1330 837 l 1,1,-1
 1132 837 l 1,2,-1
 1132 946 l 2,3,4
 1132 995 1132 995 1147.5 1014.5 c 128,-1,5
 1163 1034 1163 1034 1219 1034 c 2,6,-1
 1329 1034 l 1,7,-1
 1329 1253 l 1,8,-1
 1154 1253 l 2,9,10
 1002 1253 1002 1253 936 1181 c 128,-1,11
 870 1109 870 1109 870 968 c 2,12,-1
 870 837 l 1,13,-1
 739 837 l 1,14,-1
 739 618 l 1,15,-1
 870 618 l 1,16,-1
 870 -17 l 1,17,-1
 1132 -17 l 1,18,-1
 1132 618 l 1,19,-1
 1307 618 l 1,0,-1
1536 1120 m 2,20,-1
 1536 160 l 2,21,22
 1536 41 1536 41 1451.5 -43.5 c 128,-1,23
 1367 -128 1367 -128 1248 -128 c 2,24,-1
 288 -128 l 2,25,26
 169 -128 169 -128 84.5 -43.5 c 128,-1,27
 0 41 0 41 0 160 c 2,28,-1
 0 1120 l 2,29,30
 0 1239 0 1239 84.5 1323.5 c 128,-1,31
 169 1408 169 1408 288 1408 c 2,32,-1
 1248 1408 l 2,33,34
 1367 1408 1367 1408 1451.5 1323.5 c 128,-1,35
 1536 1239 1536 1239 1536 1120 c 2,20,-1
EndSplineSet
EndChar

StartChar: camera_retro
Encoding: 61571 61571 150
Width: 1792
GlyphClass: 2
Flags: W
LayerCount: 2
Fore
SplineSet
928 704 m 128,-1,1
 928 718 928 718 919 727 c 128,-1,2
 910 736 910 736 896 736 c 0,3,4
 830 736 830 736 783 689 c 128,-1,5
 736 642 736 642 736 576 c 0,6,7
 736 562 736 562 745 553 c 128,-1,8
 754 544 754 544 768 544 c 128,-1,9
 782 544 782 544 791 553 c 128,-1,10
 800 562 800 562 800 576 c 0,11,12
 800 616 800 616 828 644 c 128,-1,13
 856 672 856 672 896 672 c 0,14,15
 910 672 910 672 919 681 c 128,-1,0
 928 690 928 690 928 704 c 128,-1,1
1152 574 m 128,-1,17
 1152 468 1152 468 1077 393 c 128,-1,18
 1002 318 1002 318 896 318 c 128,-1,19
 790 318 790 318 715 393 c 128,-1,20
 640 468 640 468 640 574 c 128,-1,21
 640 680 640 680 715 755 c 128,-1,22
 790 830 790 830 896 830 c 128,-1,23
 1002 830 1002 830 1077 755 c 128,-1,16
 1152 680 1152 680 1152 574 c 128,-1,17
128 0 m 1,24,-1
 1664 0 l 1,25,-1
 1664 128 l 1,26,-1
 128 128 l 1,27,-1
 128 0 l 1,24,-1
1280 574 m 128,-1,29
 1280 733 1280 733 1167.5 845.5 c 128,-1,30
 1055 958 1055 958 896 958 c 128,-1,31
 737 958 737 958 624.5 845.5 c 128,-1,32
 512 733 512 733 512 574 c 128,-1,33
 512 415 512 415 624.5 302.5 c 128,-1,34
 737 190 737 190 896 190 c 128,-1,35
 1055 190 1055 190 1167.5 302.5 c 128,-1,28
 1280 415 1280 415 1280 574 c 128,-1,29
256 1216 m 1,36,-1
 640 1216 l 1,37,-1
 640 1344 l 1,38,-1
 256 1344 l 1,39,-1
 256 1216 l 1,36,-1
128 1024 m 1,40,-1
 1664 1024 l 1,41,-1
 1664 1142 l 1,42,-1
 1664 1280 l 1,43,-1
 836 1280 l 1,44,-1
 772 1152 l 1,45,-1
 128 1152 l 1,46,-1
 128 1024 l 1,40,-1
1792 1280 m 2,47,-1
 1792 0 l 2,48,49
 1792 -53 1792 -53 1754.5 -90.5 c 128,-1,50
 1717 -128 1717 -128 1664 -128 c 2,51,-1
 128 -128 l 2,52,53
 75 -128 75 -128 37.5 -90.5 c 128,-1,54
 0 -53 0 -53 0 0 c 2,55,-1
 0 1280 l 2,56,57
 0 1333 0 1333 37.5 1370.5 c 128,-1,58
 75 1408 75 1408 128 1408 c 2,59,-1
 1664 1408 l 2,60,61
 1717 1408 1717 1408 1754.5 1370.5 c 128,-1,62
 1792 1333 1792 1333 1792 1280 c 2,47,-1
EndSplineSet
EndChar

StartChar: key
Encoding: 61572 61572 151
Width: 1792
GlyphClass: 2
Flags: W
LayerCount: 2
Fore
SplineSet
832 1024 m 128,-1,1
 832 1104 832 1104 776 1160 c 128,-1,2
 720 1216 720 1216 640 1216 c 128,-1,3
 560 1216 560 1216 504 1160 c 128,-1,4
 448 1104 448 1104 448 1024 c 0,5,6
 448 982 448 982 467 941 c 1,7,8
 426 960 426 960 384 960 c 0,9,10
 304 960 304 960 248 904 c 128,-1,11
 192 848 192 848 192 768 c 128,-1,12
 192 688 192 688 248 632 c 128,-1,13
 304 576 304 576 384 576 c 128,-1,14
 464 576 464 576 520 632 c 128,-1,15
 576 688 576 688 576 768 c 0,16,17
 576 810 576 810 557 851 c 1,18,19
 598 832 598 832 640 832 c 0,20,21
 720 832 720 832 776 888 c 128,-1,0
 832 944 832 944 832 1024 c 128,-1,1
1683 320 m 0,22,23
 1683 303 1683 303 1634 254 c 128,-1,24
 1585 205 1585 205 1568 205 c 0,25,26
 1559 205 1559 205 1539.5 221 c 128,-1,27
 1520 237 1520 237 1503 254 c 128,-1,28
 1486 271 1486 271 1464.5 294 c 128,-1,29
 1443 317 1443 317 1440 320 c 1,30,-1
 1344 224 l 1,31,-1
 1564 4 l 2,32,33
 1592 -24 1592 -24 1592 -64 c 0,34,35
 1592 -106 1592 -106 1553 -145 c 128,-1,36
 1514 -184 1514 -184 1472 -184 c 0,37,38
 1432 -184 1432 -184 1404 -156 c 2,39,-1
 733 515 l 1,40,41
 557 384 557 384 368 384 c 0,42,43
 205 384 205 384 102.5 486.5 c 128,-1,44
 0 589 0 589 0 752 c 0,45,46
 0 912 0 912 95 1065 c 128,-1,47
 190 1218 190 1218 343 1313 c 128,-1,48
 496 1408 496 1408 656 1408 c 0,49,50
 819 1408 819 1408 921.5 1305.5 c 128,-1,51
 1024 1203 1024 1203 1024 1040 c 0,52,53
 1024 851 1024 851 893 675 c 1,54,-1
 1248 320 l 1,55,-1
 1344 416 l 1,56,57
 1341 419 1341 419 1318 440.5 c 128,-1,58
 1295 462 1295 462 1278 479 c 128,-1,59
 1261 496 1261 496 1245 515.5 c 128,-1,60
 1229 535 1229 535 1229 544 c 0,61,62
 1229 561 1229 561 1278 610 c 128,-1,63
 1327 659 1327 659 1344 659 c 0,64,65
 1357 659 1357 659 1367 649 c 0,66,67
 1373 643 1373 643 1413 604.5 c 128,-1,68
 1453 566 1453 566 1495 525 c 128,-1,69
 1537 484 1537 484 1581.5 439 c 128,-1,70
 1626 394 1626 394 1654.5 361 c 128,-1,71
 1683 328 1683 328 1683 320 c 0,22,23
EndSplineSet
EndChar

